G04 ================== begin FILE IDENTIFICATION RECORD ==================*
G04 Layout Name:  BD9109FVMEVK-101_EVAL_REV01_22NOV13.brd*
G04 Film Name:    SMASK_BOTTOM*
G04 File Format:  Gerber RS274X*
G04 File Origin:  Cadence Allegro 16.3-S048*
G04 Origin Date:  Fri Nov 22 16:48:08 2013*
G04 *
G04 Layer:  VIA CLASS/SOLDERMASK_BOTTOM*
G04 Layer:  PIN/SOLDERMASK_BOTTOM*
G04 Layer:  PACKAGE GEOMETRY/SOLDERMASK_BOTTOM*
G04 Layer:  DRAWING FORMAT/SOLDERMASK_BOTTOM*
G04 Layer:  BOARD GEOMETRY/OUTLINE*
G04 Layer:  BOARD GEOMETRY/SOLDERMASK_BOTTOM*
G04 Layer:  BOARD GEOMETRY/LOGO_M*
G04 *
G04 Offset:    (0.000 0.000)*
G04 Mirror:    No*
G04 Mode:      Positive*
G04 Rotation:  0*
G04 FullContactRelief:  No*
G04 UndefLineWidth:     5.000*
G04 ================== end FILE IDENTIFICATION RECORD ====================*
%FSLAX55Y55*MOIN*%
%IR0*IPPOS*OFA0.00000B0.00000*MIA0B0*SFA1.00000B1.00000*%
%ADD10C,.255*%
%ADD11C,.018*%
%ADD14C,.065*%
%ADD12C,.098*%
%ADD13R,.065X.065*%
%ADD15C,.007098*%
%ADD16C,.005*%
G75*
%LPD*%
G75*
G54D10*
X0Y0D03*
Y240590D03*
X240590Y0D03*
Y240590D03*
G54D11*
X-12200Y14050D03*
Y24050D03*
Y34050D03*
X5300Y14050D03*
X-4700D03*
X5300Y24050D03*
X-4700D03*
X5300Y34050D03*
X-4700D03*
Y74050D03*
X5300D03*
X-12200Y64050D03*
Y74050D03*
Y44050D03*
Y54050D03*
X5300Y44050D03*
X-4700D03*
X5300Y54050D03*
X-4700D03*
Y64050D03*
X5300D03*
X-12200Y114050D03*
Y84050D03*
Y94050D03*
Y104050D03*
X-4700Y84050D03*
X5300D03*
X-4700Y94050D03*
X5300D03*
X-6500Y104000D03*
X6500D03*
X-6500Y114000D03*
X7000D03*
X-12200Y124050D03*
Y134050D03*
Y144050D03*
X-4500Y164000D03*
X5500D03*
X-4500Y174000D03*
X5500D03*
X-12200Y164050D03*
Y174050D03*
Y184050D03*
Y154050D03*
X-4700Y184050D03*
X5300D03*
X-12200Y214050D03*
Y224050D03*
Y194050D03*
Y204050D03*
X-4700Y194050D03*
X5300D03*
X-4700Y204050D03*
X5300D03*
Y214050D03*
X-4700D03*
Y224050D03*
X45300Y-12950D03*
X15300D03*
X25300D03*
X35300D03*
X15300Y-5950D03*
X25300D03*
X35300D03*
X45300D03*
X15300Y34050D03*
Y24050D03*
Y14050D03*
Y4050D03*
X45300Y64050D03*
X15300D03*
X25300D03*
X35300D03*
X45300Y74050D03*
X15300D03*
X25300D03*
X35300D03*
X15300Y54050D03*
Y44050D03*
X45300Y84050D03*
X15300D03*
X25300D03*
X35300D03*
X45300Y94050D03*
X15300D03*
X25300D03*
X35300D03*
X45300Y104050D03*
X15300D03*
X25300D03*
X35300D03*
X45300Y114050D03*
X15300D03*
X25300D03*
X35300D03*
X45500Y164000D03*
Y174000D03*
X15500Y164000D03*
X25500D03*
X35500D03*
X15500Y174000D03*
X25500D03*
X35500D03*
X45300Y184050D03*
X15300D03*
X25300D03*
X35300D03*
X45300Y194050D03*
X15300D03*
X25300D03*
X35300D03*
X15300Y204050D03*
Y214050D03*
Y224050D03*
X45300Y244050D03*
X35300D03*
X25300D03*
X15300Y234050D03*
Y244050D03*
X45300Y254050D03*
X35300D03*
X25300D03*
X15300D03*
X55300Y-12950D03*
X65300D03*
X75300D03*
X85300D03*
X55300Y-5950D03*
X65300D03*
X75300D03*
X85300D03*
Y34050D03*
Y24050D03*
Y14050D03*
Y4050D03*
Y74050D03*
X75300D03*
X85300Y64050D03*
X75300D03*
X55300Y74050D03*
X65300D03*
X55300Y64050D03*
X65300D03*
X85300Y54050D03*
Y44050D03*
Y114050D03*
X75300D03*
X85300Y94050D03*
Y104050D03*
Y84050D03*
X75300Y94050D03*
Y104050D03*
Y84050D03*
X65300Y94050D03*
Y104050D03*
Y114050D03*
X55300D03*
Y94050D03*
Y104050D03*
Y84050D03*
X65300D03*
X55500Y164000D03*
X65500D03*
X75500D03*
X85500D03*
X55500Y174000D03*
X65500D03*
X75500D03*
X85500D03*
X55300Y184050D03*
X65300D03*
X75300D03*
X85300D03*
Y224050D03*
X55300Y194050D03*
X65300D03*
X75300D03*
X85300D03*
Y244050D03*
X75300D03*
X65300D03*
X55300D03*
X85300Y234050D03*
Y254050D03*
X75300D03*
X65300D03*
X55300D03*
X95300Y-12950D03*
X105300D03*
X115300D03*
X95300Y-5950D03*
X105300D03*
X115300D03*
Y34050D03*
X105300D03*
X95300D03*
X115300Y24050D03*
X105300D03*
X95300D03*
X115300Y14050D03*
X105300D03*
X95300D03*
X115300Y4050D03*
X105300D03*
X95300D03*
X115500Y74000D03*
X105300Y74050D03*
X95300D03*
X115300Y64050D03*
X105300D03*
X95300D03*
X115300Y54050D03*
X105300D03*
X95300D03*
X115300Y44050D03*
X105300D03*
X95300D03*
X118000Y111000D03*
X102000Y114000D03*
X105500Y102000D03*
X116500Y107000D03*
X108500D03*
X102000D03*
X101000Y98000D03*
X95000Y102500D03*
X115700Y92450D03*
X105500Y92500D03*
X115500Y84000D03*
X105300Y84050D03*
X95300D03*
Y94050D03*
X122500Y104000D03*
X118000Y117000D03*
X122500Y148500D03*
X117500Y143500D03*
X110000D03*
X95500Y164000D03*
X105500D03*
X115500D03*
X95500Y174000D03*
X105500D03*
X115500D03*
X95500Y183000D03*
X105300Y184050D03*
X115300D03*
Y214050D03*
X95300Y224050D03*
X105300D03*
X115300D03*
X96500Y194000D03*
X105300Y194050D03*
X115300D03*
Y234050D03*
X105300D03*
X95300D03*
X115300Y244050D03*
X105300D03*
X95300D03*
X115300Y254050D03*
X105300D03*
X95300D03*
X145300Y-12950D03*
X155300D03*
X125300D03*
X135300D03*
X125300Y-5950D03*
X135300D03*
X145300D03*
X155300D03*
Y34050D03*
X145300D03*
X135300D03*
X125300D03*
X155300Y24050D03*
X145300D03*
X135300D03*
X125300D03*
X155300Y14050D03*
X145300D03*
X135300D03*
X125300D03*
X155300Y4050D03*
X145300D03*
X135300D03*
X125300D03*
X155500Y74000D03*
X145500D03*
X135500D03*
X125500D03*
X155300Y64050D03*
X145300D03*
X135300D03*
X125300D03*
X155300Y54050D03*
X145300D03*
X135300D03*
X125300D03*
X155300Y44050D03*
X145300D03*
X135300D03*
X125300D03*
X156000Y114000D03*
X140000Y108500D03*
Y114000D03*
X135000Y108500D03*
Y114000D03*
X156000Y103500D03*
X146000D03*
X135000D03*
X145700Y92450D03*
X155700D03*
X125700D03*
X135700D03*
X155500Y84000D03*
X145500D03*
X135500D03*
X125500D03*
X129510Y114000D03*
X124510D03*
X130500Y104000D03*
X140000Y119500D03*
Y125000D03*
X135000Y119500D03*
Y125000D03*
X129510Y119000D03*
X124510D03*
X145700Y153950D03*
X155500Y154000D03*
X135700Y153950D03*
X125700D03*
X145500Y164000D03*
Y174000D03*
X125500Y164000D03*
X135500D03*
X125500Y174000D03*
X135500D03*
X155300Y164050D03*
Y174050D03*
X145300Y184050D03*
X155300D03*
X125300D03*
X135300D03*
X145300Y214050D03*
X155300D03*
X145300Y224050D03*
X125300D03*
X135300D03*
X155300D03*
X145300Y194050D03*
X155300D03*
X125300D03*
X135300D03*
X145300Y204050D03*
X155300D03*
X145300Y234050D03*
X135300D03*
X125300D03*
X145300Y244050D03*
X135300D03*
X125300D03*
X155300D03*
Y234050D03*
Y254050D03*
X145300D03*
X135300D03*
X125300D03*
X195300Y-12950D03*
X165300D03*
X175300D03*
X185300D03*
X165300Y-5950D03*
X175300D03*
X185300D03*
X195300D03*
Y34050D03*
X185300D03*
X175300D03*
X165300D03*
X195300Y24050D03*
X185300D03*
X175300D03*
X165300D03*
X195300Y14050D03*
X185300D03*
X175300D03*
X165300D03*
X195300Y4050D03*
X185300D03*
X175300D03*
X165300D03*
X195500Y74000D03*
X185500D03*
X175500D03*
X165500D03*
X165300Y64050D03*
X175300D03*
X185300D03*
X195300D03*
Y54050D03*
X185300D03*
X175300D03*
X165300D03*
X195300Y44050D03*
X185300D03*
X175300D03*
X165300D03*
X166000Y114000D03*
Y103500D03*
X195700Y92450D03*
X185700D03*
X175700D03*
X165700D03*
X195500Y84000D03*
X165500D03*
X175500D03*
X185500D03*
X175300Y114050D03*
X185300D03*
X175300Y103550D03*
X185300D03*
X195300Y114050D03*
Y103550D03*
X165500Y154000D03*
X165300Y164050D03*
Y174050D03*
X175300Y154050D03*
X185300D03*
X175300Y174050D03*
Y164050D03*
X185300Y174050D03*
Y164050D03*
X165300Y184050D03*
X175300D03*
X185300D03*
X195300D03*
Y174050D03*
Y164050D03*
Y154050D03*
X165300Y214050D03*
X175300D03*
X165300Y224050D03*
X175300D03*
X195300D03*
Y214050D03*
X185300D03*
Y224050D03*
X165300Y194050D03*
X175300D03*
X185300D03*
X165300Y204050D03*
X175300D03*
X185300D03*
X195300D03*
Y194050D03*
X165300Y244050D03*
X195300Y234050D03*
X185300D03*
X175300D03*
X165300D03*
X175300Y244050D03*
X185300D03*
X195300D03*
Y254050D03*
X185300D03*
X175300D03*
X165300D03*
X215300Y-12950D03*
X205300D03*
X225300D03*
X205300Y-5950D03*
X225300D03*
X205300Y4050D03*
Y14050D03*
Y24050D03*
Y34050D03*
X215300D03*
Y24050D03*
Y14050D03*
Y4050D03*
X225300D03*
Y14050D03*
Y24050D03*
Y34050D03*
X205500Y74000D03*
X215500D03*
X225500D03*
X205300Y44050D03*
Y54050D03*
Y64050D03*
X215300D03*
Y54050D03*
Y44050D03*
X225300D03*
Y54050D03*
Y64050D03*
X225700Y92450D03*
X215700D03*
X205700D03*
X205500Y84000D03*
X215500D03*
X225500D03*
X205300Y103550D03*
Y114050D03*
X215300D03*
Y103550D03*
X225300D03*
Y114050D03*
Y154050D03*
X215300D03*
X205300D03*
Y164050D03*
Y174050D03*
X215300D03*
Y164050D03*
X225300D03*
Y174050D03*
Y184050D03*
X215300D03*
X205300D03*
Y194050D03*
X215300D03*
X225300D03*
Y204050D03*
X215300D03*
X205300D03*
Y214050D03*
Y224050D03*
X215300D03*
Y214050D03*
X225300D03*
Y224050D03*
Y234050D03*
X215300D03*
X205300D03*
Y244050D03*
X215300D03*
X225300D03*
Y254050D03*
X215300D03*
X205300D03*
X252800Y14050D03*
Y24050D03*
Y34050D03*
X235300D03*
Y24050D03*
Y14050D03*
X245300D03*
Y24050D03*
Y34050D03*
X245500Y74000D03*
X235500D03*
X252800Y64050D03*
Y74050D03*
Y44050D03*
Y54050D03*
X235300Y64050D03*
Y54050D03*
Y44050D03*
X245300D03*
Y54050D03*
Y64050D03*
X245700Y92450D03*
X235700D03*
X245500Y84000D03*
X235500D03*
X252800Y114050D03*
Y84550D03*
X253000Y92500D03*
Y103500D03*
X235300Y103550D03*
X245300D03*
X252800Y124050D03*
Y134050D03*
Y144050D03*
X245500Y164000D03*
Y174000D03*
X235500Y164000D03*
Y174000D03*
X252800Y164050D03*
Y174050D03*
Y184050D03*
Y154050D03*
X235300Y184050D03*
Y154050D03*
X245300D03*
Y184050D03*
X252800Y214050D03*
Y194050D03*
Y204050D03*
X235300Y194050D03*
X245300D03*
Y204050D03*
X235300D03*
Y214050D03*
X245300D03*
Y224050D03*
X235300D03*
G54D12*
X0Y110000D03*
Y130050D03*
X240590Y110000D03*
X240500Y130050D03*
G54D13*
X114500Y150500D03*
G54D14*
X104500D03*
X94500D03*
G54D15*
G01X355036Y-111851D02*
X340756D01*
G01X342516Y-130251D02*
Y-131901D01*
G01Y-128591D02*
Y-130251D01*
G01X340586D02*
X342516D01*
G01Y-128591D02*
X340246D01*
G01X339686Y-131901D02*
X340586Y-130251D01*
G01X340306D02*
X340586D01*
G01X340136Y-130230D02*
X340306Y-130251D01*
G01X339976Y-130180D02*
X340136Y-130230D01*
G01X339826Y-130110D02*
X339976Y-130180D01*
G01X339696Y-130001D02*
X339826Y-130110D01*
G01X339586Y-129871D02*
X339696Y-130001D01*
G01X339516Y-129721D02*
X339586Y-129871D01*
G01X339466Y-129560D02*
X339516Y-129721D01*
G01X339576Y-128951D02*
X339506Y-129080D01*
G01X339676Y-128821D02*
X339576Y-128951D01*
G01X339806Y-128721D02*
X339676Y-128821D01*
G01X339936Y-128651D02*
X339806Y-128721D01*
G01X340086Y-128610D02*
X339936Y-128651D01*
G01X340246Y-128591D02*
X340086Y-128610D01*
G01X339446Y-129391D02*
X339466Y-129560D01*
G01Y-129230D02*
X339446Y-129391D01*
G01X339506Y-129080D02*
X339466Y-129230D01*
G01X353486Y-111151D02*
X342336D01*
G01X339976Y-112541D02*
X343936D01*
G01X343026Y-112771D02*
X342806Y-112971D01*
G01X343506Y-112601D02*
X343026Y-112771D01*
G01X342476Y-111110D02*
X343636Y-110941D01*
G01X342516Y-113791D02*
Y-124101D01*
G01Y-116010D02*
X339446D01*
G01Y-115321D02*
X342516D01*
G01Y-114621D02*
X339446D01*
G01X339466Y-113930D02*
X342516D01*
G01X342546Y-113491D02*
X342516Y-113791D01*
G01X342636Y-113230D02*
X339606D01*
G01X342646Y-113210D02*
X342546Y-113491D01*
G01X342806Y-112971D02*
X342646Y-113210D01*
G01X341696Y-111330D02*
X342476Y-111110D01*
G01X340966Y-111691D02*
X341696Y-111330D01*
G01X340316Y-112171D02*
X340966Y-111691D01*
G01X339936Y-112580D02*
X340316Y-112171D01*
G01X339656Y-113060D02*
X339936Y-112580D01*
G01X339496Y-113591D02*
X339656Y-113060D01*
G01X339446Y-124101D02*
Y-114141D01*
G01D02*
X339496Y-113591D01*
G01X342516Y-124101D02*
X339446D01*
G01Y-123651D02*
X342516D01*
G01Y-122950D02*
X339446D01*
G01Y-122260D02*
X342516D01*
G01Y-121560D02*
X339446D01*
G01Y-120871D02*
X342516D01*
G01Y-120171D02*
X339446D01*
G01Y-119480D02*
X342516D01*
G01Y-118791D02*
X339446D01*
G01Y-118091D02*
X342516D01*
G01Y-117401D02*
X339446D01*
G01Y-116700D02*
X342516D01*
G01X387066Y-111851D02*
X377186D01*
G01X378756Y-111151D02*
X385706D01*
G01X379846Y-110910D02*
X380706Y-110880D01*
G01X376346Y-112541D02*
X380126D01*
G01X379836Y-112680D02*
X379406Y-113001D01*
G01X380316Y-112451D02*
X379836Y-112680D01*
G01X378996Y-111071D02*
X379846Y-110910D01*
G01X380746Y-124101D02*
X379836Y-124071D01*
G01D02*
X378936Y-123930D01*
G01X387546Y-122950D02*
X376856D01*
G01X386286Y-123651D02*
X378016D01*
G01X380206Y-122491D02*
X380776Y-122651D01*
G01X379676Y-122230D02*
X380206Y-122491D01*
G01X379206Y-121860D02*
X379676Y-122230D01*
G01X378966Y-131730D02*
X378756Y-131821D01*
G01X379146Y-131600D02*
X378966Y-131730D01*
G01X379306Y-131441D02*
X379146Y-131600D01*
G01X379436Y-131250D02*
X379306Y-131441D01*
G01X379526Y-131050D02*
X379436Y-131250D01*
G01X379586Y-130830D02*
X379526Y-131050D01*
G01X379606Y-130610D02*
X379586Y-130830D01*
G01X379606Y-129860D02*
Y-130610D01*
G01X379586Y-129641D02*
X379606Y-129860D01*
G01X379526Y-129430D02*
X379586Y-129641D01*
G01X379436Y-129221D02*
X379526Y-129430D01*
G01X379306Y-129041D02*
X379436Y-129221D01*
G01X379156Y-128891D02*
X379306Y-129041D01*
G01X378966Y-128760D02*
X379156Y-128891D01*
G01X378766Y-128671D02*
X378966Y-128760D01*
G01X378556Y-128610D02*
X378766Y-128671D01*
G01X378316Y-131901D02*
X377616D01*
G01X378536Y-131880D02*
X378316Y-131901D01*
G01X378756Y-131821D02*
X378536Y-131880D01*
G01X378336Y-128591D02*
X378556Y-128610D01*
G01X377596Y-128591D02*
X378336D01*
G01X377016Y-131760D02*
X376836Y-131650D01*
G01X377206Y-131841D02*
X377016Y-131760D01*
G01X377406Y-131880D02*
X377206Y-131841D01*
G01X377616Y-131901D02*
X377406Y-131880D01*
G01X377366Y-128610D02*
X377596Y-128591D01*
G01X377156Y-128671D02*
X377366Y-128610D01*
G01X376946Y-128760D02*
X377156Y-128671D01*
G01X376356Y-130991D02*
X376316Y-130791D01*
G01X376436Y-131180D02*
X376356Y-130991D01*
G01X376546Y-131360D02*
X376436Y-131180D01*
G01X376686Y-131510D02*
X376546Y-131360D01*
G01X376836Y-131650D02*
X376686Y-131510D01*
G01X376316Y-130791D02*
X376296Y-130580D01*
G01D02*
Y-129891D01*
G01X376466Y-129241D02*
X376596Y-129051D01*
G01X376376Y-129451D02*
X376466Y-129241D01*
G01X376316Y-129660D02*
X376376Y-129451D01*
G01X376296Y-129891D02*
X376316Y-129660D01*
G01X376756Y-128891D02*
X376946Y-128760D01*
G01X376596Y-129051D02*
X376756Y-128891D01*
G01X373936Y-128591D02*
Y-131901D01*
G01X373456Y-128591D02*
X373936D01*
G01X371176Y-131901D02*
X373456Y-128591D01*
G01X370626Y-131901D02*
X371176D01*
G01X370626Y-128591D02*
Y-131901D01*
G01X368266D02*
Y-128591D01*
G01X366506Y-131901D02*
X368266D01*
G01Y-128591D02*
X366486D01*
G01X366306Y-131880D02*
X366506Y-131901D01*
G01X366106Y-131841D02*
X366306Y-131880D01*
G01X365916Y-131760D02*
X366106Y-131841D01*
G01X365736Y-131650D02*
X365916Y-131760D01*
G01X366046Y-128671D02*
X365836Y-128760D01*
G01X366266Y-128610D02*
X366046Y-128671D01*
G01X366486Y-128591D02*
X366266Y-128610D01*
G01X365576Y-131521D02*
X365736Y-131650D01*
G01X365446Y-131360D02*
X365576Y-131521D01*
G01X365336Y-131180D02*
X365446Y-131360D01*
G01X365256Y-130991D02*
X365336Y-131180D01*
G01X365216Y-130791D02*
X365256Y-130991D01*
G01X365196Y-130591D02*
X365216Y-130791D01*
G01X365196Y-129880D02*
Y-130591D01*
G01X365216Y-129660D02*
X365196Y-129880D01*
G01X365276Y-129441D02*
X365216Y-129660D01*
G01X365366Y-129230D02*
X365276Y-129441D01*
G01X365496Y-129051D02*
X365366Y-129230D01*
G01X365656Y-128891D02*
X365496Y-129051D01*
G01X365836Y-128760D02*
X365656Y-128891D01*
G01X362816Y-130880D02*
X362836Y-130660D01*
G01X362766Y-131080D02*
X362816Y-130880D01*
G01X362666Y-131280D02*
X362766Y-131080D01*
G01X362546Y-131460D02*
X362666Y-131280D01*
G01X362396Y-131610D02*
X362546Y-131460D01*
G01X362826Y-130660D02*
Y-128591D01*
G01X362216Y-131730D02*
X362396Y-131610D01*
G01X362016Y-131830D02*
X362216Y-131730D01*
G01X361816Y-131880D02*
X362016Y-131830D01*
G01X361596Y-131901D02*
X361816Y-131880D01*
G01X361076Y-131901D02*
X361596D01*
G01X360846Y-131880D02*
X361076Y-131901D01*
G01X360626Y-131821D02*
X360846Y-131880D01*
G01X360416Y-131721D02*
X360626Y-131821D01*
G01X360236Y-131591D02*
X360416Y-131721D01*
G01X360076Y-131430D02*
X360236Y-131591D01*
G01X359946Y-131241D02*
X360076Y-131430D01*
G01X359846Y-131041D02*
X359946Y-131241D01*
G01X359786Y-130821D02*
X359846Y-131041D01*
G01X359766Y-130591D02*
X359786Y-130821D01*
G01X359756Y-128591D02*
Y-130591D01*
G01X357616Y-131021D02*
X357636Y-130830D01*
G01X357576Y-131200D02*
X357616Y-131021D01*
G01X357496Y-131360D02*
X357576Y-131200D01*
G01X357386Y-131521D02*
X357496Y-131360D01*
G01X357256Y-131650D02*
X357386Y-131521D01*
G01X357636Y-130830D02*
Y-129630D01*
G01X357616Y-129451D02*
X357576Y-129271D01*
G01X357636Y-129630D02*
X357616Y-129451D01*
G01X357396Y-128960D02*
X357266Y-128830D01*
G01X357496Y-129110D02*
X357396Y-128960D01*
G01X357576Y-129271D02*
X357496Y-129110D01*
G01X357106Y-131760D02*
X357256Y-131650D01*
G01X356936Y-131841D02*
X357106Y-131760D01*
G01X356756Y-131880D02*
X356936Y-131841D01*
G01X356566Y-131901D02*
X356756Y-131880D01*
G01X356776Y-128610D02*
X356596Y-128591D01*
G01X356956Y-128651D02*
X356776Y-128610D01*
G01X357116Y-128730D02*
X356956Y-128651D01*
G01X357266Y-128830D02*
X357116Y-128730D01*
G01X354796Y-131901D02*
X356566D01*
G01X356596Y-128591D02*
X354796D01*
G01X379156Y-113230D02*
X375876D01*
G01X378836Y-113671D02*
X378696Y-114091D01*
G01X379076Y-113300D02*
X378836Y-113671D01*
G01X379406Y-113001D02*
X379076Y-113300D01*
G01X378186Y-111351D02*
X378996Y-111071D01*
G01X378656Y-114541D02*
Y-120210D01*
G01Y-116010D02*
X375586D01*
G01Y-115321D02*
X378656D01*
G01X375636Y-113930D02*
X378746D01*
G01X378656Y-114621D02*
X375586D01*
G01X378696Y-114091D02*
X378656Y-114541D01*
G01X377556Y-111621D02*
X378186Y-111351D01*
G01X376976Y-111971D02*
X377556Y-111621D01*
G01X376456Y-112410D02*
X376976Y-111971D01*
G01X376076Y-112860D02*
X376456Y-112410D01*
G01X375586Y-120680D02*
Y-114541D01*
G01X375636Y-113951D02*
X375796Y-113380D01*
G01X375586Y-114541D02*
X375636Y-113951D01*
G01X375796Y-113380D02*
X376076Y-112860D01*
G01X372276Y-111351D02*
Y-124101D01*
G01Y-116010D02*
X368916D01*
G01X368976Y-115321D02*
X372276D01*
G01Y-114621D02*
X368976D01*
G01Y-113930D02*
X372276D01*
G01Y-113230D02*
X368976D01*
G01Y-112541D02*
X372276D01*
G01X368976Y-111351D02*
X372276D01*
G01Y-111851D02*
X368976D01*
G01Y-115741D02*
Y-111351D01*
G01X368946Y-115951D02*
X368976Y-115741D01*
G01X368866Y-116141D02*
X368946Y-115951D01*
G01X368736Y-116310D02*
X368866Y-116141D01*
G01X368566Y-116441D02*
X368736Y-116310D01*
G01X362116Y-116321D02*
X362276Y-116441D01*
G01X361996Y-116151D02*
X362116Y-116321D01*
G01X361936Y-116010D02*
X358576D01*
G01X361916Y-115960D02*
X361996Y-116151D01*
G01X361886Y-115760D02*
X361916Y-115960D01*
G01X361886Y-111351D02*
Y-115760D01*
G01X358576Y-115321D02*
X361886D01*
G01X358576Y-113930D02*
X361886D01*
G01Y-114621D02*
X358576D01*
G01X361886Y-113230D02*
X358576D01*
G01Y-112541D02*
X361886D01*
G01Y-111851D02*
X358576D01*
G01Y-111351D02*
X361886D01*
G01X358576Y-124101D02*
Y-111351D01*
G01X355036D02*
Y-124101D01*
G01Y-116010D02*
X351966D01*
G01Y-115321D02*
X355036D01*
G01X351966Y-113930D02*
X355036D01*
G01Y-114621D02*
X351966D01*
G01X355036Y-113230D02*
X351946D01*
G01X351216Y-112541D02*
X355036D01*
G01X352096Y-110971D02*
X355036Y-111351D01*
G01X376146Y-122260D02*
X379736D01*
G01X378936Y-123930D02*
X378066Y-123671D01*
G01X379036Y-121560D02*
X375756D01*
G01X378906Y-121350D02*
X379206Y-121860D01*
G01X378716Y-120791D02*
X378906Y-121350D01*
G01X378066Y-123671D02*
X377486Y-123401D01*
G01X375606Y-120871D02*
X378746D01*
G01X378656Y-120210D02*
X378716Y-120791D01*
G01X378656Y-120171D02*
X375586D01*
G01Y-119480D02*
X378656D01*
G01X375586Y-118091D02*
X378656D01*
G01Y-118791D02*
X375586D01*
G01X378656Y-117401D02*
X375586D01*
G01Y-116700D02*
X378656D01*
G01X377486Y-123401D02*
X376956Y-123051D01*
G01X376496Y-122610D02*
X376106Y-122221D01*
G01X376956Y-123051D02*
X376496Y-122610D01*
G01X376106Y-122221D02*
X375816Y-121750D01*
G01D02*
X375636Y-121230D01*
G01D02*
X375586Y-120680D01*
G01X372276Y-124101D02*
X368976D01*
G01X361886D02*
X358576D01*
G01X355036D02*
X351966D01*
G01X372276Y-123651D02*
X368976D01*
G01Y-122950D02*
X372276D01*
G01Y-122260D02*
X368976D01*
G01Y-121560D02*
X372276D01*
G01Y-120871D02*
X368976D01*
G01Y-120171D02*
X372276D01*
G01Y-119480D02*
X368976D01*
G01X372276Y-118091D02*
X358576D01*
G01X368946Y-118791D02*
X372276D01*
G01X358576Y-117401D02*
X372276D01*
G01Y-116700D02*
X358576D01*
G01X368976Y-124101D02*
Y-118980D01*
G01D02*
X368946Y-118780D01*
G01X368746Y-118430D02*
X368586Y-118301D01*
G01X368866Y-118591D02*
X368746Y-118430D01*
G01X368946Y-118780D02*
X368866Y-118591D01*
G01X368586Y-118301D02*
X368396Y-118221D01*
G01X368376Y-116521D02*
X368566Y-116441D01*
G01X368196Y-118201D02*
X362716D01*
G01X368396Y-118221D02*
X368196Y-118201D01*
G01X368166Y-116541D02*
X368376Y-116521D01*
G01X362666Y-116541D02*
X368166D01*
G01X362716Y-118201D02*
X362506Y-118230D01*
G01X362466Y-116521D02*
X362666Y-116541D01*
G01X361886Y-119030D02*
Y-124101D01*
G01Y-123651D02*
X358576D01*
G01Y-122950D02*
X361886D01*
G01X358576Y-121560D02*
X361886D01*
G01Y-122260D02*
X358576D01*
G01X361886Y-120871D02*
X358576D01*
G01Y-120171D02*
X361886D01*
G01Y-119480D02*
X358576D01*
G01X361916Y-118810D02*
X361886Y-119030D01*
G01X358576Y-118791D02*
X361926D01*
G01X361996Y-118610D02*
X361916Y-118810D01*
G01X362126Y-118441D02*
X361996Y-118610D01*
G01X362296Y-118310D02*
X362126Y-118441D01*
G01X362506Y-118230D02*
X362296Y-118310D01*
G01X362276Y-116441D02*
X362466Y-116521D01*
G01X351966Y-123651D02*
X355036D01*
G01Y-122950D02*
X351966D01*
G01X355036Y-121560D02*
X351966D01*
G01Y-122260D02*
X355036D01*
G01X351966Y-120871D02*
X355036D01*
G01Y-120171D02*
X351966D01*
G01Y-119480D02*
X355036D01*
G01X351966Y-118091D02*
X355036D01*
G01Y-118791D02*
X351966D01*
G01X355036Y-117401D02*
X351966D01*
G01Y-116700D02*
X355036D01*
G01X347226Y-131760D02*
X347036Y-131841D01*
G01X347406Y-131650D02*
X347226Y-131760D01*
G01X347566Y-131521D02*
X347406Y-131650D01*
G01X347696Y-131360D02*
X347566Y-131521D01*
G01X347496Y-128891D02*
X347656Y-129051D01*
G01X347306Y-128760D02*
X347496Y-128891D01*
G01X347106Y-128671D02*
X347306Y-128760D01*
G01X352906Y-128591D02*
X351496D01*
G01D02*
Y-131901D01*
G01X350076Y-128591D02*
X351496D01*
G01X347806Y-131180D02*
X347696Y-131360D01*
G01X347886Y-130991D02*
X347806Y-131180D01*
G01X347926Y-130791D02*
X347886Y-130991D01*
G01X347946Y-130591D02*
X347926Y-130791D01*
G01X347946Y-129880D02*
Y-130591D01*
G01X347936Y-129660D02*
X347956Y-129880D01*
G01X347876Y-129441D02*
X347936Y-129660D01*
G01X347786Y-129230D02*
X347876Y-129441D01*
G01X347656Y-129051D02*
X347786Y-129230D01*
G01X346636Y-131901D02*
X345946D01*
G01X346836Y-131880D02*
X346636Y-131901D01*
G01X347036Y-131841D02*
X346836Y-131880D01*
G01X346886Y-128610D02*
X347106Y-128671D01*
G01X346666Y-128591D02*
X346886Y-128610D01*
G01X345926Y-128591D02*
X346666D01*
G01X345506Y-131821D02*
X345296Y-131730D01*
G01X345716Y-131880D02*
X345506Y-131821D01*
G01X345946Y-131901D02*
X345716Y-131880D01*
G01X345706Y-128610D02*
X345926Y-128591D01*
G01X345486Y-128671D02*
X345706Y-128610D01*
G01X345286Y-128760D02*
X345486Y-128671D01*
G01X344726Y-131041D02*
X344666Y-130830D01*
G01X344816Y-131250D02*
X344726Y-131041D01*
G01X344946Y-131441D02*
X344816Y-131250D01*
G01X345106Y-131600D02*
X344946Y-131441D01*
G01X345296Y-131730D02*
X345106Y-131600D01*
G01Y-128891D02*
X345286Y-128760D01*
G01X344946Y-129051D02*
X345106Y-128891D01*
G01X344816Y-129230D02*
X344946Y-129051D01*
G01X344726Y-129430D02*
X344816Y-129230D01*
G01X344666Y-129651D02*
X344726Y-129430D01*
G01X344666Y-130830D02*
X344646Y-130601D01*
G01D02*
Y-129871D01*
G01D02*
X344666Y-129651D01*
G01X351966Y-124101D02*
Y-113360D01*
G01X351856Y-112941D02*
X351726Y-112771D01*
G01X351936Y-113141D02*
X351856Y-112941D01*
G01X351966Y-113360D02*
X351936Y-113141D01*
G01X351546Y-112641D02*
X351356Y-112560D01*
G01X351726Y-112771D02*
X351546Y-112641D01*
G01X349126Y-110880D02*
X352096Y-110971D01*
G01X351136Y-112530D02*
X349696D01*
G01X351356Y-112560D02*
X351136Y-112530D01*
G01X344856Y-112541D02*
X349616D01*
G01X349006Y-112930D02*
X348916Y-113121D01*
G01X349126Y-112760D02*
X349006Y-112930D01*
G01X349296Y-112641D02*
X349126Y-112760D01*
G01X349486Y-112560D02*
X349296Y-112641D01*
G01X349696Y-112530D02*
X349486Y-112560D01*
G01X344796Y-110880D02*
X349126D01*
G01X348896Y-113330D02*
Y-124101D01*
G01Y-116010D02*
X345586D01*
G01Y-115321D02*
X348896D01*
G01Y-114621D02*
X345586D01*
G01Y-113930D02*
X348896D01*
G01X348906Y-113230D02*
X345576D01*
G01X348916Y-113121D02*
X348896Y-113330D01*
G01X345586Y-124101D02*
Y-113341D01*
G01X345556Y-113130D02*
X345476Y-112930D01*
G01X345586Y-113341D02*
X345556Y-113130D01*
G01X345476Y-112930D02*
X345346Y-112771D01*
G01X344776Y-112530D02*
X344016D01*
G01X344986Y-112560D02*
X344776Y-112530D01*
G01X345176Y-112641D02*
X344986Y-112560D01*
G01X345346Y-112771D02*
X345176Y-112641D01*
G01X343636Y-110941D02*
X344796Y-110880D01*
G01X344016Y-112530D02*
X343506Y-112601D01*
G01X348896Y-124101D02*
X345586D01*
G01Y-123651D02*
X348896D01*
G01Y-122950D02*
X345586D01*
G01Y-122260D02*
X348896D01*
G01Y-121560D02*
X345586D01*
G01Y-120871D02*
X348896D01*
G01Y-120171D02*
X345586D01*
G01Y-119480D02*
X348896D01*
G01Y-118791D02*
X345586D01*
G01Y-118091D02*
X348896D01*
G01Y-117401D02*
X345586D01*
G01Y-116700D02*
X348896D01*
G01X397906Y-131901D02*
X398086Y-131880D01*
G01X396136Y-131901D02*
X397906D01*
G01X397946Y-128591D02*
X398146Y-128610D01*
G01X396136Y-128591D02*
X397946D01*
G01X404336Y-129691D02*
X404256Y-129841D01*
G01X404386Y-129180D02*
X404406Y-129351D01*
G01X404386Y-129521D02*
X404336Y-129691D01*
G01X404406Y-129351D02*
X404386Y-129521D01*
G01X404326Y-129021D02*
X404386Y-129180D01*
G01X404235Y-128880D02*
X404326Y-129021D01*
G01X401956Y-131901D02*
X404406D01*
G01X403686Y-130221D02*
X403516Y-130241D01*
G01X403856Y-130171D02*
X403686Y-130221D01*
G01X404006Y-130091D02*
X403856Y-130171D01*
G01X404146Y-129980D02*
X404006Y-130091D01*
G01X404256Y-129841D02*
X404146Y-129980D01*
G01X404116Y-128760D02*
X404235Y-128880D01*
G01X403976Y-128671D02*
X404116Y-128760D01*
G01X403816Y-128610D02*
X403976Y-128671D01*
G01X403646Y-128591D02*
X403816Y-128610D01*
G01X401096Y-128591D02*
X403646D01*
G01X403516Y-130251D02*
X401896D01*
G01X401786Y-131880D02*
X401956Y-131901D01*
G01X401896Y-130241D02*
X401736Y-130260D01*
G01X401626Y-131830D02*
X401786Y-131880D01*
G01X401476Y-131760D02*
X401626Y-131830D01*
G01X401346Y-131650D02*
X401476Y-131760D01*
G01X401236Y-131521D02*
X401346Y-131650D01*
G01X401166Y-131371D02*
X401236Y-131521D01*
G01X401116Y-131210D02*
X401166Y-131371D01*
G01X401096Y-131041D02*
X401116Y-131210D01*
G01Y-130880D02*
X401096Y-131041D01*
G01X401156Y-130730D02*
X401116Y-130880D01*
G01X401226Y-130601D02*
X401156Y-130730D01*
G01X401326Y-130471D02*
X401226Y-130601D01*
G01X401456Y-130371D02*
X401326Y-130471D01*
G01X401586Y-130301D02*
X401456Y-130371D01*
G01X401736Y-130260D02*
X401586Y-130301D01*
G01X398946Y-131021D02*
X398966Y-130841D01*
G01X398906Y-131200D02*
X398946Y-131021D01*
G01X398826Y-131371D02*
X398906Y-131200D01*
G01X398716Y-131521D02*
X398826Y-131371D01*
G01X398586Y-131650D02*
X398716Y-131521D01*
G01X398436Y-131760D02*
X398586Y-131650D01*
G01X398266Y-131841D02*
X398436Y-131760D01*
G01X398976Y-129610D02*
Y-130251D01*
G01D02*
X396136D01*
G01X398976Y-130841D02*
Y-130251D01*
G01X398946Y-129410D02*
X398966Y-129610D01*
G01X398886Y-129221D02*
X398946Y-129410D01*
G01X398796Y-129041D02*
X398886Y-129221D01*
G01X398666Y-128891D02*
X398796Y-129041D01*
G01X398516Y-128760D02*
X398666Y-128891D01*
G01X398336Y-128671D02*
X398516Y-128760D01*
G01X398086Y-131880D02*
X398266Y-131841D01*
G01X398146Y-128610D02*
X398336Y-128671D01*
G01X394526Y-124101D02*
X398976Y-118910D01*
G01X393776Y-128591D02*
Y-131901D01*
G01X393226Y-128591D02*
X393776D01*
G01X391686Y-131901D02*
X393226Y-128591D01*
G01X390276D02*
X391686Y-131901D01*
G01X389756Y-128591D02*
X390276D01*
G01X389756Y-131901D02*
Y-128591D01*
G01X387166D02*
Y-131901D01*
G01X384546Y-131001D02*
X384566Y-130810D01*
G01X384496Y-131180D02*
X384546Y-131001D01*
G01X384416Y-131350D02*
X384496Y-131180D01*
G01X384306Y-131510D02*
X384416Y-131350D01*
G01X384176Y-131641D02*
X384306Y-131510D01*
G01X384026Y-131751D02*
X384176Y-131641D01*
G01X383846Y-131830D02*
X384026Y-131751D01*
G01X384566Y-130810D02*
Y-129680D01*
G01X384386Y-129071D02*
X384246Y-128910D01*
G01X384486Y-129260D02*
X384386Y-129071D01*
G01X384546Y-129471D02*
X384486Y-129260D01*
G01X384566Y-129680D02*
X384546Y-129471D01*
G01X384086Y-128771D02*
X383896Y-128671D01*
G01X384246Y-128910D02*
X384086Y-128771D01*
G01X383896Y-128671D02*
X383686Y-128610D01*
G01X383666Y-131880D02*
X383846Y-131830D01*
G01X383476Y-131901D02*
X383666Y-131880D01*
G01X381726Y-131901D02*
X383476D01*
G01Y-128591D02*
X381726D01*
G01X383686Y-128610D02*
X383476Y-128591D01*
G01X395316Y-119221D02*
X390866Y-124101D01*
G01X404406Y-111351D02*
X402166Y-111021D01*
G01X404406Y-124101D02*
Y-111351D01*
G01Y-116010D02*
X401096D01*
G01Y-115321D02*
X404406D01*
G01X401096Y-113930D02*
X404406D01*
G01Y-114621D02*
X401096D01*
G01X404406Y-113230D02*
X401096D01*
G01X400886Y-112541D02*
X404406D01*
G01Y-111851D02*
X392786D01*
G01X403066Y-111151D02*
X394496D01*
G01X402166Y-111021D02*
X399916Y-110880D01*
G01X401096Y-113071D02*
Y-124101D01*
G01X401076Y-112871D02*
X401096Y-113071D01*
G01X400996Y-112680D02*
X401076Y-112871D01*
G01X400876Y-112521D02*
X400996Y-112680D01*
G01X400706Y-112401D02*
X400876Y-112521D01*
G01X400526Y-112321D02*
X400706Y-112401D01*
G01X400326Y-112291D02*
X400526Y-112321D01*
G01X397476Y-112291D02*
X400326D01*
G01X399916Y-110880D02*
X396886D01*
G01X396786Y-112321D02*
X397476Y-112291D01*
G01X396106Y-112480D02*
X396786Y-112321D01*
G01X396886Y-110880D02*
X395216Y-111001D01*
G01X392116Y-112541D02*
X395976D01*
G01X395466Y-112771D02*
X396106Y-112480D01*
G01X395076Y-116660D02*
X394886Y-116260D01*
G01X395056Y-113230D02*
X391746D01*
G01X395156Y-113080D02*
X395466Y-112771D01*
G01X394926Y-113451D02*
X395156Y-113080D01*
G01X395216Y-111001D02*
X393576Y-111351D01*
G01X394816Y-116010D02*
X391656D01*
G01X394766Y-115841D02*
X394716Y-115401D01*
G01X394886Y-116260D02*
X394766Y-115841D01*
G01X391646Y-115321D02*
X394716D01*
G01Y-115401D02*
Y-114300D01*
G01Y-114621D02*
X391646D01*
G01Y-113930D02*
X394766D01*
G01X394776Y-113860D02*
X394926Y-113451D01*
G01X394716Y-114300D02*
X394776Y-113860D01*
G01X393576Y-111351D02*
X393026Y-111651D01*
G01X392536Y-112051D02*
X392126Y-112530D01*
G01X393026Y-111651D02*
X392536Y-112051D01*
G01X391646Y-115951D02*
X391686Y-116430D01*
G01X391646Y-113951D02*
Y-115951D01*
G01X391666Y-113571D02*
X391646Y-113951D01*
G01X391756Y-113191D02*
X391666Y-113571D01*
G01X391906Y-112841D02*
X391756Y-113191D01*
G01X392126Y-112530D02*
X391906Y-112841D01*
G01X388576Y-114260D02*
Y-117021D01*
G01Y-116010D02*
X385506D01*
G01Y-115321D02*
X388576D01*
G01Y-114621D02*
X385506D01*
G01X385396Y-113930D02*
X388546D01*
G01X388536Y-113780D02*
X388576Y-114260D01*
G01X388356Y-113230D02*
X384976D01*
G01X388176Y-112900D02*
X388406Y-113321D01*
G01D02*
X388536Y-113780D01*
G01X387886Y-112521D02*
X388176Y-112900D01*
G01X384046Y-112541D02*
X387896D01*
G01X387516Y-112210D02*
X387886Y-112521D01*
G01X386886Y-111700D02*
X387516Y-112210D01*
G01X386176Y-111310D02*
X386886Y-111700D01*
G01X385416Y-111051D02*
X386176Y-111310D01*
G01X385506Y-117021D02*
Y-114580D01*
G01X385346Y-113780D02*
X385146Y-113430D01*
G01X385466Y-114171D02*
X385346Y-113780D01*
G01X385506Y-114580D02*
X385466Y-114171D01*
G01X385146Y-113430D02*
X384876Y-113121D01*
G01D02*
X384446Y-112751D01*
G01X384616Y-110910D02*
X385416Y-111051D01*
G01X383946Y-112480D02*
X383396Y-112330D01*
G01X384446Y-112751D02*
X383946Y-112480D01*
G01X383816Y-110880D02*
X384616Y-110910D01*
G01X383396Y-112330D02*
X382826Y-112291D01*
G01X380706Y-110880D02*
X383816D01*
G01X382826Y-112291D02*
X381376D01*
G01X380836Y-112321D02*
X380316Y-112451D01*
G01X381376Y-112291D02*
X380836Y-112321D01*
G01X401096Y-124101D02*
X404406D01*
G01X397886Y-120171D02*
X394446D01*
G01X401096Y-123651D02*
X404406D01*
G01Y-122950D02*
X401096D01*
G01X404406Y-121560D02*
X401096D01*
G01Y-122260D02*
X404406D01*
G01X401096Y-120871D02*
X404406D01*
G01Y-120171D02*
X401096D01*
G01Y-119480D02*
X404406D01*
G01X401096Y-118091D02*
X404406D01*
G01Y-118791D02*
X401096D01*
G01X404406Y-117401D02*
X401096D01*
G01Y-116700D02*
X404406D01*
G01X395076Y-119480D02*
X398486D01*
G01X398976Y-118791D02*
X395316D01*
G01X392836Y-118091D02*
X398976D01*
G01Y-118910D02*
Y-117491D01*
G01D02*
X397196D01*
G01X390866Y-124101D02*
X394526D01*
G01X385546Y-123871D02*
X384526Y-124041D01*
G01D02*
X383496Y-124101D01*
G01D02*
X380746D01*
G01X393806Y-120871D02*
X397296D01*
G01X397196Y-117491D02*
X396616Y-117451D01*
G01X392546Y-122260D02*
X396106D01*
G01X396696Y-121560D02*
X393176D01*
G01X396426Y-117401D02*
X392086D01*
G01X396056Y-117301D02*
X395536Y-117030D01*
G01X396616Y-117451D02*
X396056Y-117301D01*
G01X395506Y-122950D02*
X391916D01*
G01X395316Y-118710D02*
Y-119221D01*
G01X394616Y-118701D02*
X395316Y-118710D01*
G01X391756Y-116700D02*
X395126D01*
G01X395536Y-117030D02*
X395076Y-116660D01*
G01X391276Y-123651D02*
X394916D01*
G01X393936Y-118580D02*
X394616Y-118701D01*
G01X393276Y-118341D02*
X393936Y-118580D01*
G01X392676Y-118001D02*
X393276Y-118341D01*
G01X392316Y-117691D02*
X392676Y-118001D01*
G01X392026Y-117310D02*
X392316Y-117691D01*
G01X391806Y-116891D02*
X392026Y-117310D01*
G01X391686Y-116430D02*
X391806Y-116891D01*
G01X388506Y-121560D02*
X385086D01*
G01X388176Y-122341D02*
X387866Y-122710D01*
G01X388406Y-121910D02*
X388176Y-122341D01*
G01X388546Y-121441D02*
X388406Y-121910D01*
G01X385416Y-120871D02*
X388576D01*
G01Y-120950D02*
X388546Y-121441D01*
G01X388576Y-117021D02*
Y-120950D01*
G01Y-120171D02*
X385506D01*
G01Y-119480D02*
X388576D01*
G01Y-118791D02*
X385506D01*
G01Y-118091D02*
X388576D01*
G01Y-117401D02*
X385506D01*
G01Y-116700D02*
X388576D01*
G01X385506Y-117021D02*
X388576D01*
G01D02*
X385506D01*
G01X387476Y-123001D02*
X386876Y-123380D01*
G01X387866Y-122710D02*
X387476Y-123001D01*
G01X384346Y-122260D02*
X388226D01*
G01X386876Y-123380D02*
X386226Y-123671D01*
G01D02*
X385546Y-123871D01*
G01X385066Y-121591D02*
X385326Y-121171D01*
G01X384716Y-121941D02*
X385066Y-121591D01*
G01X384356Y-122260D02*
X384716Y-121941D01*
G01X385476Y-120701D02*
X385506Y-120210D01*
G01X385326Y-121171D02*
X385476Y-120701D01*
G01X385506Y-120210D02*
Y-117021D01*
G01X383466Y-122641D02*
X383936Y-122491D01*
G01D02*
X384356Y-122260D01*
G01X382986Y-122691D02*
X383466Y-122641D01*
G01X381376Y-122691D02*
X382986D01*
G01X380776Y-122651D02*
X381376Y-122691D01*
G54D16*
G01X444668Y-156016D02*
Y-81016D01*
X-100332D01*
Y-156016D01*
X444668D01*
G01X-80832Y-145016D02*
X-78532Y-149516D01*
X-77032Y-147316D01*
G01X-60205Y-144016D02*
Y-140016D01*
X-61332Y-143350D01*
X-62459Y-140016D01*
Y-144016D01*
G01X-63648D02*
X-64732Y-140016D01*
X-65815Y-144016D01*
G01X-65425Y-142616D02*
X-64038D01*
G01X-69085Y-140350D02*
X-68825Y-140150D01*
X-68522Y-140016D01*
X-68175D01*
X-67785Y-140216D01*
X-67482Y-140550D01*
X-67265Y-140950D01*
X-67092Y-141616D01*
X-67048Y-142216D01*
X-67135Y-142816D01*
X-67265Y-143216D01*
X-67525Y-143616D01*
X-67828Y-143883D01*
X-68132Y-144016D01*
X-68435D01*
X-68738Y-143883D01*
X-68998Y-143683D01*
X-69215Y-143416D01*
G01X-70622Y-144016D02*
Y-140016D01*
G01X-72442D02*
Y-144016D01*
G01Y-142016D02*
X-70622D01*
G01X-77508Y-144016D02*
Y-140016D01*
X-79155D01*
G01X-78548Y-141950D02*
X-77508D01*
G01X-81212Y-140016D02*
X-82252D01*
G01X-81732D02*
Y-144016D01*
G01X-81212D02*
X-82252D01*
G01X-84135D02*
Y-140016D01*
X-86128Y-144016D01*
Y-140016D01*
G01X-88012D02*
X-89052D01*
G01X-88532D02*
Y-144016D01*
G01X-88012D02*
X-89052D01*
G01X-91022Y-143483D02*
X-91368Y-143816D01*
X-91759Y-144016D01*
X-92105D01*
X-92452Y-143816D01*
X-92712Y-143483D01*
X-92842Y-143016D01*
X-92755Y-142550D01*
X-92538Y-142150D01*
X-92148Y-141883D01*
X-91628Y-141750D01*
X-91325Y-141483D01*
X-91195Y-141016D01*
X-91282Y-140550D01*
X-91498Y-140216D01*
X-91802Y-140016D01*
X-92105D01*
X-92408Y-140150D01*
X-92668Y-140483D01*
G01X-94422Y-144016D02*
Y-140016D01*
G01X-96242D02*
Y-144016D01*
G01Y-142016D02*
X-94422D01*
G01X-79178Y-137216D02*
X-79438Y-137683D01*
X-79785Y-137950D01*
X-80175Y-138016D01*
X-80522Y-137950D01*
X-80868Y-137616D01*
X-81085Y-137216D01*
X-81128Y-136816D01*
X-81042Y-136350D01*
X-80738Y-136016D01*
X-80435Y-135883D01*
X-80045D01*
G01X-80435D02*
X-80695Y-135683D01*
X-80912Y-135350D01*
X-80998Y-134950D01*
X-80912Y-134550D01*
X-80695Y-134216D01*
X-80305Y-134016D01*
X-79915Y-134083D01*
X-79525Y-134350D01*
G01X-83532Y-134016D02*
X-83185Y-134150D01*
X-82925Y-134483D01*
X-82752Y-134883D01*
X-82622Y-135416D01*
X-82578Y-136016D01*
X-82622Y-136616D01*
X-82752Y-137150D01*
X-82925Y-137550D01*
X-83185Y-137883D01*
X-83532Y-138016D01*
X-83878Y-137883D01*
X-84138Y-137550D01*
X-84312Y-137150D01*
X-84442Y-136616D01*
X-84485Y-136016D01*
X-84442Y-135416D01*
X-84312Y-134883D01*
X-84138Y-134483D01*
X-83878Y-134150D01*
X-83532Y-134016D01*
G01X-67448Y-132016D02*
X-68532Y-128016D01*
X-69615Y-132016D01*
G01X-69225Y-130616D02*
X-67838D01*
G01X-70935Y-132016D02*
Y-128016D01*
X-72928Y-132016D01*
Y-128016D01*
G01X-75592Y-130016D02*
X-76458D01*
Y-131216D01*
X-76198Y-131616D01*
X-75895Y-131883D01*
X-75462Y-132016D01*
X-75028Y-131883D01*
X-74725Y-131616D01*
X-74465Y-131216D01*
X-74292Y-130750D01*
X-74205Y-130216D01*
Y-129750D01*
X-74292Y-129350D01*
X-74465Y-128883D01*
X-74725Y-128483D01*
X-74985Y-128216D01*
X-75332Y-128016D01*
X-75635D01*
X-75982Y-128150D01*
X-76242Y-128416D01*
G01X-77865Y-128016D02*
Y-132016D01*
X-79598D01*
G01X-82999D02*
X-81265D01*
Y-128016D01*
X-82999D01*
G01X-82305Y-129950D02*
X-81265D01*
G01X-36348Y-108516D02*
X-37432Y-104516D01*
X-38515Y-108516D01*
G01X-38125Y-107116D02*
X-36738D01*
G01X-39965Y-108516D02*
Y-104516D01*
X-41049D01*
X-41395Y-104716D01*
X-41612Y-104983D01*
X-41699Y-105516D01*
X-41612Y-106050D01*
X-41352Y-106383D01*
X-41049Y-106583D01*
X-39965D01*
G01X-41049D02*
X-41699Y-108516D01*
G01X-45098D02*
X-43365D01*
Y-104516D01*
X-45098D01*
G01X-44405Y-106450D02*
X-43365D01*
G01X-50512Y-104516D02*
X-51552D01*
G01X-51032D02*
Y-108516D01*
G01X-50512D02*
X-51552D01*
G01X-53435D02*
Y-104516D01*
X-55428Y-108516D01*
Y-104516D01*
G01X-60712D02*
X-61752D01*
G01X-61232D02*
Y-108516D01*
G01X-60712D02*
X-61752D01*
G01X-63635D02*
Y-104516D01*
X-65628Y-108516D01*
Y-104516D01*
G01X-68985Y-104850D02*
X-68725Y-104650D01*
X-68422Y-104516D01*
X-68075D01*
X-67685Y-104716D01*
X-67382Y-105050D01*
X-67165Y-105450D01*
X-66992Y-106116D01*
X-66948Y-106716D01*
X-67035Y-107316D01*
X-67165Y-107716D01*
X-67425Y-108116D01*
X-67728Y-108383D01*
X-68032Y-108516D01*
X-68335D01*
X-68638Y-108383D01*
X-68898Y-108183D01*
X-69115Y-107916D01*
G01X-70522Y-108516D02*
Y-104516D01*
G01X-72342D02*
Y-108516D01*
G01Y-106516D02*
X-70522D01*
G01X-75698Y-108516D02*
X-73965D01*
Y-104516D01*
X-75698D01*
G01X-75005Y-106450D02*
X-73965D01*
G01X-77322Y-107983D02*
X-77668Y-108316D01*
X-78059Y-108516D01*
X-78405D01*
X-78752Y-108316D01*
X-79012Y-107983D01*
X-79142Y-107516D01*
X-79055Y-107050D01*
X-78838Y-106650D01*
X-78448Y-106383D01*
X-77928Y-106250D01*
X-77625Y-105983D01*
X-77495Y-105516D01*
X-77582Y-105050D01*
X-77798Y-104716D01*
X-78102Y-104516D01*
X-78405D01*
X-78708Y-104650D01*
X-78968Y-104983D01*
G01X-42532Y-119516D02*
Y-123516D01*
G01X-41535Y-119516D02*
X-43528D01*
G01X-45932Y-123516D02*
X-45585Y-123450D01*
X-45282Y-123183D01*
X-45022Y-122783D01*
X-44848Y-122316D01*
X-44762Y-121783D01*
Y-121250D01*
X-44848Y-120716D01*
X-45022Y-120250D01*
X-45282Y-119850D01*
X-45585Y-119583D01*
X-45932Y-119516D01*
X-46278Y-119583D01*
X-46582Y-119850D01*
X-46842Y-120250D01*
X-47015Y-120716D01*
X-47102Y-121250D01*
Y-121783D01*
X-47015Y-122316D01*
X-46842Y-122783D01*
X-46582Y-123183D01*
X-46278Y-123450D01*
X-45932Y-123516D01*
G01X-48465Y-119516D02*
Y-123516D01*
X-50198D01*
G01X-53599D02*
X-51865D01*
Y-119516D01*
X-53599D01*
G01X-52905Y-121450D02*
X-51865D01*
G01X-55265Y-123516D02*
Y-119516D01*
X-56348D01*
X-56695Y-119716D01*
X-56912Y-119983D01*
X-56999Y-120516D01*
X-56912Y-121050D01*
X-56652Y-121383D01*
X-56348Y-121583D01*
X-55265D01*
G01X-56348D02*
X-56999Y-123516D01*
G01X-58448D02*
X-59532Y-119516D01*
X-60615Y-123516D01*
G01X-60225Y-122116D02*
X-58838D01*
G01X-61935Y-123516D02*
Y-119516D01*
X-63928Y-123516D01*
Y-119516D01*
G01X-67285Y-119850D02*
X-67025Y-119650D01*
X-66722Y-119516D01*
X-66375D01*
X-65985Y-119716D01*
X-65682Y-120050D01*
X-65465Y-120450D01*
X-65292Y-121116D01*
X-65248Y-121716D01*
X-65335Y-122316D01*
X-65465Y-122716D01*
X-65725Y-123116D01*
X-66028Y-123383D01*
X-66332Y-123516D01*
X-66635D01*
X-66938Y-123383D01*
X-67198Y-123183D01*
X-67415Y-122916D01*
G01X-70598Y-123516D02*
X-68865D01*
Y-119516D01*
X-70598D01*
G01X-69905Y-121450D02*
X-68865D01*
G01X-72222Y-122983D02*
X-72568Y-123316D01*
X-72958Y-123516D01*
X-73305D01*
X-73652Y-123316D01*
X-73912Y-122983D01*
X-74042Y-122516D01*
X-73955Y-122050D01*
X-73738Y-121650D01*
X-73348Y-121383D01*
X-72828Y-121250D01*
X-72525Y-120983D01*
X-72395Y-120516D01*
X-72482Y-120050D01*
X-72698Y-119716D01*
X-73002Y-119516D01*
X-73305D01*
X-73609Y-119650D01*
X-73868Y-119983D01*
G01X-79332Y-145016D02*
X-82332D01*
G01X-74032Y-135316D02*
X-77032D01*
G01X-74032Y-137516D02*
X-77032D01*
G01X-75532Y-133816D02*
Y-136816D01*
G01X-24622Y-100483D02*
X-24968Y-100816D01*
X-25358Y-101016D01*
X-25705D01*
X-26052Y-100816D01*
X-26312Y-100483D01*
X-26442Y-100016D01*
X-26355Y-99550D01*
X-26138Y-99150D01*
X-25749Y-98883D01*
X-25228Y-98750D01*
X-24925Y-98483D01*
X-24795Y-98016D01*
X-24882Y-97550D01*
X-25098Y-97216D01*
X-25402Y-97016D01*
X-25705D01*
X-26008Y-97150D01*
X-26268Y-97483D01*
G01X-28065Y-101016D02*
Y-97016D01*
X-29105D01*
X-29452Y-97216D01*
X-29712Y-97683D01*
X-29798Y-98216D01*
X-29712Y-98750D01*
X-29495Y-99150D01*
X-29105Y-99350D01*
X-28065D01*
G01X-33198Y-101016D02*
X-31465D01*
Y-97016D01*
X-33198D01*
G01X-32505Y-98950D02*
X-31465D01*
G01X-36685Y-97350D02*
X-36425Y-97150D01*
X-36122Y-97016D01*
X-35775D01*
X-35385Y-97216D01*
X-35082Y-97550D01*
X-34865Y-97950D01*
X-34692Y-98616D01*
X-34648Y-99216D01*
X-34735Y-99816D01*
X-34865Y-100216D01*
X-35125Y-100616D01*
X-35428Y-100883D01*
X-35732Y-101016D01*
X-36035D01*
X-36338Y-100883D01*
X-36598Y-100683D01*
X-36815Y-100416D01*
G01X-38612Y-97016D02*
X-39652D01*
G01X-39132D02*
Y-101016D01*
G01X-38612D02*
X-39652D01*
G01X-41708D02*
Y-97016D01*
X-43355D01*
G01X-42748Y-98950D02*
X-41708D01*
G01X-45412Y-97016D02*
X-46452D01*
G01X-45932D02*
Y-101016D01*
G01X-45412D02*
X-46452D01*
G01X-50198D02*
X-48465D01*
Y-97016D01*
X-50198D01*
G01X-49505Y-98950D02*
X-48465D01*
G01X-51778Y-101016D02*
Y-97016D01*
X-52645D01*
X-52992Y-97216D01*
X-53252Y-97483D01*
X-53468Y-97883D01*
X-53642Y-98350D01*
X-53685Y-99016D01*
X-53642Y-99683D01*
X-53468Y-100150D01*
X-53252Y-100550D01*
X-52992Y-100816D01*
X-52645Y-101016D01*
X-51778D01*
G01X-58578D02*
Y-97016D01*
X-59445D01*
X-59792Y-97216D01*
X-60052Y-97483D01*
X-60268Y-97883D01*
X-60442Y-98350D01*
X-60485Y-99016D01*
X-60442Y-99683D01*
X-60268Y-100150D01*
X-60052Y-100550D01*
X-59792Y-100816D01*
X-59445Y-101016D01*
X-58578D01*
G01X-62412Y-97016D02*
X-63452D01*
G01X-62932D02*
Y-101016D01*
G01X-62412D02*
X-63452D01*
G01X-65205D02*
Y-97016D01*
X-66332Y-100350D01*
X-67459Y-97016D01*
Y-101016D01*
G01X-70598D02*
X-68865D01*
Y-97016D01*
X-70598D01*
G01X-69905Y-98950D02*
X-68865D01*
G01X-72135Y-101016D02*
Y-97016D01*
X-74128Y-101016D01*
Y-97016D01*
G01X-75622Y-100483D02*
X-75968Y-100816D01*
X-76358Y-101016D01*
X-76705D01*
X-77052Y-100816D01*
X-77312Y-100483D01*
X-77442Y-100016D01*
X-77355Y-99550D01*
X-77138Y-99150D01*
X-76749Y-98883D01*
X-76228Y-98750D01*
X-75925Y-98483D01*
X-75795Y-98016D01*
X-75882Y-97550D01*
X-76098Y-97216D01*
X-76402Y-97016D01*
X-76705D01*
X-77008Y-97150D01*
X-77268Y-97483D01*
G01X-79412Y-97016D02*
X-80452D01*
G01X-79932D02*
Y-101016D01*
G01X-79412D02*
X-80452D01*
G01X-83332D02*
X-82985Y-100950D01*
X-82682Y-100683D01*
X-82422Y-100283D01*
X-82248Y-99816D01*
X-82162Y-99283D01*
Y-98750D01*
X-82248Y-98216D01*
X-82422Y-97750D01*
X-82682Y-97350D01*
X-82985Y-97083D01*
X-83332Y-97016D01*
X-83678Y-97083D01*
X-83982Y-97350D01*
X-84242Y-97750D01*
X-84415Y-98216D01*
X-84502Y-98750D01*
Y-99283D01*
X-84415Y-99816D01*
X-84242Y-100283D01*
X-83982Y-100683D01*
X-83678Y-100950D01*
X-83332Y-101016D01*
G01X-85735D02*
Y-97016D01*
X-87728Y-101016D01*
Y-97016D01*
G01X-89222Y-100483D02*
X-89568Y-100816D01*
X-89959Y-101016D01*
X-90305D01*
X-90652Y-100816D01*
X-90912Y-100483D01*
X-91042Y-100016D01*
X-90955Y-99550D01*
X-90738Y-99150D01*
X-90348Y-98883D01*
X-89828Y-98750D01*
X-89525Y-98483D01*
X-89395Y-98016D01*
X-89482Y-97550D01*
X-89698Y-97216D01*
X-90002Y-97016D01*
X-90305D01*
X-90608Y-97150D01*
X-90868Y-97483D01*
G01X-31379Y-89516D02*
Y-92383D01*
X-31552Y-92983D01*
X-31898Y-93383D01*
X-32332Y-93516D01*
X-32765Y-93383D01*
X-33112Y-92983D01*
X-33285Y-92383D01*
Y-89516D01*
G01X-34735Y-93516D02*
Y-89516D01*
X-36728Y-93516D01*
Y-89516D01*
G01X-38265D02*
Y-93516D01*
X-39998D01*
G01X-43398D02*
X-41665D01*
Y-89516D01*
X-43398D01*
G01X-42705Y-91450D02*
X-41665D01*
G01X-45022Y-92983D02*
X-45368Y-93316D01*
X-45758Y-93516D01*
X-46105D01*
X-46452Y-93316D01*
X-46712Y-92983D01*
X-46842Y-92516D01*
X-46755Y-92050D01*
X-46538Y-91650D01*
X-46148Y-91383D01*
X-45629Y-91250D01*
X-45325Y-90983D01*
X-45195Y-90516D01*
X-45282Y-90050D01*
X-45498Y-89716D01*
X-45802Y-89516D01*
X-46105D01*
X-46408Y-89650D01*
X-46668Y-89983D01*
G01X-48422Y-92983D02*
X-48768Y-93316D01*
X-49158Y-93516D01*
X-49505D01*
X-49852Y-93316D01*
X-50112Y-92983D01*
X-50242Y-92516D01*
X-50155Y-92050D01*
X-49938Y-91650D01*
X-49548Y-91383D01*
X-49028Y-91250D01*
X-48725Y-90983D01*
X-48595Y-90516D01*
X-48682Y-90050D01*
X-48898Y-89716D01*
X-49202Y-89516D01*
X-49505D01*
X-49808Y-89650D01*
X-50069Y-89983D01*
G01X-56132Y-93516D02*
X-55785Y-93450D01*
X-55482Y-93183D01*
X-55222Y-92783D01*
X-55048Y-92316D01*
X-54962Y-91783D01*
Y-91250D01*
X-55048Y-90716D01*
X-55222Y-90250D01*
X-55482Y-89850D01*
X-55785Y-89583D01*
X-56132Y-89516D01*
X-56478Y-89583D01*
X-56782Y-89850D01*
X-57042Y-90250D01*
X-57215Y-90716D01*
X-57302Y-91250D01*
Y-91783D01*
X-57215Y-92316D01*
X-57042Y-92783D01*
X-56782Y-93183D01*
X-56478Y-93450D01*
X-56132Y-93516D01*
G01X-59532Y-89516D02*
Y-93516D01*
G01X-58535Y-89516D02*
X-60528D01*
G01X-62022Y-93516D02*
Y-89516D01*
G01X-63842D02*
Y-93516D01*
G01Y-91516D02*
X-62022D01*
G01X-67198Y-93516D02*
X-65465D01*
Y-89516D01*
X-67198D01*
G01X-66505Y-91450D02*
X-65465D01*
G01X-68865Y-93516D02*
Y-89516D01*
X-69948D01*
X-70295Y-89716D01*
X-70512Y-89983D01*
X-70598Y-90516D01*
X-70512Y-91050D01*
X-70252Y-91383D01*
X-69948Y-91583D01*
X-68865D01*
G01X-69948D02*
X-70598Y-93516D01*
G01X-71832Y-89516D02*
X-72438Y-93516D01*
X-73132Y-89516D01*
X-73825Y-93516D01*
X-74432Y-89516D01*
G01X-76012D02*
X-77052D01*
G01X-76532D02*
Y-93516D01*
G01X-76012D02*
X-77052D01*
G01X-79022Y-92983D02*
X-79368Y-93316D01*
X-79759Y-93516D01*
X-80105D01*
X-80452Y-93316D01*
X-80712Y-92983D01*
X-80842Y-92516D01*
X-80755Y-92050D01*
X-80538Y-91650D01*
X-80148Y-91383D01*
X-79628Y-91250D01*
X-79325Y-90983D01*
X-79195Y-90516D01*
X-79282Y-90050D01*
X-79498Y-89716D01*
X-79802Y-89516D01*
X-80105D01*
X-80408Y-89650D01*
X-80668Y-89983D01*
G01X-84198Y-93516D02*
X-82465D01*
Y-89516D01*
X-84198D01*
G01X-83505Y-91450D02*
X-82465D01*
G01X-42632Y-149650D02*
X-42545Y-149583D01*
Y-149450D01*
X-42632Y-149383D01*
X-42719Y-149450D01*
Y-149583D01*
X-42632Y-149650D01*
G01X-46032Y-145516D02*
X-45685Y-145650D01*
X-45425Y-145983D01*
X-45252Y-146383D01*
X-45122Y-146916D01*
X-45079Y-147516D01*
X-45122Y-148116D01*
X-45252Y-148650D01*
X-45425Y-149050D01*
X-45685Y-149383D01*
X-46032Y-149516D01*
X-46378Y-149383D01*
X-46638Y-149050D01*
X-46812Y-148650D01*
X-46942Y-148116D01*
X-46985Y-147516D01*
X-46942Y-146916D01*
X-46812Y-146383D01*
X-46638Y-145983D01*
X-46378Y-145650D01*
X-46032Y-145516D01*
G01X-49432Y-149516D02*
Y-145516D01*
X-48912Y-146316D01*
G01Y-149516D02*
X-49952D01*
G01X-52832Y-145516D02*
X-52485Y-145650D01*
X-52225Y-145983D01*
X-52052Y-146383D01*
X-51922Y-146916D01*
X-51878Y-147516D01*
X-51922Y-148116D01*
X-52052Y-148650D01*
X-52225Y-149050D01*
X-52485Y-149383D01*
X-52832Y-149516D01*
X-53178Y-149383D01*
X-53438Y-149050D01*
X-53612Y-148650D01*
X-53742Y-148116D01*
X-53785Y-147516D01*
X-53742Y-146916D01*
X-53612Y-146383D01*
X-53438Y-145983D01*
X-53178Y-145650D01*
X-52832Y-145516D01*
G01X-26322Y-149516D02*
X-28142Y-145516D01*
G01X-26322D02*
X-28142Y-149516D01*
G01X-29722D02*
X-31542Y-145516D01*
G01X-29722D02*
X-31542Y-149516D01*
G01X-33122D02*
X-34942Y-145516D01*
G01X-33122D02*
X-34942Y-149516D01*
G01X-37332D02*
X-40332D01*
G01X-38832Y-145816D02*
Y-148816D01*
G01X-37332Y-147316D02*
X-40332D01*
G01X-42632Y-143650D02*
X-42545Y-143583D01*
Y-143450D01*
X-42632Y-143383D01*
X-42719Y-143450D01*
Y-143583D01*
X-42632Y-143650D01*
G01X-46032Y-139516D02*
X-45685Y-139650D01*
X-45425Y-139983D01*
X-45252Y-140383D01*
X-45122Y-140916D01*
X-45079Y-141516D01*
X-45122Y-142116D01*
X-45252Y-142650D01*
X-45425Y-143050D01*
X-45685Y-143383D01*
X-46032Y-143516D01*
X-46378Y-143383D01*
X-46638Y-143050D01*
X-46812Y-142650D01*
X-46942Y-142116D01*
X-46985Y-141516D01*
X-46942Y-140916D01*
X-46812Y-140383D01*
X-46638Y-139983D01*
X-46378Y-139650D01*
X-46032Y-139516D01*
G01X-48478Y-142716D02*
X-48738Y-143183D01*
X-49085Y-143450D01*
X-49475Y-143516D01*
X-49822Y-143450D01*
X-50169Y-143116D01*
X-50385Y-142716D01*
X-50428Y-142316D01*
X-50342Y-141850D01*
X-50038Y-141516D01*
X-49735Y-141383D01*
X-49345D01*
G01X-49735D02*
X-49995Y-141183D01*
X-50212Y-140850D01*
X-50298Y-140450D01*
X-50212Y-140050D01*
X-49995Y-139716D01*
X-49605Y-139516D01*
X-49215Y-139583D01*
X-48825Y-139850D01*
G01X-42632Y-137650D02*
X-42545Y-137583D01*
Y-137450D01*
X-42632Y-137383D01*
X-42719Y-137450D01*
Y-137583D01*
X-42632Y-137650D01*
G01X-46032Y-137516D02*
Y-133516D01*
X-45512Y-134316D01*
G01Y-137516D02*
X-46552D01*
G01X-27678Y-132016D02*
Y-128016D01*
X-28545D01*
X-28892Y-128216D01*
X-29152Y-128483D01*
X-29369Y-128883D01*
X-29542Y-129350D01*
X-29585Y-130016D01*
X-29542Y-130683D01*
X-29369Y-131150D01*
X-29152Y-131550D01*
X-28892Y-131816D01*
X-28545Y-132016D01*
X-27678D01*
G01X-32898D02*
X-31165D01*
Y-128016D01*
X-32898D01*
G01X-32205Y-129950D02*
X-31165D01*
G01X-36385Y-128350D02*
X-36125Y-128150D01*
X-35822Y-128016D01*
X-35475D01*
X-35085Y-128216D01*
X-34782Y-128550D01*
X-34565Y-128950D01*
X-34392Y-129616D01*
X-34348Y-130216D01*
X-34435Y-130816D01*
X-34565Y-131216D01*
X-34825Y-131616D01*
X-35128Y-131883D01*
X-35432Y-132016D01*
X-35735D01*
X-36038Y-131883D01*
X-36298Y-131683D01*
X-36515Y-131416D01*
G01X-38312Y-128016D02*
X-39352D01*
G01X-38832D02*
Y-132016D01*
G01X-38312D02*
X-39352D01*
G01X-41105D02*
Y-128016D01*
X-42232Y-131350D01*
X-43358Y-128016D01*
Y-132016D01*
G01X-44548D02*
X-45632Y-128016D01*
X-46715Y-132016D01*
G01X-46325Y-130616D02*
X-44938D01*
G01X-48165Y-128016D02*
Y-132016D01*
X-49898D01*
G01X-29722Y-143516D02*
X-31542Y-139516D01*
G01X-29722D02*
X-31542Y-143516D01*
G01X-33122D02*
X-34942Y-139516D01*
G01X-33122D02*
X-34942Y-143516D01*
G01X-33122Y-137516D02*
X-34942Y-133516D01*
G01X-33122D02*
X-34942Y-137516D01*
G01X-37332Y-135316D02*
X-40332D01*
G01X-37332Y-137516D02*
X-40332D01*
G01X-38832Y-133816D02*
Y-136816D01*
G01X-37332Y-143516D02*
X-40332D01*
G01X-38832Y-139816D02*
Y-142816D01*
G01X-37332Y-141316D02*
X-40332D01*
G01X-1932Y-145516D02*
X-1238Y-145783D01*
X-718Y-146450D01*
X-372Y-147250D01*
X-112Y-148316D01*
X-25Y-149516D01*
X-112Y-150716D01*
X-372Y-151783D01*
X-718Y-152583D01*
X-1238Y-153250D01*
X-1932Y-153516D01*
X-2625Y-153250D01*
X-3145Y-152583D01*
X-3492Y-151783D01*
X-3752Y-150716D01*
X-3838Y-149516D01*
X-3752Y-148316D01*
X-3492Y-147250D01*
X-3145Y-146450D01*
X-2625Y-145783D01*
X-1932Y-145516D01*
G01X-8732Y-153516D02*
Y-145516D01*
X-7692Y-147116D01*
G01Y-153516D02*
X-9772D01*
G01X-20332Y-81016D02*
Y-156016D01*
G01X9668Y-133516D02*
Y-156016D01*
G01X3802Y-141016D02*
Y-135016D01*
X2135D01*
X1602Y-135316D01*
X1268Y-135716D01*
X1135Y-136516D01*
X1268Y-137316D01*
X1668Y-137816D01*
X2135Y-138116D01*
X3802D01*
G01X2135D02*
X1135Y-141016D01*
G01X-4065D02*
X-1398D01*
Y-135016D01*
X-4065D01*
G01X-2998Y-137916D02*
X-1398D01*
G01X-6265Y-135016D02*
X-7932Y-141016D01*
X-9598Y-135016D01*
G01X-13132Y-141216D02*
X-12998Y-141116D01*
Y-140916D01*
X-13132Y-140816D01*
X-13265Y-140916D01*
Y-141116D01*
X-13132Y-141216D01*
G01X-20332Y-133516D02*
X177168D01*
G01X-20332Y-111016D02*
X177168D01*
G01X150302Y-106016D02*
Y-98016D01*
X148135D01*
X147442Y-98417D01*
X147008Y-98950D01*
X146835Y-100016D01*
X147008Y-101083D01*
X147528Y-101750D01*
X148135Y-102150D01*
X150302D01*
G01X148135D02*
X146835Y-106016D01*
G01X141768D02*
X142462Y-105883D01*
X143068Y-105350D01*
X143588Y-104550D01*
X143935Y-103616D01*
X144108Y-102550D01*
Y-101483D01*
X143935Y-100416D01*
X143588Y-99483D01*
X143068Y-98683D01*
X142462Y-98150D01*
X141768Y-98016D01*
X141075Y-98150D01*
X140468Y-98683D01*
X139948Y-99483D01*
X139601Y-100416D01*
X139428Y-101483D01*
Y-102550D01*
X139601Y-103616D01*
X139948Y-104550D01*
X140468Y-105350D01*
X141075Y-105883D01*
X141768Y-106016D01*
G01X136788D02*
Y-98016D01*
G01X133148D02*
Y-106016D01*
G01Y-102016D02*
X136788D01*
G01X130422Y-106016D02*
Y-98016D01*
X128168Y-104683D01*
X125915Y-98016D01*
Y-106016D01*
G01X116388Y-104950D02*
X115695Y-105616D01*
X114915Y-106016D01*
X114222D01*
X113528Y-105616D01*
X113008Y-104950D01*
X112748Y-104016D01*
X112921Y-103083D01*
X113355Y-102283D01*
X114135Y-101750D01*
X115175Y-101483D01*
X115782Y-100950D01*
X116042Y-100016D01*
X115868Y-99083D01*
X115435Y-98417D01*
X114828Y-98016D01*
X114222D01*
X113615Y-98283D01*
X113095Y-98950D01*
G01X106035Y-106016D02*
X109502D01*
Y-98016D01*
X106035D01*
G01X107421Y-101883D02*
X109502D01*
G01X103222Y-106016D02*
Y-98016D01*
X100968Y-104683D01*
X98715Y-98016D01*
Y-106016D01*
G01X95208Y-98016D02*
X93128D01*
G01X94168D02*
Y-106016D01*
G01X95208D02*
X93128D01*
G01X85462Y-98683D02*
X85982Y-98283D01*
X86588Y-98016D01*
X87282D01*
X88062Y-98417D01*
X88668Y-99083D01*
X89102Y-99883D01*
X89448Y-101216D01*
X89535Y-102416D01*
X89362Y-103616D01*
X89102Y-104416D01*
X88582Y-105217D01*
X87975Y-105750D01*
X87368Y-106016D01*
X86762D01*
X86155Y-105750D01*
X85635Y-105350D01*
X85201Y-104817D01*
G01X80568Y-106016D02*
X81262Y-105883D01*
X81868Y-105350D01*
X82388Y-104550D01*
X82735Y-103616D01*
X82908Y-102550D01*
Y-101483D01*
X82735Y-100416D01*
X82388Y-99483D01*
X81868Y-98683D01*
X81262Y-98150D01*
X80568Y-98016D01*
X79875Y-98150D01*
X79268Y-98683D01*
X78748Y-99483D01*
X78401Y-100416D01*
X78228Y-101483D01*
Y-102550D01*
X78401Y-103616D01*
X78748Y-104550D01*
X79268Y-105350D01*
X79875Y-105883D01*
X80568Y-106016D01*
G01X75762D02*
Y-98016D01*
X71775Y-106016D01*
Y-98016D01*
G01X68875Y-106016D02*
Y-98016D01*
X67142D01*
X66448Y-98417D01*
X65928Y-98950D01*
X65495Y-99750D01*
X65148Y-100683D01*
X65062Y-102016D01*
X65148Y-103350D01*
X65495Y-104283D01*
X65928Y-105083D01*
X66448Y-105616D01*
X67142Y-106016D01*
X68875D01*
G01X62075Y-98016D02*
Y-103750D01*
X61728Y-104950D01*
X61035Y-105750D01*
X60168Y-106016D01*
X59301Y-105750D01*
X58608Y-104950D01*
X58262Y-103750D01*
Y-98016D01*
G01X51462Y-98683D02*
X51982Y-98283D01*
X52588Y-98016D01*
X53282D01*
X54062Y-98417D01*
X54668Y-99083D01*
X55102Y-99883D01*
X55448Y-101216D01*
X55535Y-102416D01*
X55362Y-103616D01*
X55102Y-104416D01*
X54582Y-105217D01*
X53975Y-105750D01*
X53368Y-106016D01*
X52762D01*
X52155Y-105750D01*
X51635Y-105350D01*
X51201Y-104817D01*
G01X46568Y-98016D02*
Y-106016D01*
G01X48562Y-98016D02*
X44575D01*
G01X39768Y-106016D02*
X40462Y-105883D01*
X41068Y-105350D01*
X41588Y-104550D01*
X41935Y-103616D01*
X42108Y-102550D01*
Y-101483D01*
X41935Y-100416D01*
X41588Y-99483D01*
X41068Y-98683D01*
X40462Y-98150D01*
X39768Y-98016D01*
X39075Y-98150D01*
X38468Y-98683D01*
X37948Y-99483D01*
X37601Y-100416D01*
X37428Y-101483D01*
Y-102550D01*
X37601Y-103616D01*
X37948Y-104550D01*
X38468Y-105350D01*
X39075Y-105883D01*
X39768Y-106016D01*
G01X34702D02*
Y-98016D01*
X32535D01*
X31842Y-98417D01*
X31408Y-98950D01*
X31235Y-100016D01*
X31408Y-101083D01*
X31928Y-101750D01*
X32535Y-102150D01*
X34702D01*
G01X32535D02*
X31235Y-106016D01*
G01X21275Y-98016D02*
Y-103750D01*
X20928Y-104950D01*
X20235Y-105750D01*
X19368Y-106016D01*
X18502Y-105750D01*
X17808Y-104950D01*
X17462Y-103750D01*
Y-98016D01*
G01X14388Y-104950D02*
X13695Y-105616D01*
X12915Y-106016D01*
X12222D01*
X11528Y-105616D01*
X11008Y-104950D01*
X10748Y-104016D01*
X10922Y-103083D01*
X11355Y-102283D01*
X12135Y-101750D01*
X13175Y-101483D01*
X13782Y-100950D01*
X14042Y-100016D01*
X13868Y-99083D01*
X13435Y-98417D01*
X12828Y-98016D01*
X12222D01*
X11615Y-98283D01*
X11095Y-98950D01*
G01X7935Y-106016D02*
X5768Y-98016D01*
X3601Y-106016D01*
G01X4382Y-103216D02*
X7155D01*
G01X-17500Y-17500D02*
X258090D01*
Y258090D01*
X-17500D01*
Y-17500D01*
G01X127475Y-126750D02*
X127128Y-126350D01*
X126868Y-125683D01*
X126695Y-124750D01*
X126868Y-123950D01*
X127215Y-123417D01*
X127821Y-123016D01*
X130162D01*
Y-131016D01*
X127302D01*
X126695Y-130483D01*
X126348Y-129683D01*
X126175Y-128750D01*
X126348Y-127817D01*
X126868Y-127016D01*
X127475Y-126750D01*
X130162D01*
G01X123275Y-131016D02*
Y-123016D01*
X121542D01*
X120848Y-123417D01*
X120328Y-123950D01*
X119895Y-124750D01*
X119548Y-125683D01*
X119462Y-127016D01*
X119548Y-128350D01*
X119895Y-129283D01*
X120328Y-130083D01*
X120848Y-130616D01*
X121542Y-131016D01*
X123275D01*
G01X116042Y-130083D02*
X115435Y-130750D01*
X114742Y-131016D01*
X114048Y-130750D01*
X113442Y-129950D01*
X113008Y-128750D01*
X112835Y-127550D01*
Y-126083D01*
X113008Y-124883D01*
X113442Y-123816D01*
X113962Y-123283D01*
X114568Y-123016D01*
X115262Y-123283D01*
X115782Y-123816D01*
X116128Y-124616D01*
X116302Y-125683D01*
X116128Y-126616D01*
X115695Y-127550D01*
X115175Y-128083D01*
X114568Y-128216D01*
X113875Y-127950D01*
X113355Y-127283D01*
X112835Y-126083D01*
G01X107768Y-131016D02*
Y-123016D01*
X108808Y-124616D01*
G01Y-131016D02*
X106728D01*
G01X100968Y-123016D02*
X101662Y-123283D01*
X102182Y-123950D01*
X102528Y-124750D01*
X102788Y-125816D01*
X102875Y-127016D01*
X102788Y-128216D01*
X102528Y-129283D01*
X102182Y-130083D01*
X101662Y-130750D01*
X100968Y-131016D01*
X100275Y-130750D01*
X99755Y-130083D01*
X99408Y-129283D01*
X99148Y-128216D01*
X99062Y-127016D01*
X99148Y-125816D01*
X99408Y-124750D01*
X99755Y-123950D01*
X100275Y-123283D01*
X100968Y-123016D01*
G01X95642Y-130083D02*
X95035Y-130750D01*
X94342Y-131016D01*
X93648Y-130750D01*
X93042Y-129950D01*
X92608Y-128750D01*
X92435Y-127550D01*
Y-126083D01*
X92608Y-124883D01*
X93042Y-123816D01*
X93562Y-123283D01*
X94168Y-123016D01*
X94862Y-123283D01*
X95382Y-123816D01*
X95728Y-124616D01*
X95902Y-125683D01*
X95728Y-126616D01*
X95295Y-127550D01*
X94775Y-128083D01*
X94168Y-128216D01*
X93475Y-127950D01*
X92955Y-127283D01*
X92435Y-126083D01*
G01X89015Y-131016D02*
Y-123016D01*
X85722D01*
G01X86935Y-126883D02*
X89015D01*
G01X82735Y-123016D02*
X80568Y-131016D01*
X78401Y-123016D01*
G01X76022Y-131016D02*
Y-123016D01*
X73768Y-129683D01*
X71515Y-123016D01*
Y-131016D01*
G01X65235D02*
X68702D01*
Y-123016D01*
X65235D01*
G01X66622Y-126883D02*
X68702D01*
G01X62335Y-123016D02*
X60168Y-131016D01*
X58001Y-123016D01*
G01X55275Y-131016D02*
Y-123016D01*
G01X51982D02*
X55275Y-127950D01*
G01X51462Y-131016D02*
X53802Y-125683D01*
G01X47695Y-128350D02*
X45442D01*
G01X39768Y-131016D02*
Y-123016D01*
X40808Y-124616D01*
G01Y-131016D02*
X38728D01*
G01X32968Y-123016D02*
X33662Y-123283D01*
X34182Y-123950D01*
X34528Y-124750D01*
X34788Y-125816D01*
X34875Y-127016D01*
X34788Y-128216D01*
X34528Y-129283D01*
X34182Y-130083D01*
X33662Y-130750D01*
X32968Y-131016D01*
X32275Y-130750D01*
X31755Y-130083D01*
X31408Y-129283D01*
X31148Y-128216D01*
X31062Y-127016D01*
X31148Y-125816D01*
X31408Y-124750D01*
X31755Y-123950D01*
X32275Y-123283D01*
X32968Y-123016D01*
G01X26168Y-131016D02*
Y-123016D01*
X27208Y-124616D01*
G01Y-131016D02*
X25128D01*
G01X113662Y-153516D02*
Y-145516D01*
X109675Y-153516D01*
Y-145516D01*
G01X106775D02*
Y-151250D01*
X106428Y-152450D01*
X105735Y-153250D01*
X104868Y-153516D01*
X104002Y-153250D01*
X103308Y-152450D01*
X102962Y-151250D01*
Y-145516D01*
G01X100322Y-153516D02*
Y-145516D01*
X98068Y-152183D01*
X95815Y-145516D01*
Y-153516D01*
G01X90575Y-149250D02*
X90228Y-148850D01*
X89968Y-148183D01*
X89795Y-147250D01*
X89968Y-146450D01*
X90315Y-145917D01*
X90922Y-145516D01*
X93262D01*
Y-153516D01*
X90402D01*
X89795Y-152983D01*
X89448Y-152183D01*
X89275Y-151250D01*
X89448Y-150317D01*
X89968Y-149516D01*
X90575Y-149250D01*
X93262D01*
G01X82735Y-153516D02*
X86202D01*
Y-145516D01*
X82735D01*
G01X84122Y-149383D02*
X86202D01*
G01X79402Y-153516D02*
Y-145516D01*
X77235D01*
X76542Y-145917D01*
X76108Y-146450D01*
X75935Y-147516D01*
X76108Y-148583D01*
X76628Y-149250D01*
X77235Y-149650D01*
X79402D01*
G01X77235D02*
X75935Y-153516D01*
G01X174002Y-141016D02*
Y-135016D01*
X172402D01*
X171868Y-135316D01*
X171468Y-136016D01*
X171335Y-136816D01*
X171468Y-137616D01*
X171802Y-138216D01*
X172402Y-138517D01*
X174002D01*
G01X168802Y-141016D02*
Y-135016D01*
X167135D01*
X166602Y-135316D01*
X166268Y-135716D01*
X166135Y-136516D01*
X166268Y-137316D01*
X166668Y-137816D01*
X167135Y-138116D01*
X168802D01*
G01X167135D02*
X166135Y-141016D01*
G01X162268D02*
X162802Y-140916D01*
X163268Y-140516D01*
X163668Y-139916D01*
X163935Y-139216D01*
X164068Y-138416D01*
Y-137616D01*
X163935Y-136816D01*
X163668Y-136116D01*
X163268Y-135516D01*
X162802Y-135116D01*
X162268Y-135016D01*
X161735Y-135116D01*
X161268Y-135516D01*
X160868Y-136116D01*
X160602Y-136816D01*
X160468Y-137616D01*
Y-138416D01*
X160602Y-139216D01*
X160868Y-139916D01*
X161268Y-140516D01*
X161735Y-140916D01*
X162268Y-141016D01*
G01X158402Y-139816D02*
X158068Y-140416D01*
X157668Y-140816D01*
X157202Y-141016D01*
X156668Y-140816D01*
X156268Y-140416D01*
X155868Y-139816D01*
X155735Y-139016D01*
Y-135016D01*
G01X150535Y-141016D02*
X153202D01*
Y-135016D01*
X150535D01*
G01X151602Y-137916D02*
X153202D01*
G01X145202Y-135516D02*
X145602Y-135216D01*
X146068Y-135016D01*
X146602D01*
X147202Y-135316D01*
X147668Y-135816D01*
X148002Y-136416D01*
X148268Y-137416D01*
X148335Y-138316D01*
X148202Y-139216D01*
X148002Y-139816D01*
X147602Y-140416D01*
X147135Y-140816D01*
X146668Y-141016D01*
X146202D01*
X145735Y-140816D01*
X145335Y-140516D01*
X145002Y-140117D01*
G01X141468Y-135016D02*
Y-141016D01*
G01X143002Y-135016D02*
X139935D01*
G01X132602Y-141016D02*
Y-135016D01*
X129535Y-141016D01*
Y-135016D01*
G01X127335D02*
Y-139316D01*
X127068Y-140217D01*
X126535Y-140816D01*
X125868Y-141016D01*
X125202Y-140816D01*
X124668Y-140217D01*
X124402Y-139316D01*
Y-135016D01*
G01X122402Y-141016D02*
Y-135016D01*
X120668Y-140016D01*
X118935Y-135016D01*
Y-141016D01*
G01X114935Y-137816D02*
X114668Y-137516D01*
X114468Y-137016D01*
X114335Y-136316D01*
X114468Y-135716D01*
X114735Y-135316D01*
X115202Y-135016D01*
X117002D01*
Y-141016D01*
X114802D01*
X114335Y-140616D01*
X114068Y-140016D01*
X113935Y-139316D01*
X114068Y-138616D01*
X114468Y-138016D01*
X114935Y-137816D01*
X117002D01*
G01X108935Y-141016D02*
X111602D01*
Y-135016D01*
X108935D01*
G01X110002Y-137916D02*
X111602D01*
G01X106402Y-141016D02*
Y-135016D01*
X104735D01*
X104202Y-135316D01*
X103868Y-135716D01*
X103735Y-136516D01*
X103868Y-137316D01*
X104268Y-137816D01*
X104735Y-138116D01*
X106402D01*
G01X104735D02*
X103735Y-141016D01*
G01X99868Y-141216D02*
X100002Y-141116D01*
Y-140916D01*
X99868Y-140816D01*
X99735Y-140916D01*
Y-141116D01*
X99868Y-141216D01*
G01Y-138517D02*
X100002Y-138416D01*
Y-138216D01*
X99868Y-138116D01*
X99735Y-138216D01*
Y-138416D01*
X99868Y-138517D01*
G01X174002Y-118516D02*
Y-112516D01*
X172402D01*
X171868Y-112817D01*
X171468Y-113516D01*
X171335Y-114316D01*
X171468Y-115116D01*
X171802Y-115716D01*
X172402Y-116017D01*
X174002D01*
G01X168802Y-118516D02*
Y-112516D01*
X167135D01*
X166602Y-112817D01*
X166268Y-113216D01*
X166135Y-114016D01*
X166268Y-114816D01*
X166668Y-115316D01*
X167135Y-115616D01*
X168802D01*
G01X167135D02*
X166135Y-118516D01*
G01X162268D02*
X162802Y-118416D01*
X163268Y-118016D01*
X163668Y-117416D01*
X163935Y-116716D01*
X164068Y-115916D01*
Y-115116D01*
X163935Y-114316D01*
X163668Y-113616D01*
X163268Y-113017D01*
X162802Y-112616D01*
X162268Y-112516D01*
X161735Y-112616D01*
X161268Y-113017D01*
X160868Y-113616D01*
X160602Y-114316D01*
X160468Y-115116D01*
Y-115916D01*
X160602Y-116716D01*
X160868Y-117416D01*
X161268Y-118016D01*
X161735Y-118416D01*
X162268Y-118516D01*
G01X158402Y-117316D02*
X158068Y-117916D01*
X157668Y-118316D01*
X157202Y-118516D01*
X156668Y-118316D01*
X156268Y-117916D01*
X155868Y-117316D01*
X155735Y-116516D01*
Y-112516D01*
G01X150535Y-118516D02*
X153202D01*
Y-112516D01*
X150535D01*
G01X151602Y-115416D02*
X153202D01*
G01X145202Y-113017D02*
X145602Y-112716D01*
X146068Y-112516D01*
X146602D01*
X147202Y-112817D01*
X147668Y-113316D01*
X148002Y-113916D01*
X148268Y-114916D01*
X148335Y-115816D01*
X148202Y-116716D01*
X148002Y-117316D01*
X147602Y-117916D01*
X147135Y-118316D01*
X146668Y-118516D01*
X146202D01*
X145735Y-118316D01*
X145335Y-118016D01*
X145002Y-117617D01*
G01X141468Y-112516D02*
Y-118516D01*
G01X143002Y-112516D02*
X139935D01*
G01X132602Y-118516D02*
Y-112516D01*
X129535Y-118516D01*
Y-112516D01*
G01X127535Y-118516D02*
X125868Y-112516D01*
X124202Y-118516D01*
G01X124802Y-116416D02*
X126935D01*
G01X122402Y-118516D02*
Y-112516D01*
X120668Y-117516D01*
X118935Y-112516D01*
Y-118516D01*
G01X114135D02*
X116802D01*
Y-112516D01*
X114135D01*
G01X115202Y-115416D02*
X116802D01*
G01X110268Y-118716D02*
X110402Y-118616D01*
Y-118416D01*
X110268Y-118316D01*
X110135Y-118416D01*
Y-118616D01*
X110268Y-118716D01*
G01Y-116017D02*
X110402Y-115916D01*
Y-115716D01*
X110268Y-115616D01*
X110135Y-115716D01*
Y-115916D01*
X110268Y-116017D01*
G01X171202Y-83016D02*
X171602Y-82716D01*
X172068Y-82516D01*
X172602D01*
X173202Y-82816D01*
X173668Y-83316D01*
X174002Y-83916D01*
X174268Y-84916D01*
X174335Y-85816D01*
X174202Y-86716D01*
X174002Y-87316D01*
X173602Y-87916D01*
X173135Y-88316D01*
X172668Y-88516D01*
X172202D01*
X171735Y-88316D01*
X171335Y-88016D01*
X171002Y-87617D01*
G01X167468Y-88516D02*
X168002Y-88416D01*
X168468Y-88016D01*
X168868Y-87416D01*
X169135Y-86716D01*
X169268Y-85916D01*
Y-85116D01*
X169135Y-84316D01*
X168868Y-83616D01*
X168468Y-83016D01*
X168002Y-82616D01*
X167468Y-82516D01*
X166935Y-82616D01*
X166468Y-83016D01*
X166068Y-83616D01*
X165802Y-84316D01*
X165668Y-85116D01*
Y-85916D01*
X165802Y-86716D01*
X166068Y-87416D01*
X166468Y-88016D01*
X166935Y-88416D01*
X167468Y-88516D01*
G01X164002D02*
Y-82516D01*
X162268Y-87516D01*
X160535Y-82516D01*
Y-88516D01*
G01X158402D02*
Y-82516D01*
X156802D01*
X156268Y-82816D01*
X155868Y-83516D01*
X155735Y-84316D01*
X155868Y-85116D01*
X156202Y-85716D01*
X156802Y-86017D01*
X158402D01*
G01X153535Y-88516D02*
X151868Y-82516D01*
X150202Y-88516D01*
G01X150802Y-86416D02*
X152935D01*
G01X148202Y-88516D02*
Y-82516D01*
X145135Y-88516D01*
Y-82516D01*
G01X141468Y-88516D02*
Y-85816D01*
X142802Y-82516D01*
G01X140135D02*
X141468Y-85816D01*
G01X132602Y-88516D02*
Y-82516D01*
X129535Y-88516D01*
Y-82516D01*
G01X127535Y-88516D02*
X125868Y-82516D01*
X124202Y-88516D01*
G01X124802Y-86416D02*
X126935D01*
G01X122402Y-88516D02*
Y-82516D01*
X120668Y-87516D01*
X118935Y-82516D01*
Y-88516D01*
G01X114135D02*
X116802D01*
Y-82516D01*
X114135D01*
G01X115202Y-85416D02*
X116802D01*
G01X110268Y-88716D02*
X110402Y-88616D01*
Y-88416D01*
X110268Y-88316D01*
X110135Y-88416D01*
Y-88616D01*
X110268Y-88716D01*
G01Y-86017D02*
X110402Y-85916D01*
Y-85716D01*
X110268Y-85616D01*
X110135Y-85716D01*
Y-85916D01*
X110268Y-86017D01*
G01X177168Y-81016D02*
Y-156016D01*
G01X255635Y-131016D02*
Y-126016D01*
X254302D01*
X253875Y-126266D01*
X253608Y-126600D01*
X253502Y-127266D01*
X253608Y-127933D01*
X253928Y-128350D01*
X254302Y-128600D01*
X255635D01*
G01X254302D02*
X253502Y-131016D01*
G01X250368D02*
X250795Y-130933D01*
X251168Y-130600D01*
X251488Y-130100D01*
X251702Y-129516D01*
X251808Y-128850D01*
Y-128183D01*
X251702Y-127516D01*
X251488Y-126933D01*
X251168Y-126433D01*
X250795Y-126100D01*
X250368Y-126016D01*
X249942Y-126100D01*
X249568Y-126433D01*
X249248Y-126933D01*
X249035Y-127516D01*
X248928Y-128183D01*
Y-128850D01*
X249035Y-129516D01*
X249248Y-130100D01*
X249568Y-130600D01*
X249942Y-130933D01*
X250368Y-131016D01*
G01X247288D02*
Y-126016D01*
G01X245048D02*
Y-131016D01*
G01Y-128516D02*
X247288D01*
G01X243355Y-131016D02*
Y-126016D01*
X241968Y-130183D01*
X240582Y-126016D01*
Y-131016D01*
G01X234688Y-130350D02*
X234262Y-130767D01*
X233782Y-131016D01*
X233355D01*
X232928Y-130767D01*
X232608Y-130350D01*
X232448Y-129766D01*
X232555Y-129183D01*
X232822Y-128683D01*
X233302Y-128350D01*
X233941Y-128183D01*
X234315Y-127850D01*
X234475Y-127266D01*
X234368Y-126683D01*
X234102Y-126266D01*
X233728Y-126016D01*
X233355D01*
X232982Y-126183D01*
X232662Y-126600D01*
G01X228301Y-131016D02*
X230435D01*
Y-126016D01*
X228301D01*
G01X229155Y-128433D02*
X230435D01*
G01X226555Y-131016D02*
Y-126016D01*
X225168Y-130183D01*
X223782Y-126016D01*
Y-131016D01*
G01X221608Y-126016D02*
X220328D01*
G01X220968D02*
Y-131016D01*
G01X221608D02*
X220328D01*
G01X215595Y-126433D02*
X215915Y-126183D01*
X216288Y-126016D01*
X216715D01*
X217195Y-126266D01*
X217568Y-126683D01*
X217835Y-127183D01*
X218048Y-128016D01*
X218102Y-128766D01*
X217995Y-129516D01*
X217835Y-130016D01*
X217515Y-130516D01*
X217142Y-130850D01*
X216768Y-131016D01*
X216395D01*
X216022Y-130850D01*
X215702Y-130600D01*
X215435Y-130267D01*
G01X212568Y-131016D02*
X212995Y-130933D01*
X213368Y-130600D01*
X213688Y-130100D01*
X213902Y-129516D01*
X214008Y-128850D01*
Y-128183D01*
X213902Y-127516D01*
X213688Y-126933D01*
X213368Y-126433D01*
X212995Y-126100D01*
X212568Y-126016D01*
X212142Y-126100D01*
X211768Y-126433D01*
X211448Y-126933D01*
X211235Y-127516D01*
X211128Y-128183D01*
Y-128850D01*
X211235Y-129516D01*
X211448Y-130100D01*
X211768Y-130600D01*
X212142Y-130933D01*
X212568Y-131016D01*
G01X209595D02*
Y-126016D01*
X207142Y-131016D01*
Y-126016D01*
G01X205342Y-131016D02*
Y-126016D01*
X204275D01*
X203848Y-126266D01*
X203528Y-126600D01*
X203261Y-127100D01*
X203048Y-127683D01*
X202995Y-128516D01*
X203048Y-129350D01*
X203261Y-129933D01*
X203528Y-130433D01*
X203848Y-130767D01*
X204275Y-131016D01*
X205342D01*
G01X201142Y-126016D02*
Y-129600D01*
X200928Y-130350D01*
X200502Y-130850D01*
X199968Y-131016D01*
X199435Y-130850D01*
X199008Y-130350D01*
X198795Y-129600D01*
Y-126016D01*
G01X194595Y-126433D02*
X194915Y-126183D01*
X195288Y-126016D01*
X195715D01*
X196195Y-126266D01*
X196568Y-126683D01*
X196835Y-127183D01*
X197048Y-128016D01*
X197102Y-128766D01*
X196995Y-129516D01*
X196835Y-130016D01*
X196515Y-130516D01*
X196142Y-130850D01*
X195768Y-131016D01*
X195395D01*
X195022Y-130850D01*
X194702Y-130600D01*
X194435Y-130267D01*
G01X191568Y-126016D02*
Y-131016D01*
G01X192795Y-126016D02*
X190342D01*
G01X187368Y-131016D02*
X187795Y-130933D01*
X188168Y-130600D01*
X188488Y-130100D01*
X188702Y-129516D01*
X188808Y-128850D01*
Y-128183D01*
X188702Y-127516D01*
X188488Y-126933D01*
X188168Y-126433D01*
X187795Y-126100D01*
X187368Y-126016D01*
X186942Y-126100D01*
X186568Y-126433D01*
X186248Y-126933D01*
X186035Y-127516D01*
X185928Y-128183D01*
Y-128850D01*
X186035Y-129516D01*
X186248Y-130100D01*
X186568Y-130600D01*
X186942Y-130933D01*
X187368Y-131016D01*
G01X184235D02*
Y-126016D01*
X182902D01*
X182475Y-126266D01*
X182208Y-126600D01*
X182102Y-127266D01*
X182208Y-127933D01*
X182528Y-128350D01*
X182902Y-128600D01*
X184235D01*
G01X182902D02*
X182102Y-131016D01*
G01X177168Y-133016D02*
X294668D01*
G01X177168Y-144016D02*
X294668D01*
G01X177168Y-122016D02*
X294668D01*
G01X177168Y-111016D02*
X294668D01*
G01X264082Y-150933D02*
X263708Y-150350D01*
X263388Y-150016D01*
X262962Y-149850D01*
X262588Y-150016D01*
X262322Y-150350D01*
X262108Y-150850D01*
X262055Y-151433D01*
X262108Y-151933D01*
X262322Y-152433D01*
X262642Y-152850D01*
X263015Y-153016D01*
X263442Y-152850D01*
X263815Y-152350D01*
X264028Y-151600D01*
X264082Y-150766D01*
X263975Y-149683D01*
X263815Y-149100D01*
X263548Y-148516D01*
X263175Y-148100D01*
X262802Y-148016D01*
X262428Y-148183D01*
X262162Y-148600D01*
G01X258868Y-153016D02*
X258495Y-152933D01*
X258068Y-152683D01*
X257801Y-152267D01*
X257695Y-151683D01*
X257801Y-151100D01*
X258122Y-150600D01*
X258601Y-150350D01*
X259135D01*
X259455Y-150183D01*
X259722Y-149766D01*
X259828Y-149183D01*
X259668Y-148600D01*
X259295Y-148183D01*
X258868Y-148016D01*
X258442Y-148183D01*
X258068Y-148600D01*
X257908Y-149183D01*
X258015Y-149766D01*
X258282Y-150183D01*
X258601Y-150350D01*
X259135D01*
X259615Y-150600D01*
X259935Y-151100D01*
X260042Y-151683D01*
X259935Y-152267D01*
X259668Y-152683D01*
X259242Y-152933D01*
X258868Y-153016D01*
G01X255842Y-152016D02*
X255522Y-152600D01*
X255095Y-152933D01*
X254615Y-153016D01*
X254188Y-152933D01*
X253761Y-152516D01*
X253495Y-152016D01*
X253442Y-151516D01*
X253548Y-150933D01*
X253922Y-150516D01*
X254295Y-150350D01*
X254775D01*
G01X254295D02*
X253975Y-150100D01*
X253708Y-149683D01*
X253602Y-149183D01*
X253708Y-148683D01*
X253975Y-148266D01*
X254455Y-148016D01*
X254935Y-148100D01*
X255415Y-148433D01*
G01X251162Y-151350D02*
X249775D01*
G01X246268Y-148016D02*
X246695Y-148183D01*
X247015Y-148600D01*
X247228Y-149100D01*
X247388Y-149766D01*
X247442Y-150516D01*
X247388Y-151266D01*
X247228Y-151933D01*
X247015Y-152433D01*
X246695Y-152850D01*
X246268Y-153016D01*
X245842Y-152850D01*
X245522Y-152433D01*
X245308Y-151933D01*
X245148Y-151266D01*
X245095Y-150516D01*
X245148Y-149766D01*
X245308Y-149100D01*
X245522Y-148600D01*
X245842Y-148183D01*
X246268Y-148016D01*
G01X243242Y-152016D02*
X242922Y-152600D01*
X242495Y-152933D01*
X242015Y-153016D01*
X241588Y-152933D01*
X241161Y-152516D01*
X240895Y-152016D01*
X240842Y-151516D01*
X240948Y-150933D01*
X241322Y-150516D01*
X241695Y-150350D01*
X242175D01*
G01X241695D02*
X241375Y-150100D01*
X241108Y-149683D01*
X241002Y-149183D01*
X241108Y-148683D01*
X241375Y-148266D01*
X241855Y-148016D01*
X242335Y-148100D01*
X242815Y-148433D01*
G01X237868Y-148016D02*
X238295Y-148183D01*
X238615Y-148600D01*
X238828Y-149100D01*
X238988Y-149766D01*
X239042Y-150516D01*
X238988Y-151266D01*
X238828Y-151933D01*
X238615Y-152433D01*
X238295Y-152850D01*
X237868Y-153016D01*
X237442Y-152850D01*
X237122Y-152433D01*
X236908Y-151933D01*
X236748Y-151266D01*
X236695Y-150516D01*
X236748Y-149766D01*
X236908Y-149100D01*
X237122Y-148600D01*
X237442Y-148183D01*
X237868Y-148016D01*
G01X233668Y-153016D02*
Y-148016D01*
X234308Y-149016D01*
G01Y-153016D02*
X233028D01*
G01X230482Y-148850D02*
X230162Y-148350D01*
X229788Y-148100D01*
X229362Y-148016D01*
X228828Y-148183D01*
X228455Y-148600D01*
X228348Y-149100D01*
X228402Y-149600D01*
X228615Y-150016D01*
X229682Y-150850D01*
X230162Y-151433D01*
X230482Y-152267D01*
X230588Y-153016D01*
X228348D01*
G01X225268Y-148016D02*
X225695Y-148183D01*
X226015Y-148600D01*
X226228Y-149100D01*
X226388Y-149766D01*
X226442Y-150516D01*
X226388Y-151266D01*
X226228Y-151933D01*
X226015Y-152433D01*
X225695Y-152850D01*
X225268Y-153016D01*
X224842Y-152850D01*
X224522Y-152433D01*
X224308Y-151933D01*
X224148Y-151266D01*
X224095Y-150516D01*
X224148Y-149766D01*
X224308Y-149100D01*
X224522Y-148600D01*
X224842Y-148183D01*
X225268Y-148016D01*
G01X221068Y-153016D02*
Y-148016D01*
X221708Y-149016D01*
G01Y-153016D02*
X220428D01*
G01X217882Y-148850D02*
X217561Y-148350D01*
X217188Y-148100D01*
X216761Y-148016D01*
X216228Y-148183D01*
X215855Y-148600D01*
X215748Y-149100D01*
X215801Y-149600D01*
X216015Y-150016D01*
X217082Y-150850D01*
X217561Y-151433D01*
X217882Y-152267D01*
X217988Y-153016D01*
X215748D01*
G01X213361Y-151350D02*
X211975D01*
G01X208468Y-148016D02*
X208895Y-148183D01*
X209215Y-148600D01*
X209428Y-149100D01*
X209588Y-149766D01*
X209642Y-150516D01*
X209588Y-151266D01*
X209428Y-151933D01*
X209215Y-152433D01*
X208895Y-152850D01*
X208468Y-153016D01*
X208042Y-152850D01*
X207722Y-152433D01*
X207508Y-151933D01*
X207348Y-151266D01*
X207295Y-150516D01*
X207348Y-149766D01*
X207508Y-149100D01*
X207722Y-148600D01*
X208042Y-148183D01*
X208468Y-148016D01*
G01X204268Y-153016D02*
Y-148016D01*
X204908Y-149016D01*
G01Y-153016D02*
X203628D01*
G01X249135Y-120016D02*
Y-115016D01*
X247855D01*
X247428Y-115266D01*
X247108Y-115850D01*
X247002Y-116516D01*
X247108Y-117183D01*
X247375Y-117683D01*
X247855Y-117933D01*
X249135D01*
G01X243868Y-115016D02*
Y-120016D01*
G01X245095Y-115016D02*
X242642D01*
G01X240788Y-120016D02*
Y-115016D01*
G01X238548D02*
Y-120016D01*
G01Y-117516D02*
X240788D01*
G01X236802Y-115016D02*
X235468Y-120016D01*
X234135Y-115016D01*
G01X232442Y-120016D02*
Y-115016D01*
X231375D01*
X230948Y-115266D01*
X230628Y-115600D01*
X230361Y-116100D01*
X230148Y-116683D01*
X230095Y-117516D01*
X230148Y-118350D01*
X230361Y-118933D01*
X230628Y-119433D01*
X230948Y-119766D01*
X231375Y-120016D01*
X232442D01*
G01X225895Y-115433D02*
X226215Y-115183D01*
X226588Y-115016D01*
X227015D01*
X227495Y-115266D01*
X227868Y-115683D01*
X228135Y-116183D01*
X228348Y-117016D01*
X228402Y-117766D01*
X228295Y-118516D01*
X228135Y-119016D01*
X227815Y-119516D01*
X227441Y-119850D01*
X227068Y-120016D01*
X226695D01*
X226322Y-119850D01*
X226002Y-119600D01*
X225735Y-119267D01*
G01X288418Y-105017D02*
X287752Y-105641D01*
X287002Y-106016D01*
X286335D01*
X285668Y-105641D01*
X285168Y-105017D01*
X284918Y-104141D01*
X285085Y-103266D01*
X285502Y-102516D01*
X286252Y-102016D01*
X287252Y-101766D01*
X287835Y-101266D01*
X288085Y-100391D01*
X287918Y-99516D01*
X287502Y-98892D01*
X286918Y-98516D01*
X286335D01*
X285752Y-98766D01*
X285252Y-99391D01*
G01X278502Y-106016D02*
X281835D01*
Y-98516D01*
X278502D01*
G01X279835Y-102141D02*
X281835D01*
G01X271835Y-99142D02*
X272335Y-98766D01*
X272918Y-98516D01*
X273585D01*
X274335Y-98892D01*
X274918Y-99516D01*
X275335Y-100266D01*
X275668Y-101516D01*
X275752Y-102641D01*
X275585Y-103766D01*
X275335Y-104516D01*
X274835Y-105267D01*
X274252Y-105767D01*
X273668Y-106016D01*
X273085D01*
X272502Y-105767D01*
X272002Y-105392D01*
X271585Y-104892D01*
G01X267168Y-106016D02*
X267835Y-105891D01*
X268418Y-105392D01*
X268918Y-104642D01*
X269252Y-103766D01*
X269418Y-102766D01*
Y-101766D01*
X269252Y-100766D01*
X268918Y-99891D01*
X268418Y-99142D01*
X267835Y-98641D01*
X267168Y-98516D01*
X266502Y-98641D01*
X265918Y-99142D01*
X265418Y-99891D01*
X265085Y-100766D01*
X264918Y-101766D01*
Y-102766D01*
X265085Y-103766D01*
X265418Y-104642D01*
X265918Y-105392D01*
X266502Y-105891D01*
X267168Y-106016D01*
G01X262585D02*
Y-98516D01*
X258752Y-106016D01*
Y-98516D01*
G01X256002Y-106016D02*
Y-98516D01*
X254335D01*
X253668Y-98892D01*
X253168Y-99391D01*
X252751Y-100141D01*
X252418Y-101017D01*
X252335Y-102266D01*
X252418Y-103516D01*
X252751Y-104391D01*
X253168Y-105142D01*
X253668Y-105641D01*
X254335Y-106016D01*
X256002D01*
G01X249752D02*
X247668Y-98516D01*
X245585Y-106016D01*
G01X246335Y-103391D02*
X249002D01*
G01X242835Y-106016D02*
Y-98516D01*
X240752D01*
X240085Y-98892D01*
X239668Y-99391D01*
X239502Y-100391D01*
X239668Y-101391D01*
X240168Y-102016D01*
X240752Y-102391D01*
X242835D01*
G01X240752D02*
X239502Y-106016D01*
G01X234668D02*
Y-102641D01*
X236335Y-98516D01*
G01X233002D02*
X234668Y-102641D01*
G01X229252Y-103516D02*
X227085D01*
G01X223418Y-105017D02*
X222752Y-105641D01*
X222002Y-106016D01*
X221335D01*
X220668Y-105641D01*
X220168Y-105017D01*
X219918Y-104141D01*
X220085Y-103266D01*
X220502Y-102516D01*
X221251Y-102016D01*
X222252Y-101766D01*
X222835Y-101266D01*
X223085Y-100391D01*
X222918Y-99516D01*
X222502Y-98892D01*
X221918Y-98516D01*
X221335D01*
X220752Y-98766D01*
X220252Y-99391D01*
G01X216168Y-98516D02*
X214168D01*
G01X215168D02*
Y-106016D01*
G01X216168D02*
X214168D01*
G01X210502D02*
Y-98516D01*
X208835D01*
X208168Y-98892D01*
X207668Y-99391D01*
X207252Y-100141D01*
X206918Y-101017D01*
X206835Y-102266D01*
X206918Y-103516D01*
X207252Y-104391D01*
X207668Y-105142D01*
X208168Y-105641D01*
X208835Y-106016D01*
X210502D01*
G01X200502D02*
X203835D01*
Y-98516D01*
X200502D01*
G01X201835Y-102141D02*
X203835D01*
G01X287418Y-92517D02*
X286752Y-93142D01*
X286002Y-93516D01*
X285335D01*
X284668Y-93142D01*
X284168Y-92517D01*
X283918Y-91641D01*
X284085Y-90766D01*
X284502Y-90016D01*
X285252Y-89516D01*
X286252Y-89266D01*
X286835Y-88766D01*
X287085Y-87892D01*
X286918Y-87016D01*
X286502Y-86392D01*
X285918Y-86016D01*
X285335D01*
X284752Y-86266D01*
X284252Y-86891D01*
G01X279168Y-93516D02*
X279835Y-93391D01*
X280418Y-92892D01*
X280918Y-92142D01*
X281252Y-91266D01*
X281418Y-90266D01*
Y-89266D01*
X281252Y-88266D01*
X280918Y-87391D01*
X280418Y-86642D01*
X279835Y-86141D01*
X279168Y-86016D01*
X278502Y-86141D01*
X277918Y-86642D01*
X277418Y-87391D01*
X277085Y-88266D01*
X276918Y-89266D01*
Y-90266D01*
X277085Y-91266D01*
X277418Y-92142D01*
X277918Y-92892D01*
X278502Y-93391D01*
X279168Y-93516D01*
G01X274335Y-86016D02*
Y-93516D01*
X271002D01*
G01X268002D02*
Y-86016D01*
X266335D01*
X265668Y-86392D01*
X265168Y-86891D01*
X264752Y-87641D01*
X264418Y-88517D01*
X264335Y-89766D01*
X264418Y-91016D01*
X264752Y-91892D01*
X265168Y-92642D01*
X265668Y-93142D01*
X266335Y-93516D01*
X268002D01*
G01X258002D02*
X261335D01*
Y-86016D01*
X258002D01*
G01X259335Y-89641D02*
X261335D01*
G01X254835Y-93516D02*
Y-86016D01*
X252751D01*
X252085Y-86392D01*
X251668Y-86891D01*
X251502Y-87892D01*
X251668Y-88892D01*
X252168Y-89516D01*
X252751Y-89892D01*
X254835D01*
G01X252751D02*
X251502Y-93516D01*
G01X248835D02*
Y-86016D01*
X246668Y-92266D01*
X244501Y-86016D01*
Y-93516D01*
G01X242252D02*
X240168Y-86016D01*
X238085Y-93516D01*
G01X238835Y-90892D02*
X241502D01*
G01X235418Y-92517D02*
X234752Y-93142D01*
X234001Y-93516D01*
X233335D01*
X232668Y-93142D01*
X232168Y-92517D01*
X231918Y-91641D01*
X232085Y-90766D01*
X232502Y-90016D01*
X233252Y-89516D01*
X234252Y-89266D01*
X234835Y-88766D01*
X235085Y-87892D01*
X234918Y-87016D01*
X234502Y-86392D01*
X233918Y-86016D01*
X233335D01*
X232752Y-86266D01*
X232252Y-86891D01*
G01X229002Y-93516D02*
Y-86016D01*
G01X225835D02*
X229002Y-90642D01*
G01X225335Y-93516D02*
X227585Y-88517D01*
G01X262082Y-137850D02*
X261761Y-137350D01*
X261388Y-137100D01*
X260961Y-137016D01*
X260428Y-137183D01*
X260055Y-137600D01*
X259948Y-138100D01*
X260002Y-138600D01*
X260215Y-139016D01*
X261282Y-139850D01*
X261761Y-140433D01*
X262082Y-141267D01*
X262188Y-142016D01*
X259948D01*
G01X257882Y-137850D02*
X257562Y-137350D01*
X257188Y-137100D01*
X256762Y-137016D01*
X256228Y-137183D01*
X255855Y-137600D01*
X255748Y-138100D01*
X255801Y-138600D01*
X256015Y-139016D01*
X257082Y-139850D01*
X257562Y-140433D01*
X257882Y-141267D01*
X257988Y-142016D01*
X255748D01*
G01X253895D02*
Y-137016D01*
X251442Y-142016D01*
Y-137016D01*
G01X248468Y-142016D02*
X248895Y-141933D01*
X249268Y-141600D01*
X249588Y-141100D01*
X249802Y-140516D01*
X249908Y-139850D01*
Y-139183D01*
X249802Y-138516D01*
X249588Y-137933D01*
X249268Y-137433D01*
X248895Y-137100D01*
X248468Y-137016D01*
X248042Y-137100D01*
X247668Y-137433D01*
X247348Y-137933D01*
X247135Y-138516D01*
X247028Y-139183D01*
Y-139850D01*
X247135Y-140516D01*
X247348Y-141100D01*
X247668Y-141600D01*
X248042Y-141933D01*
X248468Y-142016D01*
G01X245602Y-137016D02*
X244268Y-142016D01*
X242935Y-137016D01*
G01X240068Y-142016D02*
Y-137016D01*
X240708Y-138016D01*
G01Y-142016D02*
X239428D01*
G01X237042Y-141016D02*
X236722Y-141600D01*
X236295Y-141933D01*
X235815Y-142016D01*
X235388Y-141933D01*
X234962Y-141516D01*
X234695Y-141016D01*
X234642Y-140516D01*
X234748Y-139933D01*
X235122Y-139516D01*
X235495Y-139350D01*
X235975D01*
G01X235495D02*
X235175Y-139100D01*
X234908Y-138683D01*
X234801Y-138183D01*
X234908Y-137683D01*
X235175Y-137266D01*
X235655Y-137016D01*
X236135Y-137100D01*
X236615Y-137433D01*
G01X289242Y-120016D02*
Y-115016D01*
X288175D01*
X287748Y-115266D01*
X287428Y-115600D01*
X287162Y-116100D01*
X286948Y-116683D01*
X286895Y-117516D01*
X286948Y-118350D01*
X287162Y-118933D01*
X287428Y-119433D01*
X287748Y-119766D01*
X288175Y-120016D01*
X289242D01*
G01X282802D02*
X284935D01*
Y-115016D01*
X282802D01*
G01X283655Y-117433D02*
X284935D01*
G01X280788Y-119350D02*
X280362Y-119766D01*
X279882Y-120016D01*
X279455D01*
X279028Y-119766D01*
X278708Y-119350D01*
X278548Y-118766D01*
X278655Y-118183D01*
X278922Y-117683D01*
X279402Y-117350D01*
X280042Y-117183D01*
X280415Y-116850D01*
X280575Y-116266D01*
X280468Y-115683D01*
X280202Y-115266D01*
X279828Y-115016D01*
X279455D01*
X279082Y-115183D01*
X278762Y-115600D01*
G01X276108Y-115016D02*
X274828D01*
G01X275468D02*
Y-120016D01*
G01X276108D02*
X274828D01*
G01X270948Y-117516D02*
X269882D01*
Y-119016D01*
X270202Y-119516D01*
X270575Y-119850D01*
X271108Y-120016D01*
X271642Y-119850D01*
X272015Y-119516D01*
X272335Y-119016D01*
X272548Y-118433D01*
X272655Y-117766D01*
Y-117183D01*
X272548Y-116683D01*
X272335Y-116100D01*
X272015Y-115600D01*
X271695Y-115266D01*
X271268Y-115016D01*
X270895D01*
X270468Y-115183D01*
X270148Y-115516D01*
G01X268295Y-120016D02*
Y-115016D01*
X265842Y-120016D01*
Y-115016D01*
G01X261801Y-120016D02*
X263935D01*
Y-115016D01*
X261801D01*
G01X262655Y-117433D02*
X263935D01*
G01X259735Y-120016D02*
Y-115016D01*
X258402D01*
X257975Y-115266D01*
X257708Y-115600D01*
X257602Y-116266D01*
X257708Y-116933D01*
X258028Y-117350D01*
X258402Y-117600D01*
X259735D01*
G01X258402D02*
X257602Y-120016D01*
G01X254468Y-120183D02*
X254575Y-120100D01*
Y-119933D01*
X254468Y-119850D01*
X254362Y-119933D01*
Y-120100D01*
X254468Y-120183D01*
G01Y-117933D02*
X254575Y-117850D01*
Y-117683D01*
X254468Y-117600D01*
X254362Y-117683D01*
Y-117850D01*
X254468Y-117933D01*
G01X286895Y-126433D02*
X287215Y-126183D01*
X287588Y-126016D01*
X288015D01*
X288495Y-126266D01*
X288868Y-126683D01*
X289135Y-127183D01*
X289348Y-128016D01*
X289402Y-128766D01*
X289295Y-129516D01*
X289135Y-130016D01*
X288815Y-130516D01*
X288442Y-130850D01*
X288068Y-131016D01*
X287695D01*
X287322Y-130850D01*
X287002Y-130600D01*
X286735Y-130267D01*
G01X284988Y-131016D02*
Y-126016D01*
G01X282748D02*
Y-131016D01*
G01Y-128516D02*
X284988D01*
G01X278602Y-131016D02*
X280735D01*
Y-126016D01*
X278602D01*
G01X279455Y-128433D02*
X280735D01*
G01X274295Y-126433D02*
X274615Y-126183D01*
X274988Y-126016D01*
X275415D01*
X275895Y-126266D01*
X276268Y-126683D01*
X276535Y-127183D01*
X276748Y-128016D01*
X276802Y-128766D01*
X276695Y-129516D01*
X276535Y-130016D01*
X276215Y-130516D01*
X275842Y-130850D01*
X275468Y-131016D01*
X275095D01*
X274722Y-130850D01*
X274402Y-130600D01*
X274135Y-130267D01*
G01X272442Y-131016D02*
Y-126016D01*
G01X270415D02*
X272442Y-129100D01*
G01X270095Y-131016D02*
X271535Y-127683D01*
G01X266002Y-131016D02*
X268135D01*
Y-126016D01*
X266002D01*
G01X266855Y-128433D02*
X268135D01*
G01X263935Y-131016D02*
Y-126016D01*
X262602D01*
X262175Y-126266D01*
X261908Y-126600D01*
X261801Y-127266D01*
X261908Y-127933D01*
X262228Y-128350D01*
X262602Y-128600D01*
X263935D01*
G01X262602D02*
X261801Y-131016D01*
G01X258668Y-131183D02*
X258775Y-131100D01*
Y-130933D01*
X258668Y-130850D01*
X258561Y-130933D01*
Y-131100D01*
X258668Y-131183D01*
G01Y-128933D02*
X258775Y-128850D01*
Y-128683D01*
X258668Y-128600D01*
X258561Y-128683D01*
Y-128850D01*
X258668Y-128933D01*
G01X288242Y-142016D02*
Y-137016D01*
X287175D01*
X286748Y-137266D01*
X286428Y-137600D01*
X286162Y-138100D01*
X285948Y-138683D01*
X285895Y-139516D01*
X285948Y-140350D01*
X286162Y-140933D01*
X286428Y-141433D01*
X286748Y-141766D01*
X287175Y-142016D01*
X288242D01*
G01X284202D02*
X282868Y-137016D01*
X281535Y-142016D01*
G01X282015Y-140266D02*
X283722D01*
G01X278668Y-137016D02*
Y-142016D01*
G01X279895Y-137016D02*
X277442D01*
G01X273402Y-142016D02*
X275535D01*
Y-137016D01*
X273402D01*
G01X274255Y-139433D02*
X275535D01*
G01X270268Y-142183D02*
X270375Y-142100D01*
Y-141933D01*
X270268Y-141850D01*
X270162Y-141933D01*
Y-142100D01*
X270268Y-142183D01*
G01Y-139933D02*
X270375Y-139850D01*
Y-139683D01*
X270268Y-139600D01*
X270162Y-139683D01*
Y-139850D01*
X270268Y-139933D01*
G01X289135Y-152016D02*
X288868Y-152516D01*
X288548Y-152850D01*
X288175Y-153016D01*
X287748Y-152850D01*
X287428Y-152516D01*
X287108Y-152016D01*
X287002Y-151350D01*
Y-148016D01*
G01X283868Y-153016D02*
X284295Y-152933D01*
X284668Y-152600D01*
X284988Y-152100D01*
X285202Y-151516D01*
X285308Y-150850D01*
Y-150183D01*
X285202Y-149516D01*
X284988Y-148933D01*
X284668Y-148433D01*
X284295Y-148100D01*
X283868Y-148016D01*
X283442Y-148100D01*
X283068Y-148433D01*
X282748Y-148933D01*
X282535Y-149516D01*
X282428Y-150183D01*
Y-150850D01*
X282535Y-151516D01*
X282748Y-152100D01*
X283068Y-152600D01*
X283442Y-152933D01*
X283868Y-153016D01*
G01X279242Y-150350D02*
X279028Y-150100D01*
X278868Y-149683D01*
X278762Y-149100D01*
X278868Y-148600D01*
X279082Y-148266D01*
X279455Y-148016D01*
X280895D01*
Y-153016D01*
X279135D01*
X278762Y-152683D01*
X278548Y-152183D01*
X278442Y-151600D01*
X278548Y-151016D01*
X278868Y-150516D01*
X279242Y-150350D01*
X280895D01*
G01X276535Y-154683D02*
X275468Y-148016D01*
G01X274402D02*
X275468Y-154683D01*
G01X277068Y-152183D02*
X273868D01*
G01Y-150516D02*
X277068D01*
G01X271268Y-153183D02*
X271375Y-153100D01*
Y-152933D01*
X271268Y-152850D01*
X271161Y-152933D01*
Y-153100D01*
X271268Y-153183D01*
G01Y-150933D02*
X271375Y-150850D01*
Y-150683D01*
X271268Y-150600D01*
X271161Y-150683D01*
Y-150850D01*
X271268Y-150933D01*
G01X294668Y-81016D02*
Y-156016D01*
G01X342866Y-131905D02*
G03I-355J0D01*
G01Y-130255D02*
G03I-355J0D01*
G01D02*
G03I-355J0D01*
G01Y-128595D02*
G03I-355J0D01*
G01D02*
G03I-355J0D01*
G01X340936Y-130255D02*
G03I-354J0D01*
G01D02*
G03I-354J0D01*
G01X340036Y-131905D02*
G03I-354J0D01*
G01X340656Y-130255D02*
G03I-355J0D01*
G01X340486Y-130235D02*
G03I-354J0D01*
G01X340326Y-130185D02*
G03I-355J0D01*
G01X340176Y-130115D02*
G03I-355J0D01*
G01X340046Y-130005D02*
G03I-355J0D01*
G01X340026Y-128825D02*
G03I-355J0D01*
G01X340156Y-128725D02*
G03I-355J0D01*
G01X340286Y-128655D02*
G03I-354J0D01*
G01X340436Y-128615D02*
G03I-354J0D01*
G01X340596Y-128595D02*
G03I-355J0D01*
G01X339936Y-129875D02*
G03I-354J0D01*
G01X339866Y-129725D02*
G03I-355J0D01*
G01X339816Y-129565D02*
G03I-355J0D01*
G01X339796Y-129395D02*
G03I-355J0D01*
G01X339816Y-129235D02*
G03I-355J0D01*
G01X339856Y-129085D02*
G03I-355J0D01*
G01X339926Y-128955D02*
G03I-355J0D01*
G01X343376Y-112775D02*
G03I-355J0D01*
G01X342866Y-116015D02*
G03I-355J0D01*
G01Y-115325D02*
G03I-355J0D01*
G01Y-114625D02*
G03I-355J0D01*
G01Y-113935D02*
G03I-355J0D01*
G01X342986Y-113235D02*
G03I-354J0D01*
G01X342866Y-113795D02*
G03I-355J0D01*
G01X342896Y-113495D02*
G03I-355J0D01*
G01X342996Y-113215D02*
G03I-355J0D01*
G01X343156Y-112975D02*
G03I-355J0D01*
G01X342686Y-111155D02*
G03I-354J0D01*
G01X342826Y-111115D02*
G03I-355J0D01*
G01X342046Y-111335D02*
G03I-355J0D01*
G01X341316Y-111695D02*
G03I-355J0D01*
G01D02*
G03I-355J0D01*
G01X341106Y-111855D02*
G03I-355J0D01*
G01X339956Y-113235D02*
G03I-355J0D01*
G01X340326Y-112545D02*
G03I-355J0D01*
G01X340666Y-112175D02*
G03I-355J0D01*
G01X340286Y-112585D02*
G03I-354J0D01*
G01X340006Y-113065D02*
G03I-355J0D01*
G01X339796Y-116015D02*
G03I-355J0D01*
G01Y-115325D02*
G03I-355J0D01*
G01Y-114625D02*
G03I-355J0D01*
G01X339816Y-113935D02*
G03I-355J0D01*
G01X339796Y-114145D02*
G03I-355J0D01*
G01X339846Y-113595D02*
G03I-355J0D01*
G01X342866Y-124105D02*
G03I-355J0D01*
G01X339796D02*
G03I-355J0D01*
G01X342866Y-123655D02*
G03I-355J0D01*
G01Y-122955D02*
G03I-355J0D01*
G01Y-122265D02*
G03I-355J0D01*
G01Y-121565D02*
G03I-355J0D01*
G01Y-120875D02*
G03I-355J0D01*
G01Y-120175D02*
G03I-355J0D01*
G01Y-119485D02*
G03I-355J0D01*
G01Y-118795D02*
G03I-355J0D01*
G01Y-118095D02*
G03I-355J0D01*
G01Y-117405D02*
G03I-355J0D01*
G01Y-116705D02*
G03I-355J0D01*
G01X339796Y-123655D02*
G03I-355J0D01*
G01Y-122955D02*
G03I-355J0D01*
G01Y-122265D02*
G03I-355J0D01*
G01Y-121565D02*
G03I-355J0D01*
G01Y-120875D02*
G03I-355J0D01*
G01Y-120175D02*
G03I-355J0D01*
G01Y-119485D02*
G03I-355J0D01*
G01Y-118795D02*
G03I-355J0D01*
G01Y-118095D02*
G03I-355J0D01*
G01Y-117405D02*
G03I-355J0D01*
G01Y-116705D02*
G03I-355J0D01*
G01X380476Y-112545D02*
G03I-355J0D01*
G01X380186Y-112685D02*
G03I-354J0D01*
G01X380196Y-110915D02*
G03I-355J0D01*
G01X380186Y-124075D02*
G03I-354J0D01*
G01X380556Y-122495D02*
G03I-355J0D01*
G01X379316Y-131735D02*
G03I-355J0D01*
G01X379496Y-131605D02*
G03I-355J0D01*
G01X379656Y-131445D02*
G03I-355J0D01*
G01X379786Y-131255D02*
G03I-354J0D01*
G01X379876Y-131055D02*
G03I-355J0D01*
G01X379936Y-130835D02*
G03I-354J0D01*
G01X379956Y-130615D02*
G03I-355J0D01*
G01Y-129865D02*
G03I-355J0D01*
G01X379936Y-129645D02*
G03I-354J0D01*
G01X379876Y-129435D02*
G03I-355J0D01*
G01X379786Y-129225D02*
G03I-354J0D01*
G01X379656Y-129045D02*
G03I-355J0D01*
G01X379506Y-128895D02*
G03I-355J0D01*
G01X379316Y-128765D02*
G03I-355J0D01*
G01X378666Y-131905D02*
G03I-355J0D01*
G01X378886Y-131885D02*
G03I-354J0D01*
G01X379106Y-131825D02*
G03I-355J0D01*
G01X379116Y-128675D02*
G03I-355J0D01*
G01X378906Y-128615D02*
G03I-355J0D01*
G01X378686Y-128595D02*
G03I-354J0D01*
G01X377556Y-131845D02*
G03I-355J0D01*
G01X377756Y-131885D02*
G03I-355J0D01*
G01X377966Y-131905D02*
G03I-355J0D01*
G01X377946Y-128595D02*
G03I-355J0D01*
G01X377716Y-128615D02*
G03I-355J0D01*
G01X377506Y-128675D02*
G03I-355J0D01*
G01X376786Y-131185D02*
G03I-354J0D01*
G01X376896Y-131365D02*
G03I-355J0D01*
G01X377036Y-131515D02*
G03I-354J0D01*
G01X377186Y-131655D02*
G03I-354J0D01*
G01X377366Y-131765D02*
G03I-355J0D01*
G01X376646Y-130585D02*
G03I-355J0D01*
G01X376666Y-130795D02*
G03I-355J0D01*
G01X376706Y-130995D02*
G03I-355J0D01*
G01X376646Y-130585D02*
G03I-355J0D01*
G01X376816Y-129245D02*
G03I-355J0D01*
G01X376726Y-129455D02*
G03I-355J0D01*
G01X376666Y-129665D02*
G03I-355J0D01*
G01X376646Y-129895D02*
G03I-355J0D01*
G01X377296Y-128765D02*
G03I-355J0D01*
G01X377106Y-128895D02*
G03I-355J0D01*
G01X376946Y-129055D02*
G03I-355J0D01*
G01X374286Y-131905D02*
G03I-354J0D01*
G01Y-128595D02*
G03I-354J0D01*
G01X373806D02*
G03I-355J0D01*
G01X371526Y-131905D02*
G03I-355J0D01*
G01X370976D02*
G03I-355J0D01*
G01Y-128595D02*
G03I-355J0D01*
G01X368616Y-131905D02*
G03I-355J0D01*
G01Y-128595D02*
G03I-355J0D01*
G01X366856Y-131905D02*
G03I-355J0D01*
G01X366656Y-131885D02*
G03I-355J0D01*
G01X366456Y-131845D02*
G03I-355J0D01*
G01X366396Y-128675D02*
G03I-355J0D01*
G01X366616Y-128615D02*
G03I-355J0D01*
G01X366836Y-128595D02*
G03I-354J0D01*
G01X366266Y-131765D02*
G03I-355J0D01*
G01X366086Y-131655D02*
G03I-354J0D01*
G01X365926Y-131525D02*
G03I-355J0D01*
G01X365796Y-131365D02*
G03I-355J0D01*
G01X365686Y-131185D02*
G03I-354J0D01*
G01X365606Y-130995D02*
G03I-355J0D01*
G01X365566Y-130795D02*
G03I-355J0D01*
G01X365546Y-130595D02*
G03I-355J0D01*
G01Y-129885D02*
G03I-355J0D01*
G01X365566Y-129665D02*
G03I-355J0D01*
G01X365626Y-129445D02*
G03I-355J0D01*
G01X365716Y-129235D02*
G03I-355J0D01*
G01X365546Y-129885D02*
G03I-355J0D01*
G01X365846Y-129055D02*
G03I-355J0D01*
G01X366006Y-128895D02*
G03I-355J0D01*
G01X366186Y-128765D02*
G03I-354J0D01*
G01X363116Y-131085D02*
G03I-355J0D01*
G01X363016Y-131285D02*
G03I-355J0D01*
G01X363176Y-130665D02*
G03I-355J0D01*
G01X363186D02*
G03I-354J0D01*
G01X363166Y-130885D02*
G03I-355J0D01*
G01X363176Y-128595D02*
G03I-355J0D01*
G01X362896Y-131465D02*
G03I-355J0D01*
G01X362746Y-131615D02*
G03I-355J0D01*
G01X362566Y-131735D02*
G03I-355J0D01*
G01X362366Y-131835D02*
G03I-355J0D01*
G01X362166Y-131885D02*
G03I-355J0D01*
G01X361946Y-131905D02*
G03I-355J0D01*
G01X361426D02*
G03I-355J0D01*
G01X361196Y-131885D02*
G03I-355J0D01*
G01X360976Y-131825D02*
G03I-355J0D01*
G01X360766Y-131725D02*
G03I-355J0D01*
G01X360586Y-131595D02*
G03I-354J0D01*
G01X360426Y-131435D02*
G03I-355J0D01*
G01X360296Y-131245D02*
G03I-355J0D01*
G01X360196Y-131045D02*
G03I-355J0D01*
G01X360136Y-130825D02*
G03I-354J0D01*
G01X360116Y-130595D02*
G03I-355J0D01*
G01X360106D02*
G03I-355J0D01*
G01Y-128595D02*
G03I-355J0D01*
G01X357966Y-131025D02*
G03I-355J0D01*
G01X357926Y-131205D02*
G03I-355J0D01*
G01X357986Y-130835D02*
G03I-354J0D01*
G01X357966Y-129455D02*
G03I-355J0D01*
G01X357986Y-129635D02*
G03I-354J0D01*
G01X357926Y-129275D02*
G03I-355J0D01*
G01X357846Y-131365D02*
G03I-355J0D01*
G01X357736Y-131525D02*
G03I-354J0D01*
G01X357606Y-131655D02*
G03I-355J0D01*
G01X357456Y-131765D02*
G03I-355J0D01*
G01X357286Y-131845D02*
G03I-354J0D01*
G01X357106Y-131885D02*
G03I-355J0D01*
G01X357126Y-128615D02*
G03I-355J0D01*
G01X357306Y-128655D02*
G03I-355J0D01*
G01X357466Y-128735D02*
G03I-355J0D01*
G01X357616Y-128835D02*
G03I-355J0D01*
G01X357746Y-128965D02*
G03I-355J0D01*
G01X357846Y-129115D02*
G03I-355J0D01*
G01X356916Y-131905D02*
G03I-355J0D01*
G01X356946Y-128595D02*
G03I-355J0D01*
G01X355146Y-131905D02*
G03I-355J0D01*
G01Y-128595D02*
G03I-355J0D01*
G01X379506Y-113235D02*
G03I-355J0D01*
G01X379426Y-113305D02*
G03I-355J0D01*
G01X379756Y-113005D02*
G03I-355J0D01*
G01X379346Y-111075D02*
G03I-355J0D01*
G01X379006Y-116015D02*
G03I-355J0D01*
G01Y-115325D02*
G03I-355J0D01*
G01X379096Y-113935D02*
G03I-355J0D01*
G01X379006Y-114625D02*
G03I-355J0D01*
G01Y-114545D02*
G03I-355J0D01*
G01X379046Y-114095D02*
G03I-355J0D01*
G01X379186Y-113675D02*
G03I-354J0D01*
G01X378536Y-111355D02*
G03I-354J0D01*
G01X379106Y-111155D02*
G03I-355J0D01*
G01X377536Y-111855D02*
G03I-354J0D01*
G01X377906Y-111625D02*
G03I-355J0D01*
G01X376696Y-112545D02*
G03I-355J0D01*
G01X376806Y-112415D02*
G03I-355J0D01*
G01X377326Y-111975D02*
G03I-355J0D01*
G01X375936Y-116015D02*
G03I-354J0D01*
G01Y-115325D02*
G03I-354J0D01*
G01X375986Y-113935D02*
G03I-354J0D01*
G01X375936Y-114625D02*
G03I-354J0D01*
G01X375986Y-113955D02*
G03I-354J0D01*
G01X375936Y-114545D02*
G03I-354J0D01*
G01X376226Y-113235D02*
G03I-355J0D01*
G01X376146Y-113385D02*
G03I-355J0D01*
G01X376426Y-112865D02*
G03I-355J0D01*
G01X372626Y-116015D02*
G03I-355J0D01*
G01Y-115325D02*
G03I-355J0D01*
G01Y-114625D02*
G03I-355J0D01*
G01Y-113935D02*
G03I-355J0D01*
G01Y-113235D02*
G03I-355J0D01*
G01Y-112545D02*
G03I-355J0D01*
G01Y-111355D02*
G03I-355J0D01*
G01Y-111855D02*
G03I-355J0D01*
G01X369266Y-116015D02*
G03I-355J0D01*
G01X369326Y-115745D02*
G03I-355J0D01*
G01X369296Y-115955D02*
G03I-355J0D01*
G01X369216Y-116145D02*
G03I-355J0D01*
G01X369326Y-115325D02*
G03I-355J0D01*
G01Y-114625D02*
G03I-355J0D01*
G01Y-113935D02*
G03I-355J0D01*
G01Y-113235D02*
G03I-355J0D01*
G01Y-112545D02*
G03I-355J0D01*
G01Y-111355D02*
G03I-355J0D01*
G01D02*
G03I-355J0D01*
G01Y-111855D02*
G03I-355J0D01*
G01X362286Y-116015D02*
G03I-354J0D01*
G01X362346Y-116155D02*
G03I-355J0D01*
G01X362266Y-115965D02*
G03I-355J0D01*
G01X362236Y-115765D02*
G03I-354J0D01*
G01Y-115325D02*
G03I-354J0D01*
G01Y-113935D02*
G03I-354J0D01*
G01Y-114625D02*
G03I-354J0D01*
G01Y-113235D02*
G03I-354J0D01*
G01Y-112545D02*
G03I-354J0D01*
G01Y-111855D02*
G03I-354J0D01*
G01Y-111355D02*
G03I-354J0D01*
G01X358926Y-116015D02*
G03I-355J0D01*
G01Y-115325D02*
G03I-355J0D01*
G01Y-113935D02*
G03I-355J0D01*
G01Y-114625D02*
G03I-355J0D01*
G01Y-113235D02*
G03I-355J0D01*
G01Y-112545D02*
G03I-355J0D01*
G01Y-111855D02*
G03I-355J0D01*
G01Y-111355D02*
G03I-355J0D01*
G01X355386Y-116015D02*
G03I-354J0D01*
G01Y-115325D02*
G03I-354J0D01*
G01Y-114625D02*
G03I-354J0D01*
G01Y-113235D02*
G03I-354J0D01*
G01Y-113935D02*
G03I-354J0D01*
G01Y-112545D02*
G03I-354J0D01*
G01Y-111855D02*
G03I-354J0D01*
G01Y-111355D02*
G03I-354J0D01*
G01X379286Y-123935D02*
G03I-354J0D01*
G01X380086Y-122265D02*
G03I-354J0D01*
G01X379386Y-121565D02*
G03I-354J0D01*
G01X380026Y-122235D02*
G03I-355J0D01*
G01X379556Y-121865D02*
G03I-355J0D01*
G01X379256Y-121355D02*
G03I-355J0D01*
G01X378366Y-123655D02*
G03I-355J0D01*
G01X378416Y-123675D02*
G03I-355J0D01*
G01X379096Y-120875D02*
G03I-355J0D01*
G01X379066Y-120795D02*
G03I-355J0D01*
G01X379006Y-120175D02*
G03I-355J0D01*
G01Y-120215D02*
G03I-355J0D01*
G01Y-119485D02*
G03I-355J0D01*
G01Y-118095D02*
G03I-355J0D01*
G01Y-118795D02*
G03I-355J0D01*
G01Y-117405D02*
G03I-355J0D01*
G01Y-116705D02*
G03I-355J0D01*
G01X377836Y-123405D02*
G03I-354J0D01*
G01X377206Y-122955D02*
G03I-355J0D01*
G01X376846Y-122615D02*
G03I-355J0D01*
G01X377306Y-123055D02*
G03I-355J0D01*
G01X376106Y-121565D02*
G03I-355J0D01*
G01X376496Y-122265D02*
G03I-355J0D01*
G01X376166Y-121755D02*
G03I-355J0D01*
G01X376456Y-122225D02*
G03I-355J0D01*
G01X375956Y-120875D02*
G03I-355J0D01*
G01X375986Y-121235D02*
G03I-354J0D01*
G01X375936Y-120175D02*
G03I-354J0D01*
G01Y-120685D02*
G03I-354J0D01*
G01Y-119485D02*
G03I-354J0D01*
G01Y-118795D02*
G03I-354J0D01*
G01Y-117405D02*
G03I-354J0D01*
G01Y-118095D02*
G03I-354J0D01*
G01Y-116705D02*
G03I-354J0D01*
G01X372626Y-124105D02*
G03I-355J0D01*
G01X369326D02*
G03I-355J0D01*
G01X362236D02*
G03I-354J0D01*
G01X358926D02*
G03I-355J0D01*
G01X355386D02*
G03I-354J0D01*
G01X372626Y-123655D02*
G03I-355J0D01*
G01Y-122955D02*
G03I-355J0D01*
G01Y-122265D02*
G03I-355J0D01*
G01Y-121565D02*
G03I-355J0D01*
G01Y-120875D02*
G03I-355J0D01*
G01Y-120175D02*
G03I-355J0D01*
G01Y-119485D02*
G03I-355J0D01*
G01Y-118795D02*
G03I-355J0D01*
G01Y-117405D02*
G03I-355J0D01*
G01Y-118095D02*
G03I-355J0D01*
G01Y-116705D02*
G03I-355J0D01*
G01X369326Y-123655D02*
G03I-355J0D01*
G01Y-122955D02*
G03I-355J0D01*
G01Y-122265D02*
G03I-355J0D01*
G01Y-121565D02*
G03I-355J0D01*
G01Y-120875D02*
G03I-355J0D01*
G01Y-120175D02*
G03I-355J0D01*
G01Y-119485D02*
G03I-355J0D01*
G01Y-118985D02*
G03I-355J0D01*
G01X369296Y-118795D02*
G03I-355J0D01*
G01X369096Y-118435D02*
G03I-355J0D01*
G01X369216Y-118595D02*
G03I-355J0D01*
G01X369296Y-118785D02*
G03I-355J0D01*
G01X369086Y-116315D02*
G03I-354J0D01*
G01X368546Y-118205D02*
G03I-355J0D01*
G01X368746Y-118225D02*
G03I-355J0D01*
G01X368936Y-118305D02*
G03I-354J0D01*
G01X368916Y-116445D02*
G03I-355J0D01*
G01X368726Y-116525D02*
G03I-355J0D01*
G01X368516Y-116545D02*
G03I-355J0D01*
G01X363066Y-118205D02*
G03I-355J0D01*
G01X363016Y-116545D02*
G03I-355J0D01*
G01X362236Y-123655D02*
G03I-354J0D01*
G01Y-122955D02*
G03I-354J0D01*
G01Y-122265D02*
G03I-354J0D01*
G01Y-120875D02*
G03I-354J0D01*
G01Y-121565D02*
G03I-354J0D01*
G01Y-120175D02*
G03I-354J0D01*
G01Y-119485D02*
G03I-354J0D01*
G01X362276Y-118795D02*
G03I-355J0D01*
G01X362236Y-119035D02*
G03I-354J0D01*
G01X362266Y-118815D02*
G03I-355J0D01*
G01X362346Y-118615D02*
G03I-355J0D01*
G01X362476Y-118445D02*
G03I-355J0D01*
G01X362646Y-118315D02*
G03I-355J0D01*
G01X362856Y-118235D02*
G03I-355J0D01*
G01X362816Y-116525D02*
G03I-355J0D01*
G01X362626Y-116445D02*
G03I-355J0D01*
G01X362466Y-116325D02*
G03I-355J0D01*
G01X358926Y-123655D02*
G03I-355J0D01*
G01Y-122955D02*
G03I-355J0D01*
G01Y-121565D02*
G03I-355J0D01*
G01Y-122265D02*
G03I-355J0D01*
G01Y-120875D02*
G03I-355J0D01*
G01Y-120175D02*
G03I-355J0D01*
G01Y-119485D02*
G03I-355J0D01*
G01Y-118795D02*
G03I-355J0D01*
G01Y-117405D02*
G03I-355J0D01*
G01Y-118095D02*
G03I-355J0D01*
G01Y-116705D02*
G03I-355J0D01*
G01X355386Y-123655D02*
G03I-354J0D01*
G01Y-122955D02*
G03I-354J0D01*
G01Y-122265D02*
G03I-354J0D01*
G01Y-120875D02*
G03I-354J0D01*
G01Y-121565D02*
G03I-354J0D01*
G01Y-120175D02*
G03I-354J0D01*
G01Y-119485D02*
G03I-354J0D01*
G01Y-118795D02*
G03I-354J0D01*
G01Y-117405D02*
G03I-354J0D01*
G01Y-118095D02*
G03I-354J0D01*
G01Y-116705D02*
G03I-354J0D01*
G01X347756Y-131655D02*
G03I-355J0D01*
G01X347916Y-131525D02*
G03I-355J0D01*
G01X348046Y-131365D02*
G03I-355J0D01*
G01X348156Y-131185D02*
G03I-355J0D01*
G01X348136Y-129235D02*
G03I-354J0D01*
G01X348006Y-129055D02*
G03I-355J0D01*
G01X347846Y-128895D02*
G03I-355J0D01*
G01X353256Y-128595D02*
G03I-355J0D01*
G01X351846Y-131905D02*
G03I-355J0D01*
G01Y-128595D02*
G03I-355J0D01*
G01D02*
G03I-355J0D01*
G01X350426D02*
G03I-355J0D01*
G01X348236Y-130995D02*
G03I-354J0D01*
G01X348276Y-130795D02*
G03I-355J0D01*
G01X348296Y-130595D02*
G03I-355J0D01*
G01Y-129885D02*
G03I-355J0D01*
G01X348306D02*
G03I-355J0D01*
G01X348286Y-129665D02*
G03I-354J0D01*
G01X348226Y-129445D02*
G03I-355J0D01*
G01X347656Y-128765D02*
G03I-355J0D01*
G01X346986Y-131905D02*
G03I-354J0D01*
G01X347186Y-131885D02*
G03I-354J0D01*
G01X347386Y-131845D02*
G03I-354J0D01*
G01X347576Y-131765D02*
G03I-355J0D01*
G01X347456Y-128675D02*
G03I-355J0D01*
G01X347236Y-128615D02*
G03I-354J0D01*
G01X347016Y-128595D02*
G03I-355J0D01*
G01X346066Y-131885D02*
G03I-355J0D01*
G01X346296Y-131905D02*
G03I-355J0D01*
G01X346276Y-128595D02*
G03I-355J0D01*
G01X346056Y-128615D02*
G03I-355J0D01*
G01X345166Y-131255D02*
G03I-355J0D01*
G01X345296Y-131445D02*
G03I-355J0D01*
G01X345456Y-131605D02*
G03I-355J0D01*
G01X345646Y-131735D02*
G03I-355J0D01*
G01X345856Y-131825D02*
G03I-355J0D01*
G01X345076Y-131045D02*
G03I-355J0D01*
G01X345836Y-128675D02*
G03I-354J0D01*
G01X345636Y-128765D02*
G03I-354J0D01*
G01X345456Y-128895D02*
G03I-355J0D01*
G01X345296Y-129055D02*
G03I-355J0D01*
G01X345166Y-129235D02*
G03I-355J0D01*
G01X345076Y-129435D02*
G03I-355J0D01*
G01X344996Y-130605D02*
G03I-355J0D01*
G01X345016Y-130835D02*
G03I-355J0D01*
G01X344996Y-130605D02*
G03I-355J0D01*
G01X345016Y-129655D02*
G03I-355J0D01*
G01X344996Y-129875D02*
G03I-355J0D01*
G01X353836Y-111155D02*
G03I-354J0D01*
G01X352316Y-116015D02*
G03I-355J0D01*
G01Y-115325D02*
G03I-355J0D01*
G01Y-113935D02*
G03I-355J0D01*
G01Y-114625D02*
G03I-355J0D01*
G01X352296Y-113235D02*
G03I-355J0D01*
G01X352286Y-113145D02*
G03I-354J0D01*
G01X352316Y-113365D02*
G03I-355J0D01*
G01X351896Y-112645D02*
G03I-355J0D01*
G01X352076Y-112775D02*
G03I-355J0D01*
G01X352206Y-112945D02*
G03I-355J0D01*
G01X352446Y-110975D02*
G03I-355J0D01*
G01X351566Y-112545D02*
G03I-355J0D01*
G01X351486Y-112535D02*
G03I-354J0D01*
G01X351706Y-112565D02*
G03I-355J0D01*
G01X349966Y-112545D02*
G03I-355J0D01*
G01X349356Y-112935D02*
G03I-355J0D01*
G01X349476Y-112765D02*
G03I-355J0D01*
G01X349646Y-112645D02*
G03I-355J0D01*
G01X349836Y-112565D02*
G03I-354J0D01*
G01X350046Y-112535D02*
G03I-355J0D01*
G01X349476Y-110885D02*
G03I-355J0D01*
G01X349246Y-116015D02*
G03I-355J0D01*
G01Y-115325D02*
G03I-355J0D01*
G01Y-114625D02*
G03I-355J0D01*
G01Y-113935D02*
G03I-355J0D01*
G01X349256Y-113235D02*
G03I-355J0D01*
G01X349246Y-113335D02*
G03I-355J0D01*
G01X349266Y-113125D02*
G03I-355J0D01*
G01X345936Y-116015D02*
G03I-354J0D01*
G01Y-115325D02*
G03I-354J0D01*
G01Y-114625D02*
G03I-354J0D01*
G01Y-113935D02*
G03I-354J0D01*
G01Y-113345D02*
G03I-354J0D01*
G01X345926Y-113235D02*
G03I-355J0D01*
G01X345906Y-113135D02*
G03I-355J0D01*
G01X345206Y-112545D02*
G03I-355J0D01*
G01X345126Y-112535D02*
G03I-355J0D01*
G01X345336Y-112565D02*
G03I-354J0D01*
G01X345526Y-112645D02*
G03I-355J0D01*
G01X345696Y-112775D02*
G03I-355J0D01*
G01X345826Y-112935D02*
G03I-355J0D01*
G01X345146Y-110885D02*
G03I-355J0D01*
G01X344286Y-112545D02*
G03I-354J0D01*
G01X344366Y-112535D02*
G03I-355J0D01*
G01X343856Y-112605D02*
G03I-355J0D01*
G01X343986Y-110945D02*
G03I-354J0D01*
G01X352316Y-124105D02*
G03I-355J0D01*
G01X349246D02*
G03I-355J0D01*
G01X352316Y-123655D02*
G03I-355J0D01*
G01Y-122955D02*
G03I-355J0D01*
G01Y-121565D02*
G03I-355J0D01*
G01Y-122265D02*
G03I-355J0D01*
G01Y-120875D02*
G03I-355J0D01*
G01Y-120175D02*
G03I-355J0D01*
G01Y-119485D02*
G03I-355J0D01*
G01Y-118095D02*
G03I-355J0D01*
G01Y-118795D02*
G03I-355J0D01*
G01Y-117405D02*
G03I-355J0D01*
G01Y-116705D02*
G03I-355J0D01*
G01X349246Y-123655D02*
G03I-355J0D01*
G01Y-122955D02*
G03I-355J0D01*
G01Y-122265D02*
G03I-355J0D01*
G01Y-121565D02*
G03I-355J0D01*
G01Y-120875D02*
G03I-355J0D01*
G01Y-120175D02*
G03I-355J0D01*
G01Y-119485D02*
G03I-355J0D01*
G01Y-118795D02*
G03I-355J0D01*
G01Y-118095D02*
G03I-355J0D01*
G01Y-117405D02*
G03I-355J0D01*
G01Y-116705D02*
G03I-355J0D01*
G01X345936Y-124105D02*
G03I-354J0D01*
G01Y-123655D02*
G03I-354J0D01*
G01Y-122955D02*
G03I-354J0D01*
G01Y-122265D02*
G03I-354J0D01*
G01Y-121565D02*
G03I-354J0D01*
G01Y-120875D02*
G03I-354J0D01*
G01Y-120175D02*
G03I-354J0D01*
G01Y-119485D02*
G03I-354J0D01*
G01Y-118795D02*
G03I-354J0D01*
G01Y-118095D02*
G03I-354J0D01*
G01Y-117405D02*
G03I-354J0D01*
G01Y-116705D02*
G03I-354J0D01*
G01X398616Y-131845D02*
G03I-355J0D01*
G01X398436Y-131885D02*
G03I-354J0D01*
G01X398256Y-131905D02*
G03I-355J0D01*
G01X398496Y-128615D02*
G03I-355J0D01*
G01X398296Y-128595D02*
G03I-355J0D01*
G01X404756Y-131905D02*
G03I-355J0D01*
G01X404036Y-130225D02*
G03I-354J0D01*
G01X404206Y-130175D02*
G03I-355J0D01*
G01X404356Y-130095D02*
G03I-355J0D01*
G01X404496Y-129985D02*
G03I-355J0D01*
G01X404606Y-129845D02*
G03I-355J0D01*
G01X404686Y-129695D02*
G03I-354J0D01*
G01X404736Y-129525D02*
G03I-354J0D01*
G01X404756Y-129355D02*
G03I-355J0D01*
G01X404736Y-129185D02*
G03I-354J0D01*
G01X404676Y-129025D02*
G03I-355J0D01*
G01X404586Y-128885D02*
G03I-354J0D01*
G01X404466Y-128765D02*
G03I-355J0D01*
G01X404326Y-128675D02*
G03I-355J0D01*
G01X404166Y-128615D02*
G03I-355J0D01*
G01X403996Y-128595D02*
G03I-355J0D01*
G01X403866Y-130255D02*
G03I-355J0D01*
G01Y-130245D02*
G03I-355J0D01*
G01X402306Y-131905D02*
G03I-355J0D01*
G01X402246Y-130245D02*
G03I-355J0D01*
G01Y-130255D02*
G03I-355J0D01*
G01X402136Y-131885D02*
G03I-354J0D01*
G01X401976Y-131835D02*
G03I-355J0D01*
G01X401826Y-131765D02*
G03I-355J0D01*
G01X401696Y-131655D02*
G03I-355J0D01*
G01X401586Y-131525D02*
G03I-354J0D01*
G01X401516Y-131375D02*
G03I-355J0D01*
G01X401466Y-131215D02*
G03I-355J0D01*
G01X401446Y-131045D02*
G03I-355J0D01*
G01X401466Y-130885D02*
G03I-355J0D01*
G01X401506Y-130735D02*
G03I-355J0D01*
G01X401576Y-130605D02*
G03I-355J0D01*
G01X401676Y-130475D02*
G03I-355J0D01*
G01X401806Y-130375D02*
G03I-355J0D01*
G01X401936Y-130305D02*
G03I-354J0D01*
G01X402086Y-130265D02*
G03I-354J0D01*
G01X401446Y-128595D02*
G03I-355J0D01*
G01X399296Y-131025D02*
G03I-355J0D01*
G01X399256Y-131205D02*
G03I-355J0D01*
G01X399176Y-131375D02*
G03I-355J0D01*
G01X399066Y-131525D02*
G03I-355J0D01*
G01X398936Y-131655D02*
G03I-354J0D01*
G01X399326Y-130255D02*
G03I-355J0D01*
G01D02*
G03I-355J0D01*
G01Y-130845D02*
G03I-355J0D01*
G01X399316D02*
G03I-355J0D01*
G01X399326Y-129615D02*
G03I-355J0D01*
G01X399316D02*
G03I-355J0D01*
G01X399296Y-129415D02*
G03I-355J0D01*
G01X399236Y-129225D02*
G03I-354J0D01*
G01X399146Y-129045D02*
G03I-355J0D01*
G01X399016Y-128895D02*
G03I-355J0D01*
G01X398866Y-128765D02*
G03I-355J0D01*
G01X398786Y-131765D02*
G03I-354J0D01*
G01X398686Y-128675D02*
G03I-354J0D01*
G01X396486Y-131905D02*
G03I-354J0D01*
G01Y-130255D02*
G03I-354J0D01*
G01Y-128595D02*
G03I-354J0D01*
G01X394126Y-131905D02*
G03I-355J0D01*
G01Y-128595D02*
G03I-355J0D01*
G01X393576D02*
G03I-355J0D01*
G01X392036Y-131905D02*
G03I-354J0D01*
G01X390626Y-128595D02*
G03I-355J0D01*
G01X390106Y-131905D02*
G03I-355J0D01*
G01Y-128595D02*
G03I-355J0D01*
G01X387516Y-131905D02*
G03I-355J0D01*
G01Y-128595D02*
G03I-355J0D01*
G01X384896Y-131005D02*
G03I-355J0D01*
G01X384846Y-131185D02*
G03I-355J0D01*
G01X384766Y-131355D02*
G03I-355J0D01*
G01X384656Y-131515D02*
G03I-355J0D01*
G01X384526Y-131645D02*
G03I-355J0D01*
G01X384376Y-131755D02*
G03I-355J0D01*
G01X384916Y-130815D02*
G03I-355J0D01*
G01X384836Y-129265D02*
G03I-354J0D01*
G01X384896Y-129475D02*
G03I-355J0D01*
G01X384916Y-129685D02*
G03I-355J0D01*
G01X384436Y-128775D02*
G03I-354J0D01*
G01X384596Y-128915D02*
G03I-355J0D01*
G01X384736Y-129075D02*
G03I-354J0D01*
G01X384196Y-131835D02*
G03I-355J0D01*
G01X384016Y-131885D02*
G03I-355J0D01*
G01X383826Y-131905D02*
G03I-355J0D01*
G01Y-128595D02*
G03I-355J0D01*
G01X384036Y-128615D02*
G03I-354J0D01*
G01X384246Y-128675D02*
G03I-355J0D01*
G01X382076Y-131905D02*
G03I-355J0D01*
G01Y-128595D02*
G03I-355J0D01*
G01X404756Y-116015D02*
G03I-355J0D01*
G01Y-115325D02*
G03I-355J0D01*
G01Y-113935D02*
G03I-355J0D01*
G01Y-114625D02*
G03I-355J0D01*
G01Y-113235D02*
G03I-355J0D01*
G01Y-112545D02*
G03I-355J0D01*
G01Y-111855D02*
G03I-355J0D01*
G01Y-111355D02*
G03I-355J0D01*
G01D02*
G03I-355J0D01*
G01X403416Y-111155D02*
G03I-355J0D01*
G01X402516Y-111025D02*
G03I-355J0D01*
G01X401446Y-116015D02*
G03I-355J0D01*
G01Y-115325D02*
G03I-355J0D01*
G01Y-114625D02*
G03I-355J0D01*
G01Y-113235D02*
G03I-355J0D01*
G01Y-113935D02*
G03I-355J0D01*
G01Y-113075D02*
G03I-355J0D01*
G01X401426Y-112875D02*
G03I-355J0D01*
G01X401236Y-112545D02*
G03I-354J0D01*
G01X401346Y-112685D02*
G03I-355J0D01*
G01X401226Y-112525D02*
G03I-355J0D01*
G01X401056Y-112405D02*
G03I-355J0D01*
G01X400876Y-112325D02*
G03I-355J0D01*
G01X400676Y-112295D02*
G03I-355J0D01*
G01X400266Y-110885D02*
G03I-355J0D01*
G01X397826Y-112295D02*
G03I-355J0D01*
G01X397136Y-112325D02*
G03I-354J0D01*
G01X397236Y-110885D02*
G03I-354J0D01*
G01X396326Y-112545D02*
G03I-355J0D01*
G01X396456Y-112485D02*
G03I-355J0D01*
G01X395506Y-113085D02*
G03I-355J0D01*
G01X395406Y-113235D02*
G03I-355J0D01*
G01X395816Y-112775D02*
G03I-355J0D01*
G01X395566Y-111005D02*
G03I-355J0D01*
G01X395166Y-116015D02*
G03I-355J0D01*
G01X395116Y-115845D02*
G03I-355J0D01*
G01X395066Y-115325D02*
G03I-355J0D01*
G01Y-115405D02*
G03I-355J0D01*
G01Y-114625D02*
G03I-355J0D01*
G01X395116Y-113935D02*
G03I-355J0D01*
G01X395126Y-113865D02*
G03I-355J0D01*
G01X395066Y-114305D02*
G03I-355J0D01*
G01X395276Y-113455D02*
G03I-355J0D01*
G01X394846Y-111155D02*
G03I-355J0D01*
G01X393926Y-111355D02*
G03I-355J0D01*
G01X393136Y-111855D02*
G03I-354J0D01*
G01X392886Y-112055D02*
G03I-354J0D01*
G01X393376Y-111655D02*
G03I-355J0D01*
G01X392006Y-116015D02*
G03I-355J0D01*
G01X391996Y-115955D02*
G03I-355J0D01*
G01Y-115325D02*
G03I-355J0D01*
G01Y-114625D02*
G03I-355J0D01*
G01Y-113935D02*
G03I-355J0D01*
G01X392096Y-113235D02*
G03I-355J0D01*
G01X391996Y-113955D02*
G03I-355J0D01*
G01X392016Y-113575D02*
G03I-355J0D01*
G01X392106Y-113195D02*
G03I-355J0D01*
G01X392466Y-112545D02*
G03I-355J0D01*
G01X392256Y-112845D02*
G03I-355J0D01*
G01X392476Y-112535D02*
G03I-355J0D01*
G01X388926Y-116015D02*
G03I-355J0D01*
G01Y-115325D02*
G03I-355J0D01*
G01Y-114625D02*
G03I-355J0D01*
G01X388896Y-113935D02*
G03I-355J0D01*
G01X388926Y-114265D02*
G03I-355J0D01*
G01X388706Y-113235D02*
G03I-355J0D01*
G01X388756Y-113325D02*
G03I-355J0D01*
G01X388886Y-113785D02*
G03I-354J0D01*
G01X388756Y-113325D02*
G03I-355J0D01*
G01X388246Y-112545D02*
G03I-355J0D01*
G01X388526Y-112905D02*
G03I-355J0D01*
G01X388236Y-112525D02*
G03I-354J0D01*
G01X387866Y-112215D02*
G03I-355J0D01*
G01X387416Y-111855D02*
G03I-355J0D01*
G01X387236Y-111705D02*
G03I-354J0D01*
G01X386526Y-111315D02*
G03I-355J0D01*
G01X386056Y-111155D02*
G03I-355J0D01*
G01X385856Y-116015D02*
G03I-355J0D01*
G01Y-115325D02*
G03I-355J0D01*
G01Y-114625D02*
G03I-355J0D01*
G01X385746Y-113935D02*
G03I-355J0D01*
G01X385816Y-114175D02*
G03I-355J0D01*
G01X385856Y-114585D02*
G03I-355J0D01*
G01X385496Y-113435D02*
G03I-355J0D01*
G01X385696Y-113785D02*
G03I-355J0D01*
G01X385326Y-113235D02*
G03I-355J0D01*
G01X385226Y-113125D02*
G03I-355J0D01*
G01D02*
G03I-355J0D01*
G01X385766Y-111055D02*
G03I-355J0D01*
G01X384396Y-112545D02*
G03I-355J0D01*
G01X384796Y-112755D02*
G03I-355J0D01*
G01X384966Y-110915D02*
G03I-355J0D01*
G01X383746Y-112335D02*
G03I-355J0D01*
G01X384296Y-112485D02*
G03I-355J0D01*
G01X384166Y-110885D02*
G03I-355J0D01*
G01X383176Y-112295D02*
G03I-355J0D01*
G01X381186Y-112325D02*
G03I-354J0D01*
G01X381726Y-112295D02*
G03I-355J0D01*
G01X381056Y-110885D02*
G03I-355J0D01*
G01X380666Y-112455D02*
G03I-355J0D01*
G01X404756Y-124105D02*
G03I-355J0D01*
G01X401446D02*
G03I-355J0D01*
G01X398236Y-120175D02*
G03I-354J0D01*
G01X404756Y-123655D02*
G03I-355J0D01*
G01Y-122955D02*
G03I-355J0D01*
G01Y-121565D02*
G03I-355J0D01*
G01Y-122265D02*
G03I-355J0D01*
G01Y-120875D02*
G03I-355J0D01*
G01Y-120175D02*
G03I-355J0D01*
G01Y-119485D02*
G03I-355J0D01*
G01Y-118095D02*
G03I-355J0D01*
G01Y-118795D02*
G03I-355J0D01*
G01Y-117405D02*
G03I-355J0D01*
G01Y-116705D02*
G03I-355J0D01*
G01X401446Y-123655D02*
G03I-355J0D01*
G01Y-122955D02*
G03I-355J0D01*
G01Y-122265D02*
G03I-355J0D01*
G01Y-120875D02*
G03I-355J0D01*
G01Y-121565D02*
G03I-355J0D01*
G01Y-120175D02*
G03I-355J0D01*
G01Y-119485D02*
G03I-355J0D01*
G01Y-118795D02*
G03I-355J0D01*
G01Y-117405D02*
G03I-355J0D01*
G01Y-118095D02*
G03I-355J0D01*
G01Y-116705D02*
G03I-355J0D01*
G01X398836Y-119485D02*
G03I-354J0D01*
G01X399326Y-118795D02*
G03I-355J0D01*
G01Y-118095D02*
G03I-355J0D01*
G01Y-118915D02*
G03I-355J0D01*
G01Y-117495D02*
G03I-355J0D01*
G01X394876Y-124105D02*
G03I-355J0D01*
G01X391216D02*
G03I-355J0D01*
G01X385896Y-123875D02*
G03I-355J0D01*
G01X384876Y-124045D02*
G03I-355J0D01*
G01X383846Y-124105D02*
G03I-355J0D01*
G01X381096D02*
G03I-355J0D01*
G01X397646Y-120875D02*
G03I-355J0D01*
G01X397546Y-117495D02*
G03I-355J0D01*
G01X396456Y-122265D02*
G03I-355J0D01*
G01X397046Y-121565D02*
G03I-355J0D01*
G01X396776Y-117405D02*
G03I-355J0D01*
G01X396406Y-117305D02*
G03I-355J0D01*
G01X396966Y-117455D02*
G03I-355J0D01*
G01X395856Y-122955D02*
G03I-355J0D01*
G01X395426Y-119485D02*
G03I-355J0D01*
G01X395666Y-119225D02*
G03I-355J0D01*
G01Y-118795D02*
G03I-355J0D01*
G01Y-118715D02*
G03I-355J0D01*
G01X395476Y-116705D02*
G03I-355J0D01*
G01X395426Y-116665D02*
G03I-355J0D01*
G01X395886Y-117035D02*
G03I-354J0D01*
G01X395266Y-123655D02*
G03I-355J0D01*
G01X394796Y-120175D02*
G03I-355J0D01*
G01X394966Y-118705D02*
G03I-355J0D01*
G01X395236Y-116265D02*
G03I-354J0D01*
G01X394156Y-120875D02*
G03I-355J0D01*
G01X394286Y-118585D02*
G03I-354J0D01*
G01X392896Y-122265D02*
G03I-355J0D01*
G01X393526Y-121565D02*
G03I-355J0D01*
G01X393186Y-118095D02*
G03I-354J0D01*
G01X393626Y-118345D02*
G03I-355J0D01*
G01X393026Y-118005D02*
G03I-355J0D01*
G01X392266Y-122955D02*
G03I-355J0D01*
G01X392436Y-117405D02*
G03I-354J0D01*
G01X392666Y-117695D02*
G03I-355J0D01*
G01X392376Y-117315D02*
G03I-355J0D01*
G01X392106Y-116705D02*
G03I-355J0D01*
G01X392156Y-116895D02*
G03I-355J0D01*
G01X392036Y-116435D02*
G03I-354J0D01*
G01X391626Y-123655D02*
G03I-355J0D01*
G01X388856Y-121565D02*
G03I-355J0D01*
G01X388756Y-121915D02*
G03I-355J0D01*
G01X388926Y-120875D02*
G03I-355J0D01*
G01X388896Y-121445D02*
G03I-355J0D01*
G01X388926Y-120955D02*
G03I-355J0D01*
G01Y-120175D02*
G03I-355J0D01*
G01Y-119485D02*
G03I-355J0D01*
G01Y-118795D02*
G03I-355J0D01*
G01Y-118095D02*
G03I-355J0D01*
G01Y-117405D02*
G03I-355J0D01*
G01Y-116705D02*
G03I-355J0D01*
G01Y-117025D02*
G03I-355J0D01*
G01D02*
G03I-355J0D01*
G01D02*
G03I-355J0D01*
G01X387896Y-122955D02*
G03I-355J0D01*
G01X387826Y-123005D02*
G03I-355J0D01*
G01X388216Y-122715D02*
G03I-355J0D01*
G01X388576Y-122265D02*
G03I-355J0D01*
G01X388526Y-122345D02*
G03I-355J0D01*
G01X387226Y-123385D02*
G03I-355J0D01*
G01X386636Y-123655D02*
G03I-354J0D01*
G01X386576Y-123675D02*
G03I-355J0D01*
G01X385436Y-121565D02*
G03I-354J0D01*
G01X385416Y-121595D02*
G03I-355J0D01*
G01X385766Y-120875D02*
G03I-355J0D01*
G01X385826Y-120705D02*
G03I-355J0D01*
G01X385676Y-121175D02*
G03I-355J0D01*
G01X385856Y-120175D02*
G03I-355J0D01*
G01Y-120215D02*
G03I-355J0D01*
G01Y-119485D02*
G03I-355J0D01*
G01Y-118795D02*
G03I-355J0D01*
G01Y-118095D02*
G03I-355J0D01*
G01Y-117405D02*
G03I-355J0D01*
G01Y-116705D02*
G03I-355J0D01*
G01Y-117025D02*
G03I-355J0D01*
G01D02*
G03I-355J0D01*
G01D02*
G03I-355J0D01*
G01X384696Y-122265D02*
G03I-355J0D01*
G01X385066Y-121945D02*
G03I-355J0D01*
G01X384706Y-122265D02*
G03I-355J0D01*
G01X384286Y-122495D02*
G03I-354J0D01*
G01X383816Y-122645D02*
G03I-355J0D01*
G01X383336Y-122695D02*
G03I-354J0D01*
G01X381726D02*
G03I-355J0D01*
G01X381126Y-122655D02*
G03I-355J0D01*
M02*
