G04 ================== begin FILE IDENTIFICATION RECORD ==================*
G04 Layout Name:  BD9109FVMEVK-101_EVAL_REV01_22NOV13.brd*
G04 Film Name:    TOP*
G04 File Format:  Gerber RS274X*
G04 File Origin:  Cadence Allegro 16.3-S048*
G04 Origin Date:  Fri Nov 22 16:48:07 2013*
G04 *
G04 Layer:  VIA CLASS/TOP*
G04 Layer:  PIN/TOP*
G04 Layer:  ETCH/TOP*
G04 Layer:  DRAWING FORMAT/TOP*
G04 Layer:  BOARD GEOMETRY/OUTLINE*
G04 Layer:  BOARD GEOMETRY/LOGO*
G04 *
G04 Offset:    (0.000 0.000)*
G04 Mirror:    No*
G04 Mode:      Positive*
G04 Rotation:  0*
G04 FullContactRelief:  No*
G04 UndefLineWidth:     5.000*
G04 ================== end FILE IDENTIFICATION RECORD ====================*
%FSLAX55Y55*MOIN*%
%IR0*IPPOS*OFA0.00000B0.00000*MIA0B0*SFA1.00000B1.00000*%
%ADD10C,.25*%
%ADD14R,.032X.03*%
%ADD16R,.06X.05*%
%ADD20R,.016X.05*%
%ADD17R,.032X.028*%
%ADD15R,.07X.082*%
%ADD21R,.035X.063*%
%ADD13C,.04*%
%ADD19C,.06*%
%ADD11C,.024*%
%ADD12C,.093*%
%ADD18R,.06X.06*%
%ADD22C,.007098*%
%ADD23C,.015*%
%ADD24C,.005*%
%ADD28C,.270004*%
%ADD25C,.08*%
%ADD29C,.080004*%
%ADD26C,.080008*%
%ADD27C,.079998*%
G75*
%LPD*%
G75*
G36*
G01X-15000Y-15000D02*
Y255590D01*
X255590D01*
Y-15000D01*
X-15000D01*
G37*
%LPC*%
G75*
G36*
G01X246914Y120000D02*
X143586D01*
X141550Y122036D01*
Y150414D01*
X143136Y152000D01*
X247914D01*
X250000Y149914D01*
Y123086D01*
X246914Y120000D01*
G37*
G36*
G01X-7414Y155500D02*
X97164D01*
X99500Y153164D01*
Y144414D01*
X103914Y140000D01*
X116414D01*
X122817Y133598D01*
G03X123500Y133880I283J283D01*
G01Y144914D01*
X125086Y146500D01*
X134414D01*
X136500Y144414D01*
Y129586D01*
X134414Y127500D01*
X130114D01*
X130080Y127466D01*
Y120840D01*
X126755D01*
X125914Y120000D01*
X-5914D01*
X-9000Y123086D01*
Y153914D01*
X-7414Y155500D01*
G37*
G36*
G01X130080Y106395D02*
X130474Y106002D01*
X130553Y106000D01*
G02X129574Y102227I-53J-1999D01*
G01X129531Y102250D01*
X129275D01*
X128153Y103372D01*
G03X127470Y103089I-283J-283D01*
G01Y100400D01*
X127500D01*
Y95600D01*
X122300D01*
Y100400D01*
X123970D01*
Y101852D01*
G03X123392Y102210I-400J0D01*
G02X121360Y105643I-892J1790D01*
G01Y112160D01*
X130080D01*
Y106395D01*
G37*
G36*
G01X114000Y96250D02*
Y95500D01*
X108800D01*
Y100500D01*
X114000D01*
Y99750D01*
X116500D01*
Y100400D01*
X121700D01*
Y95600D01*
X116500D01*
Y96250D01*
X114000D01*
G37*
G54D28*
X0Y0D03*
Y240590D03*
X240590Y0D03*
Y240590D03*
G54D25*
X250591Y220591D03*
G54D29*
X104500Y150500D03*
G54D26*
X5000Y223091D03*
G54D27*
X213091Y-5000D03*
%LPD*%
G75*
G36*
G01X-5500Y121000D02*
X-8000Y123500D01*
Y153500D01*
X-7000Y154500D01*
X96750D01*
X98500Y152750D01*
Y144000D01*
X103500Y139000D01*
X116000D01*
X126467Y128533D01*
Y121967D01*
X125500Y121000D01*
X124537D01*
G03X124483I-27J-2000D01*
G01X-5500D01*
G37*
G36*
G01X144000D02*
X142550Y122450D01*
Y150000D01*
X143550Y151000D01*
X247500D01*
X249000Y149500D01*
Y123500D01*
X246500Y121000D01*
X144000D01*
G37*
G36*
G01X127520Y122000D02*
Y127840D01*
X127520Y129480D01*
X124500Y132500D01*
Y144500D01*
X125500Y145500D01*
X134000D01*
X135500Y144000D01*
Y130000D01*
X134000Y128500D01*
X129700D01*
X129040Y127840D01*
X129000Y127800D01*
Y122000D01*
X127520D01*
G37*
G54D10*
X0Y0D03*
Y240590D03*
X240590Y0D03*
Y240590D03*
G54D11*
X-12200Y14050D03*
Y24050D03*
Y34050D03*
X5300Y14050D03*
X-4700D03*
X5300Y24050D03*
X-4700D03*
X5300Y34050D03*
X-4700D03*
Y74050D03*
X5300D03*
X-12200Y64050D03*
Y74050D03*
Y44050D03*
Y54050D03*
X5300Y44050D03*
X-4700D03*
X5300Y54050D03*
X-4700D03*
Y64050D03*
X5300D03*
X-12200Y114050D03*
Y84050D03*
Y94050D03*
Y104050D03*
X-4700Y84050D03*
X5300D03*
X-4700Y94050D03*
X5300D03*
X-6500Y104000D03*
X6500D03*
X-6500Y114000D03*
X7000D03*
X-12200Y124050D03*
Y134050D03*
Y144050D03*
X-4500Y164000D03*
X5500D03*
X-4500Y174000D03*
X5500D03*
X-12200Y164050D03*
Y174050D03*
Y184050D03*
Y154050D03*
X-4700Y184050D03*
X5300D03*
X-12200Y214050D03*
Y224050D03*
Y194050D03*
Y204050D03*
X-4700Y194050D03*
X5300D03*
X-4700Y204050D03*
X5300D03*
Y214050D03*
X-4700D03*
Y224050D03*
X45300Y-12950D03*
X15300D03*
X25300D03*
X35300D03*
X15300Y-5950D03*
X25300D03*
X35300D03*
X45300D03*
X15300Y34050D03*
Y24050D03*
Y14050D03*
Y4050D03*
X45300Y64050D03*
X15300D03*
X25300D03*
X35300D03*
X45300Y74050D03*
X15300D03*
X25300D03*
X35300D03*
X15300Y54050D03*
Y44050D03*
X45300Y84050D03*
X15300D03*
X25300D03*
X35300D03*
X45300Y94050D03*
X15300D03*
X25300D03*
X35300D03*
X45300Y104050D03*
X15300D03*
X25300D03*
X35300D03*
X45300Y114050D03*
X15300D03*
X25300D03*
X35300D03*
X45500Y164000D03*
Y174000D03*
X15500Y164000D03*
X25500D03*
X35500D03*
X15500Y174000D03*
X25500D03*
X35500D03*
X45300Y184050D03*
X15300D03*
X25300D03*
X35300D03*
X45300Y194050D03*
X15300D03*
X25300D03*
X35300D03*
X15300Y204050D03*
Y214050D03*
Y224050D03*
X45300Y244050D03*
X35300D03*
X25300D03*
X15300Y234050D03*
Y244050D03*
X45300Y254050D03*
X35300D03*
X25300D03*
X15300D03*
X55300Y-12950D03*
X65300D03*
X75300D03*
X85300D03*
X55300Y-5950D03*
X65300D03*
X75300D03*
X85300D03*
Y34050D03*
Y24050D03*
Y14050D03*
Y4050D03*
Y74050D03*
X75300D03*
X85300Y64050D03*
X75300D03*
X55300Y74050D03*
X65300D03*
X55300Y64050D03*
X65300D03*
X85300Y54050D03*
Y44050D03*
Y114050D03*
X75300D03*
X85300Y94050D03*
Y104050D03*
Y84050D03*
X75300Y94050D03*
Y104050D03*
Y84050D03*
X65300Y94050D03*
Y104050D03*
Y114050D03*
X55300D03*
Y94050D03*
Y104050D03*
Y84050D03*
X65300D03*
X55500Y164000D03*
X65500D03*
X75500D03*
X85500D03*
X55500Y174000D03*
X65500D03*
X75500D03*
X85500D03*
X55300Y184050D03*
X65300D03*
X75300D03*
X85300D03*
Y224050D03*
X55300Y194050D03*
X65300D03*
X75300D03*
X85300D03*
Y244050D03*
X75300D03*
X65300D03*
X55300D03*
X85300Y234050D03*
Y254050D03*
X75300D03*
X65300D03*
X55300D03*
X95300Y-12950D03*
X105300D03*
X115300D03*
X95300Y-5950D03*
X105300D03*
X115300D03*
Y34050D03*
X105300D03*
X95300D03*
X115300Y24050D03*
X105300D03*
X95300D03*
X115300Y14050D03*
X105300D03*
X95300D03*
X115300Y4050D03*
X105300D03*
X95300D03*
X115500Y74000D03*
X105300Y74050D03*
X95300D03*
X115300Y64050D03*
X105300D03*
X95300D03*
X115300Y54050D03*
X105300D03*
X95300D03*
X115300Y44050D03*
X105300D03*
X95300D03*
X118000Y111000D03*
X102000Y114000D03*
X105500Y102000D03*
X116500Y107000D03*
X108500D03*
X102000D03*
X101000Y98000D03*
X95000Y102500D03*
X115700Y92450D03*
X105500Y92500D03*
X115500Y84000D03*
X105300Y84050D03*
X95300D03*
Y94050D03*
X122500Y104000D03*
X118000Y117000D03*
X122500Y148500D03*
X117500Y143500D03*
X110000D03*
X95500Y164000D03*
X105500D03*
X115500D03*
X95500Y174000D03*
X105500D03*
X115500D03*
X95500Y183000D03*
X105300Y184050D03*
X115300D03*
Y214050D03*
X95300Y224050D03*
X105300D03*
X115300D03*
X96500Y194000D03*
X105300Y194050D03*
X115300D03*
Y234050D03*
X105300D03*
X95300D03*
X115300Y244050D03*
X105300D03*
X95300D03*
X115300Y254050D03*
X105300D03*
X95300D03*
X145300Y-12950D03*
X155300D03*
X125300D03*
X135300D03*
X125300Y-5950D03*
X135300D03*
X145300D03*
X155300D03*
Y34050D03*
X145300D03*
X135300D03*
X125300D03*
X155300Y24050D03*
X145300D03*
X135300D03*
X125300D03*
X155300Y14050D03*
X145300D03*
X135300D03*
X125300D03*
X155300Y4050D03*
X145300D03*
X135300D03*
X125300D03*
X155500Y74000D03*
X145500D03*
X135500D03*
X125500D03*
X155300Y64050D03*
X145300D03*
X135300D03*
X125300D03*
X155300Y54050D03*
X145300D03*
X135300D03*
X125300D03*
X155300Y44050D03*
X145300D03*
X135300D03*
X125300D03*
X156000Y114000D03*
X140000Y108500D03*
Y114000D03*
X135000Y108500D03*
Y114000D03*
X156000Y103500D03*
X146000D03*
X135000D03*
X145700Y92450D03*
X155700D03*
X125700D03*
X135700D03*
X155500Y84000D03*
X145500D03*
X135500D03*
X125500D03*
X129510Y114000D03*
X124510D03*
X130500Y104000D03*
X140000Y119500D03*
Y125000D03*
X135000Y119500D03*
Y125000D03*
X129510Y119000D03*
X124510D03*
X145700Y153950D03*
X155500Y154000D03*
X135700Y153950D03*
X125700D03*
X145500Y164000D03*
Y174000D03*
X125500Y164000D03*
X135500D03*
X125500Y174000D03*
X135500D03*
X155300Y164050D03*
Y174050D03*
X145300Y184050D03*
X155300D03*
X125300D03*
X135300D03*
X145300Y214050D03*
X155300D03*
X145300Y224050D03*
X125300D03*
X135300D03*
X155300D03*
X145300Y194050D03*
X155300D03*
X125300D03*
X135300D03*
X145300Y204050D03*
X155300D03*
X145300Y234050D03*
X135300D03*
X125300D03*
X145300Y244050D03*
X135300D03*
X125300D03*
X155300D03*
Y234050D03*
Y254050D03*
X145300D03*
X135300D03*
X125300D03*
X195300Y-12950D03*
X165300D03*
X175300D03*
X185300D03*
X165300Y-5950D03*
X175300D03*
X185300D03*
X195300D03*
Y34050D03*
X185300D03*
X175300D03*
X165300D03*
X195300Y24050D03*
X185300D03*
X175300D03*
X165300D03*
X195300Y14050D03*
X185300D03*
X175300D03*
X165300D03*
X195300Y4050D03*
X185300D03*
X175300D03*
X165300D03*
X195500Y74000D03*
X185500D03*
X175500D03*
X165500D03*
X165300Y64050D03*
X175300D03*
X185300D03*
X195300D03*
Y54050D03*
X185300D03*
X175300D03*
X165300D03*
X195300Y44050D03*
X185300D03*
X175300D03*
X165300D03*
X166000Y114000D03*
Y103500D03*
X195700Y92450D03*
X185700D03*
X175700D03*
X165700D03*
X195500Y84000D03*
X165500D03*
X175500D03*
X185500D03*
X175300Y114050D03*
X185300D03*
X175300Y103550D03*
X185300D03*
X195300Y114050D03*
Y103550D03*
X165500Y154000D03*
X165300Y164050D03*
Y174050D03*
X175300Y154050D03*
X185300D03*
X175300Y174050D03*
Y164050D03*
X185300Y174050D03*
Y164050D03*
X165300Y184050D03*
X175300D03*
X185300D03*
X195300D03*
Y174050D03*
Y164050D03*
Y154050D03*
X165300Y214050D03*
X175300D03*
X165300Y224050D03*
X175300D03*
X195300D03*
Y214050D03*
X185300D03*
Y224050D03*
X165300Y194050D03*
X175300D03*
X185300D03*
X165300Y204050D03*
X175300D03*
X185300D03*
X195300D03*
Y194050D03*
X165300Y244050D03*
X195300Y234050D03*
X185300D03*
X175300D03*
X165300D03*
X175300Y244050D03*
X185300D03*
X195300D03*
Y254050D03*
X185300D03*
X175300D03*
X165300D03*
X215300Y-12950D03*
X205300D03*
X225300D03*
X205300Y-5950D03*
X225300D03*
X205300Y4050D03*
Y14050D03*
Y24050D03*
Y34050D03*
X215300D03*
Y24050D03*
Y14050D03*
Y4050D03*
X225300D03*
Y14050D03*
Y24050D03*
Y34050D03*
X205500Y74000D03*
X215500D03*
X225500D03*
X205300Y44050D03*
Y54050D03*
Y64050D03*
X215300D03*
Y54050D03*
Y44050D03*
X225300D03*
Y54050D03*
Y64050D03*
X225700Y92450D03*
X215700D03*
X205700D03*
X205500Y84000D03*
X215500D03*
X225500D03*
X205300Y103550D03*
Y114050D03*
X215300D03*
Y103550D03*
X225300D03*
Y114050D03*
Y154050D03*
X215300D03*
X205300D03*
Y164050D03*
Y174050D03*
X215300D03*
Y164050D03*
X225300D03*
Y174050D03*
Y184050D03*
X215300D03*
X205300D03*
Y194050D03*
X215300D03*
X225300D03*
Y204050D03*
X215300D03*
X205300D03*
Y214050D03*
Y224050D03*
X215300D03*
Y214050D03*
X225300D03*
Y224050D03*
Y234050D03*
X215300D03*
X205300D03*
Y244050D03*
X215300D03*
X225300D03*
Y254050D03*
X215300D03*
X205300D03*
X252800Y14050D03*
Y24050D03*
Y34050D03*
X235300D03*
Y24050D03*
Y14050D03*
X245300D03*
Y24050D03*
Y34050D03*
X245500Y74000D03*
X235500D03*
X252800Y64050D03*
Y74050D03*
Y44050D03*
Y54050D03*
X235300Y64050D03*
Y54050D03*
Y44050D03*
X245300D03*
Y54050D03*
Y64050D03*
X245700Y92450D03*
X235700D03*
X245500Y84000D03*
X235500D03*
X252800Y114050D03*
Y84550D03*
X253000Y92500D03*
Y103500D03*
X235300Y103550D03*
X245300D03*
X252800Y124050D03*
Y134050D03*
Y144050D03*
X245500Y164000D03*
Y174000D03*
X235500Y164000D03*
Y174000D03*
X252800Y164050D03*
Y174050D03*
Y184050D03*
Y154050D03*
X235300Y184050D03*
Y154050D03*
X245300D03*
Y184050D03*
X252800Y214050D03*
Y194050D03*
Y204050D03*
X235300Y194050D03*
X245300D03*
Y204050D03*
X235300D03*
Y214050D03*
X245300D03*
Y224050D03*
X235300D03*
G54D20*
X130840Y108660D03*
X128280D03*
X125720D03*
X123160D03*
Y124340D03*
X125720D03*
X128280D03*
X130840D03*
G54D12*
X0Y110000D03*
Y130050D03*
X240590Y110000D03*
X240500Y130050D03*
G54D21*
X147950Y140000D03*
X129050D03*
G54D22*
G01X-48832Y-118507D02*
X-47052D01*
G01X-48832Y-119926D02*
Y-118507D01*
G01X-42692Y-119107D02*
X-48832D01*
G01Y-119807D02*
X-45172D01*
G01X-44382Y-125116D02*
X-48832Y-119926D01*
G01X-44932Y-120496D02*
X-48342D01*
G01X-49772Y-111896D02*
X-46742D01*
G01X-47332Y-113307D02*
X-50182D01*
G01D02*
X-50382Y-113336D01*
G01D02*
X-50562Y-113416D01*
G01D02*
X-50732Y-113536D01*
G01D02*
X-50852Y-113696D01*
G01D02*
X-50932Y-113886D01*
G01D02*
X-50952Y-114086D01*
G01D02*
Y-125116D01*
G01X-52022Y-112036D02*
X-49772Y-111896D01*
G01X-52922Y-112166D02*
X-44352D01*
G01X-54262Y-112866D02*
X-42642D01*
G01X-50742Y-113557D02*
X-54262D01*
G01Y-114246D02*
X-50952D01*
G01X-54262Y-115637D02*
X-50952D01*
G01Y-114946D02*
X-54262D01*
G01X-50952Y-116336D02*
X-54262D01*
G01Y-117026D02*
X-50952D01*
G01Y-117716D02*
X-54262D01*
G01Y-118416D02*
X-50952D01*
G01X-54262Y-119807D02*
X-50952D01*
G01Y-119107D02*
X-54262D01*
G01X-50952Y-120496D02*
X-54262D01*
G01Y-121186D02*
X-50952D01*
G01Y-121887D02*
X-54262D01*
G01X-50952Y-123276D02*
X-54262D01*
G01Y-122576D02*
X-50952D01*
G01X-54262Y-123966D02*
X-50952D01*
G01Y-124666D02*
X-54262D01*
G01Y-125116D02*
Y-112366D01*
G01D02*
X-52022Y-112036D01*
G01X-26312Y-113426D02*
X-26832Y-112987D01*
G01X-26812Y-124066D02*
X-26352Y-123626D01*
G01X-26832Y-112987D02*
X-27412Y-112636D01*
G01X-27342Y-124416D02*
X-26812Y-124066D01*
G01X-27412Y-112636D02*
X-28042Y-112366D01*
G01X-28552Y-115107D02*
X-28512Y-115557D01*
G01Y-115637D02*
X-25442D01*
G01X-25492Y-114946D02*
X-28602D01*
G01X-25442Y-116336D02*
X-28512D01*
G01Y-117026D02*
X-25442D01*
G01Y-117716D02*
X-28512D01*
G01Y-118416D02*
X-25442D01*
G01X-28512Y-119807D02*
X-25442D01*
G01Y-119107D02*
X-28512D01*
G01X-25442Y-120496D02*
X-28512D01*
G01Y-115557D02*
Y-121226D01*
G01Y-121186D02*
X-25442D01*
G01X-28512Y-121226D02*
X-28572Y-121807D01*
G01X-25462Y-121887D02*
X-28602D01*
G01X-27922Y-124687D02*
X-27342Y-124416D01*
G01X-28042Y-112366D02*
X-28852Y-112086D01*
G01X-29262Y-114016D02*
X-28932Y-114316D01*
G01D02*
X-28692Y-114686D01*
G01D02*
X-28552Y-115107D01*
G01X-29012Y-114246D02*
X-25732D01*
G01X-28572Y-121807D02*
X-28762Y-122366D01*
G01D02*
X-29062Y-122876D01*
G01X-28892Y-122576D02*
X-25612D01*
G01X-28792Y-124946D02*
X-27922Y-124687D01*
G01X-28852Y-112086D02*
X-29702Y-111926D01*
G01X-30172Y-113466D02*
X-29692Y-113696D01*
G01D02*
X-29262Y-114016D01*
G01X-26202Y-113557D02*
X-29982D01*
G01X-29062Y-122876D02*
X-29532Y-123246D01*
G01X-26002Y-123276D02*
X-29592D01*
G01X-29532Y-123246D02*
X-30062Y-123507D01*
G01X-29702Y-111926D02*
X-30562Y-111896D01*
G01X-31232Y-113307D02*
X-30692Y-113336D01*
G01D02*
X-30172Y-113466D01*
G01X-30062Y-123507D02*
X-30632Y-123666D01*
G01D02*
X-31232Y-123707D01*
G01X-32682Y-113307D02*
X-31232D01*
G01Y-123707D02*
X-32842D01*
G01X-30562Y-111896D02*
X-33672D01*
G01X-33252Y-113346D02*
X-32682Y-113307D01*
G01X-32842Y-123707D02*
X-33322Y-123657D01*
G01X-33672Y-111896D02*
X-34472Y-111926D01*
G01X-34302Y-113766D02*
X-33802Y-113496D01*
G01D02*
X-33252Y-113346D01*
G01X-33792Y-123507D02*
X-34212Y-123276D01*
G01X-33322Y-123657D02*
X-33792Y-123507D01*
G01X-34472Y-111926D02*
X-35272Y-112066D01*
G01X-34732Y-114136D02*
X-34302Y-113766D01*
G01X-35002Y-114446D02*
X-34732Y-114136D01*
G01X-35362Y-115596D02*
X-35322Y-115187D01*
G01D02*
X-35202Y-114796D01*
G01D02*
X-35002Y-114446D01*
G01X-35362Y-118037D02*
Y-115596D01*
G01Y-121226D02*
Y-118037D01*
G01X-35182Y-122186D02*
X-35332Y-121716D01*
G01D02*
X-35362Y-121226D01*
G01X-34212Y-123276D02*
X-34572Y-122957D01*
G01D02*
X-34922Y-122607D01*
G01D02*
X-35182Y-122186D01*
G01X-28612Y-112166D02*
X-35562D01*
G01X-35272Y-112066D02*
X-36032Y-112326D01*
G01X-36082Y-124687D02*
X-35402Y-124887D01*
G01X-36142Y-124666D02*
X-27872D01*
G01X-36032Y-112326D02*
X-36742Y-112716D01*
G01X-36922Y-112866D02*
X-27042D01*
G01X-36732Y-124396D02*
X-36082Y-124687D01*
G01X-36742Y-112716D02*
X-37372Y-113226D01*
G01D02*
X-37742Y-113536D01*
G01X-33902Y-113557D02*
X-37752D01*
G01X-34202Y-123276D02*
X-38082D01*
G01X-37722Y-123726D02*
X-37332Y-124016D01*
G01D02*
X-36732Y-124396D01*
G01X-37402Y-123966D02*
X-26712D01*
G01X-37742Y-113536D02*
X-38032Y-113916D01*
G01X-38262Y-114336D02*
X-38392Y-114796D01*
G01X-38032Y-113916D02*
X-38262Y-114336D01*
G01X-38212Y-114246D02*
X-34832D01*
G01X-38392Y-114796D02*
X-38432Y-115276D01*
G01X-35252Y-114946D02*
X-38402D01*
G01X-38432Y-115637D02*
X-35362D01*
G01Y-116336D02*
X-38432D01*
G01Y-117026D02*
X-35362D01*
G01X-38432Y-115276D02*
Y-118037D01*
G01D02*
X-35362D01*
G01D02*
X-38432D01*
G01X-35362Y-117716D02*
X-38432D01*
G01Y-118416D02*
X-35362D01*
G01Y-119107D02*
X-38432D01*
G01Y-119807D02*
X-35362D01*
G01Y-120496D02*
X-38432D01*
G01Y-121186D02*
X-35362D01*
G01X-38432Y-118037D02*
Y-121966D01*
G01D02*
X-38402Y-122457D01*
G01X-35272Y-121887D02*
X-38432D01*
G01X-38402Y-122457D02*
X-38262Y-122926D01*
G01D02*
X-38032Y-123357D01*
G01D02*
X-37722Y-123726D01*
G01X-38362Y-122576D02*
X-34942D01*
G01X-41982Y-113546D02*
X-41762Y-113857D01*
G01D02*
X-41612Y-114207D01*
G01D02*
X-41522Y-114587D01*
G01D02*
X-41502Y-114966D01*
G01D02*
Y-116966D01*
G01D02*
X-41542Y-117446D01*
G01D02*
X-41662Y-117907D01*
G01D02*
X-41882Y-118326D01*
G01D02*
X-42172Y-118707D01*
G01X-42882Y-112666D02*
X-42392Y-113066D01*
G01D02*
X-41982Y-113546D01*
G01X-42172Y-118707D02*
X-42532Y-119016D01*
G01X-43432Y-112366D02*
X-42882Y-112666D01*
G01X-42532Y-119016D02*
X-43132Y-119357D01*
G01D02*
X-43792Y-119596D01*
G01X-44572Y-115316D02*
X-44632Y-114876D01*
G01D02*
X-44782Y-114466D01*
G01X-41502Y-114946D02*
X-44622D01*
G01X-44572Y-115637D02*
X-41502D01*
G01X-44572Y-116416D02*
Y-115316D01*
G01X-41502Y-116336D02*
X-44572D01*
G01X-44742Y-117276D02*
X-44622Y-116857D01*
G01D02*
X-44572Y-116416D01*
G01X-44672Y-117026D02*
X-41512D01*
G01X-43792Y-119596D02*
X-44472Y-119716D01*
G01X-41132Y-124666D02*
X-44772D01*
G01X-45072Y-112016D02*
X-43432Y-112366D01*
G01X-44782Y-114466D02*
X-45012Y-114096D01*
G01D02*
X-45322Y-113787D01*
G01X-44912Y-114246D02*
X-41602D01*
G01X-45392Y-118046D02*
X-44932Y-117676D01*
G01D02*
X-44742Y-117276D01*
G01X-41612Y-117716D02*
X-44982D01*
G01X-44472Y-119716D02*
X-45172Y-119726D01*
G01D02*
Y-120237D01*
G01D02*
X-40722Y-125116D01*
G01X-45362Y-123966D02*
X-41772D01*
G01X-45322Y-113787D02*
X-45962Y-113496D01*
G01X-41972Y-113557D02*
X-45832D01*
G01X-46472Y-118466D02*
X-45912Y-118316D01*
G01D02*
X-45392Y-118046D01*
G01X-46282Y-118416D02*
X-41942D01*
G01X-46552Y-122576D02*
X-43032D01*
G01X-42402Y-123276D02*
X-45962D01*
G01X-46742Y-111896D02*
X-45072Y-112016D01*
G01X-45962Y-113496D02*
X-46642Y-113336D01*
G01D02*
X-47332Y-113307D01*
G01X-47052Y-118507D02*
X-46472Y-118466D01*
G01X-43662Y-121887D02*
X-47152D01*
G01X-47742Y-121186D02*
X-44302D01*
G01X-48002Y-129626D02*
X-48192Y-129686D01*
G01X-47942Y-132896D02*
X-48122Y-132857D01*
G01X-48192Y-129686D02*
X-48372Y-129776D01*
G01D02*
X-48522Y-129907D01*
G01D02*
X-48652Y-130057D01*
G01D02*
X-48742Y-130236D01*
G01D02*
X-48802Y-130426D01*
G01D02*
X-48822Y-130626D01*
G01X-48832Y-131857D02*
Y-131266D01*
G01D02*
X-45992D01*
G01X-48832Y-130626D02*
Y-131266D01*
G01X-48122Y-132857D02*
X-48292Y-132776D01*
G01D02*
X-48442Y-132666D01*
G01D02*
X-48572Y-132536D01*
G01D02*
X-48682Y-132386D01*
G01D02*
X-48762Y-132216D01*
G01D02*
X-48802Y-132036D01*
G01D02*
X-48822Y-131857D01*
G01X-51592Y-131276D02*
X-51442Y-131316D01*
G01D02*
X-51312Y-131386D01*
G01D02*
X-51182Y-131486D01*
G01D02*
X-51082Y-131616D01*
G01D02*
X-51012Y-131746D01*
G01D02*
X-50972Y-131896D01*
G01D02*
X-50952Y-132057D01*
G01D02*
X-50972Y-132226D01*
G01D02*
X-51022Y-132386D01*
G01D02*
X-51092Y-132536D01*
G01D02*
X-51202Y-132666D01*
G01D02*
X-51332Y-132776D01*
G01D02*
X-51482Y-132846D01*
G01D02*
X-51642Y-132896D01*
G01X-51752Y-131257D02*
X-51592Y-131276D01*
G01X-51642Y-132896D02*
X-51812Y-132916D01*
G01X-53372Y-131266D02*
X-51752D01*
G01X-50952Y-125116D02*
X-54262D01*
G01X-50952Y-129607D02*
X-53502D01*
G01D02*
X-53672Y-129626D01*
G01D02*
X-53832Y-129686D01*
G01D02*
X-53972Y-129776D01*
G01D02*
X-54092Y-129896D01*
G01X-54112Y-130857D02*
X-54002Y-130996D01*
G01D02*
X-53862Y-131107D01*
G01D02*
X-53712Y-131186D01*
G01D02*
X-53542Y-131236D01*
G01D02*
X-53372Y-131257D01*
G01X-51812Y-132916D02*
X-54262D01*
G01X-54092Y-129896D02*
X-54182Y-130036D01*
G01D02*
X-54242Y-130196D01*
G01X-54262Y-130366D02*
X-54242Y-130537D01*
G01D02*
X-54192Y-130707D01*
G01X-54242Y-130196D02*
X-54262Y-130366D01*
G01X-54192Y-130707D02*
X-54112Y-130857D01*
G01X-26452Y-130066D02*
X-26612Y-129907D01*
G01D02*
X-26802Y-129776D01*
G01X-26322Y-130257D02*
X-26452Y-130066D01*
G01X-26692Y-132666D02*
X-26542Y-132526D01*
G01D02*
X-26402Y-132376D01*
G01D02*
X-26292Y-132196D01*
G01X-26802Y-129776D02*
X-27012Y-129686D01*
G01D02*
X-27222Y-129626D01*
G01D02*
X-27452Y-129607D01*
G01X-27472Y-132916D02*
X-27262Y-132896D01*
G01D02*
X-27062Y-132857D01*
G01D02*
X-26872Y-132776D01*
G01D02*
X-26692Y-132666D01*
G01X-27452Y-129607D02*
X-28192D01*
G01D02*
X-28412Y-129626D01*
G01X-28612Y-132836D02*
X-28392Y-132896D01*
G01D02*
X-28172Y-132916D01*
G01D02*
X-27472D01*
G01X-28412Y-129626D02*
X-28622Y-129686D01*
G01D02*
X-28822Y-129776D01*
G01D02*
X-29012Y-129907D01*
G01D02*
X-29162Y-130057D01*
G01D02*
X-29292Y-130236D01*
G01D02*
X-29382Y-130446D01*
G01D02*
X-29442Y-130657D01*
G01D02*
X-29462Y-130876D01*
G01D02*
Y-131626D01*
G01D02*
X-29442Y-131846D01*
G01D02*
X-29382Y-132066D01*
G01D02*
X-29292Y-132266D01*
G01D02*
X-29162Y-132457D01*
G01D02*
X-29002Y-132616D01*
G01D02*
X-28822Y-132746D01*
G01D02*
X-28612Y-132836D01*
G01X-29692Y-125087D02*
X-28792Y-124946D01*
G01X-30602Y-125116D02*
X-29692Y-125087D01*
G01X-33352Y-125116D02*
X-30602D01*
G01X-33542Y-129626D02*
X-33332Y-129607D01*
G01D02*
X-31582D01*
G01Y-132916D02*
X-33332D01*
G01D02*
X-33522Y-132896D01*
G01D02*
X-33702Y-132846D01*
G01X-34382Y-125057D02*
X-33352Y-125116D01*
G01X-33752Y-129686D02*
X-33542Y-129626D01*
G01X-34102Y-129926D02*
X-33942Y-129786D01*
G01D02*
X-33752Y-129686D01*
G01X-34422Y-130696D02*
X-34402Y-130486D01*
G01D02*
X-34342Y-130276D01*
G01D02*
X-34242Y-130086D01*
G01D02*
X-34102Y-129926D01*
G01X-34422Y-131826D02*
Y-130696D01*
G01X-33702Y-132846D02*
X-33882Y-132766D01*
G01D02*
X-34032Y-132657D01*
G01D02*
X-34162Y-132526D01*
G01D02*
X-34272Y-132366D01*
G01D02*
X-34352Y-132196D01*
G01D02*
X-34402Y-132016D01*
G01D02*
X-34422Y-131826D01*
G01X-35402Y-124887D02*
X-34382Y-125057D01*
G01X-37022Y-129607D02*
Y-132916D01*
G01X-39612D02*
Y-129607D01*
G01D02*
X-40132D01*
G01D02*
X-41542Y-132916D01*
G01D02*
X-43082Y-129607D01*
G01D02*
X-43632D01*
G01D02*
Y-132916D01*
G01X-40722Y-125116D02*
X-44382D01*
G01X-45992Y-129607D02*
X-47802D01*
G01D02*
X-48002Y-129626D01*
G01X-45992Y-132916D02*
X-47762D01*
G01D02*
X-47942Y-132896D01*
G01X-25652Y-114396D02*
X-25932Y-113876D01*
G01X-25442Y-115557D02*
X-25492Y-114966D01*
G01D02*
X-25652Y-114396D01*
G01X-25492Y-122246D02*
X-25442Y-121696D01*
G01D02*
Y-115557D01*
G01X-25672Y-122766D02*
X-25492Y-122246D01*
G01X-25962Y-123236D02*
X-25672Y-122766D01*
G01X-25932Y-113876D02*
X-26312Y-113426D01*
G01X-26352Y-123626D02*
X-25962Y-123236D01*
G01X1228Y-114136D02*
X1248Y-114346D01*
G01X1238Y-114246D02*
X4568D01*
G01X4558Y-114946D02*
X1248D01*
G01Y-115637D02*
X4558D01*
G01Y-116336D02*
X1248D01*
G01Y-117026D02*
X4558D01*
G01Y-117716D02*
X1248D01*
G01Y-118416D02*
X4558D01*
G01Y-119107D02*
X1248D01*
G01Y-119807D02*
X4558D01*
G01Y-120496D02*
X1248D01*
G01Y-121186D02*
X4558D01*
G01Y-121887D02*
X1248D01*
G01Y-122576D02*
X4558D01*
G01Y-123276D02*
X1248D01*
G01Y-123966D02*
X4558D01*
G01Y-124666D02*
X1248D01*
G01Y-114346D02*
Y-125116D01*
G01X5348Y-111896D02*
X1018D01*
G01X448Y-113546D02*
X658Y-113576D01*
G01D02*
X848Y-113657D01*
G01D02*
X1018Y-113776D01*
G01D02*
X1138Y-113946D01*
G01D02*
X1228Y-114136D01*
G01X5288Y-113557D02*
X528D01*
G01X-1212Y-113576D02*
X-992Y-113546D01*
G01D02*
X448D01*
G01X1018Y-111896D02*
X-1952Y-111987D01*
G01X-1582Y-113787D02*
X-1402Y-113657D01*
G01D02*
X-1212Y-113576D01*
G01X-1822Y-114376D02*
X-1792Y-114157D01*
G01D02*
X-1712Y-113957D01*
G01D02*
X-1582Y-113787D01*
G01X-1822Y-125116D02*
Y-114376D01*
G01X-3342Y-112166D02*
X7808D01*
G01X-4892Y-112866D02*
X9388D01*
G01X-1952Y-111987D02*
X-4892Y-112366D01*
G01X-1072Y-113557D02*
X-4892D01*
G01Y-114246D02*
X-1802D01*
G01X-4892Y-115637D02*
X-1822D01*
G01Y-114946D02*
X-4892D01*
G01X-1822Y-116336D02*
X-4892D01*
G01Y-117026D02*
X-1822D01*
G01Y-117716D02*
X-4892D01*
G01Y-118416D02*
X-1822D01*
G01X-4892Y-119807D02*
X-1822D01*
G01Y-119107D02*
X-4892D01*
G01X-1822Y-120496D02*
X-4892D01*
G01Y-121186D02*
X-1822D01*
G01Y-121887D02*
X-4892D01*
G01X-1822Y-123276D02*
X-4892D01*
G01Y-122576D02*
X-1822D01*
G01X-4892Y-123966D02*
X-1822D01*
G01Y-124666D02*
X-4892D01*
G01Y-112366D02*
Y-125116D01*
G01X-8432D02*
Y-112366D01*
G01D02*
X-11742D01*
G01Y-112866D02*
X-8432D01*
G01Y-113557D02*
X-11742D01*
G01Y-114246D02*
X-8432D01*
G01X-11742Y-115637D02*
X-8432D01*
G01Y-114946D02*
X-11742D01*
G01X-8432Y-116336D02*
X-11742D01*
G01Y-112366D02*
Y-116776D01*
G01D02*
X-11772Y-116976D01*
G01D02*
X-11852Y-117166D01*
G01X-11792Y-117026D02*
X-8432D01*
G01X-11852Y-117166D02*
X-11972Y-117336D01*
G01D02*
X-12132Y-117457D01*
G01D02*
X-12322Y-117536D01*
G01X-12362Y-119246D02*
X-12152Y-119326D01*
G01D02*
X-11982Y-119457D01*
G01D02*
X-11852Y-119626D01*
G01D02*
X-11772Y-119826D01*
G01X-8432Y-119807D02*
X-11782D01*
G01X-11772Y-119826D02*
X-11742Y-120046D01*
G01Y-120496D02*
X-8432D01*
G01Y-121186D02*
X-11742D01*
G01Y-121887D02*
X-8432D01*
G01X-11742Y-123276D02*
X-8432D01*
G01Y-122576D02*
X-11742D01*
G01X-8432Y-123966D02*
X-11742D01*
G01Y-124666D02*
X-8432D01*
G01X-11742Y-120046D02*
Y-125116D01*
G01X-12322Y-117536D02*
X-12522Y-117557D01*
G01X-12572Y-119216D02*
X-12362Y-119246D01*
G01X-12522Y-117557D02*
X-18022D01*
G01D02*
X-18232Y-117536D01*
G01X-18252Y-119237D02*
X-18052Y-119216D01*
G01D02*
X-12572D01*
G01X-18232Y-117536D02*
X-18422Y-117457D01*
G01D02*
X-18592Y-117326D01*
G01D02*
X-18722Y-117157D01*
G01D02*
X-18802Y-116966D01*
G01D02*
X-18832Y-116757D01*
G01D02*
Y-112366D01*
G01X-18442Y-119316D02*
X-18252Y-119237D01*
G01X-18802Y-119796D02*
X-18722Y-119607D01*
G01D02*
X-18602Y-119446D01*
G01D02*
X-18442Y-119316D01*
G01X-18832Y-119996D02*
X-18802Y-119796D01*
G01X-18832Y-125116D02*
Y-119996D01*
G01X-22132Y-112866D02*
X-18832D01*
G01Y-112366D02*
X-22132D01*
G01X-18832Y-113557D02*
X-22132D01*
G01Y-114246D02*
X-18832D01*
G01Y-114946D02*
X-22132D01*
G01Y-115637D02*
X-18832D01*
G01Y-116336D02*
X-22132D01*
G01Y-117026D02*
X-18772D01*
G01X-22132Y-117716D02*
X-8432D01*
G01Y-118416D02*
X-22132D01*
G01X-18802Y-119807D02*
X-22132D01*
G01Y-119107D02*
X-8432D01*
G01X-22132Y-120496D02*
X-18832D01*
G01Y-121186D02*
X-22132D01*
G01Y-121887D02*
X-18832D01*
G01Y-122576D02*
X-22132D01*
G01Y-123276D02*
X-18832D01*
G01Y-123966D02*
X-22132D01*
G01Y-124666D02*
X-18832D01*
G01X-22132Y-112366D02*
Y-125116D01*
G01X10648Y-114607D02*
X10488Y-114076D01*
G01D02*
X10208Y-113596D01*
G01D02*
X9828Y-113187D01*
G01D02*
X9178Y-112707D01*
G01D02*
X8448Y-112346D01*
G01D02*
X7668Y-112126D01*
G01X7338Y-113987D02*
X7498Y-114226D01*
G01D02*
X7598Y-114507D01*
G01X7508Y-114246D02*
X10538D01*
G01X7598Y-114507D02*
X7628Y-114807D01*
G01X10678Y-114946D02*
X7628D01*
G01Y-115637D02*
X10698D01*
G01Y-116336D02*
X7628D01*
G01Y-117026D02*
X10698D01*
G01Y-117716D02*
X7628D01*
G01Y-118416D02*
X10698D01*
G01Y-119107D02*
X7628D01*
G01Y-119807D02*
X10698D01*
G01Y-120496D02*
X7628D01*
G01Y-121186D02*
X10698D01*
G01Y-121887D02*
X7628D01*
G01Y-122576D02*
X10698D01*
G01Y-123276D02*
X7628D01*
G01Y-123966D02*
X10698D01*
G01Y-124666D02*
X7628D01*
G01Y-114807D02*
Y-125116D01*
G01X7668Y-112126D02*
X6508Y-111957D01*
G01X6638Y-113616D02*
X7118Y-113787D01*
G01D02*
X7338Y-113987D01*
G01X6128Y-113546D02*
X6638Y-113616D01*
G01X10168Y-113557D02*
X6208D01*
G01X6508Y-111957D02*
X5348Y-111896D01*
G01X4798Y-113787D02*
X4968Y-113657D01*
G01D02*
X5158Y-113576D01*
G01D02*
X5368Y-113546D01*
G01D02*
X6128D01*
G01X4668Y-113946D02*
X4798Y-113787D01*
G01X4558Y-114357D02*
X4588Y-114146D01*
G01D02*
X4668Y-113946D01*
G01X4558Y-125116D02*
Y-114357D01*
G01X-21032Y-132916D02*
X-23312Y-129607D01*
G01D02*
X-23792D01*
G01D02*
Y-132916D01*
G01X-26152Y-130907D02*
X-26172Y-130676D01*
G01D02*
X-26232Y-130466D01*
G01D02*
X-26322Y-130257D01*
G01X-26152Y-131596D02*
Y-130907D01*
G01X-26172Y-131807D02*
X-26152Y-131596D01*
G01X-26292Y-132196D02*
X-26212Y-132007D01*
G01D02*
X-26172Y-131807D01*
G01X2488Y-130066D02*
X2358Y-130246D01*
G01D02*
X2268Y-130457D01*
G01D02*
X2208Y-130676D01*
G01D02*
X2188Y-130896D01*
G01X2198D02*
Y-131607D01*
G01D02*
X2218Y-131807D01*
G01D02*
X2258Y-132007D01*
G01D02*
X2338Y-132196D01*
G01D02*
X2448Y-132376D01*
G01X1248Y-125116D02*
X4558D01*
G01X68Y-129607D02*
X-1352D01*
G01D02*
Y-132916D01*
G01X-2762Y-129607D02*
X-1352D01*
G01X-4892Y-125116D02*
X-1822D01*
G01X-6452Y-129607D02*
X-4652D01*
G01Y-132916D02*
X-6422D01*
G01X-7122Y-129846D02*
X-6972Y-129746D01*
G01D02*
X-6812Y-129666D01*
G01D02*
X-6632Y-129626D01*
G01D02*
X-6452Y-129607D01*
G01X-6422Y-132916D02*
X-6612Y-132896D01*
G01D02*
X-6792Y-132857D01*
G01D02*
X-6962Y-132776D01*
G01D02*
X-7112Y-132666D01*
G01X-7432Y-130286D02*
X-7352Y-130126D01*
G01D02*
X-7252Y-129976D01*
G01D02*
X-7122Y-129846D01*
G01X-7492Y-130646D02*
X-7472Y-130466D01*
G01D02*
X-7432Y-130286D01*
G01X-7492Y-131846D02*
Y-130646D01*
G01X-7112Y-132666D02*
X-7242Y-132536D01*
G01D02*
X-7352Y-132376D01*
G01D02*
X-7432Y-132216D01*
G01D02*
X-7472Y-132036D01*
G01D02*
X-7492Y-131846D01*
G01X-9612Y-129607D02*
Y-131607D01*
G01X-9622D02*
X-9642Y-131836D01*
G01D02*
X-9702Y-132057D01*
G01D02*
X-9802Y-132257D01*
G01D02*
X-9932Y-132446D01*
G01D02*
X-10092Y-132607D01*
G01D02*
X-10272Y-132736D01*
G01D02*
X-10482Y-132836D01*
G01D02*
X-10702Y-132896D01*
G01D02*
X-10932Y-132916D01*
G01D02*
X-11452D01*
G01X-11742Y-125116D02*
X-8432D01*
G01X-11452Y-132916D02*
X-11672Y-132896D01*
G01D02*
X-11872Y-132846D01*
G01D02*
X-12072Y-132746D01*
G01D02*
X-12252Y-132626D01*
G01X-12682Y-131676D02*
Y-129607D01*
G01X-12252Y-132626D02*
X-12402Y-132476D01*
G01D02*
X-12522Y-132296D01*
G01D02*
X-12622Y-132096D01*
G01D02*
X-12672Y-131896D01*
G01D02*
X-12692Y-131676D01*
G01X-15692Y-129776D02*
X-15512Y-129907D01*
G01D02*
X-15352Y-130066D01*
G01D02*
X-15222Y-130246D01*
G01D02*
X-15132Y-130457D01*
G01D02*
X-15072Y-130676D01*
G01D02*
X-15052Y-130896D01*
G01D02*
Y-131607D01*
G01D02*
X-15072Y-131807D01*
G01D02*
X-15112Y-132007D01*
G01D02*
X-15192Y-132196D01*
G01D02*
X-15302Y-132376D01*
G01D02*
X-15432Y-132536D01*
G01D02*
X-15592Y-132666D01*
G01X-16342Y-129607D02*
X-16122Y-129626D01*
G01D02*
X-15902Y-129686D01*
G01D02*
X-15692Y-129776D01*
G01X-15592Y-132666D02*
X-15772Y-132776D01*
G01D02*
X-15962Y-132857D01*
G01D02*
X-16162Y-132896D01*
G01D02*
X-16362Y-132916D01*
G01X-18122Y-129607D02*
X-16342D01*
G01X-16362Y-132916D02*
X-18122D01*
G01D02*
Y-129607D01*
G01X-20482D02*
Y-132916D01*
G01D02*
X-21032D01*
G01X-22132Y-125116D02*
X-18832D01*
G01X9898Y-129607D02*
X10058Y-129626D01*
G01D02*
X10208Y-129666D01*
G01D02*
X10338Y-129737D01*
G01D02*
X10468Y-129836D01*
G01D02*
X10568Y-129966D01*
G01D02*
X10638Y-130096D01*
G01X10628Y-130737D02*
X10558Y-130886D01*
G01D02*
X10448Y-131016D01*
G01D02*
X10318Y-131126D01*
G01D02*
X10168Y-131196D01*
G01D02*
X10008Y-131246D01*
G01D02*
X9838Y-131266D01*
G01D02*
X9558D01*
G01X10458Y-132916D02*
X9558Y-131266D01*
G01X7628Y-125116D02*
X10698D01*
G01X7628Y-129607D02*
X9898D01*
G01X9558Y-131266D02*
X7628D01*
G01Y-129607D02*
Y-131266D01*
G01D02*
Y-132916D01*
G01X5498Y-130886D02*
X5478Y-130666D01*
G01X5498Y-131616D02*
Y-130886D01*
G01X5478Y-131846D02*
X5498Y-131616D01*
G01X5478Y-130666D02*
X5418Y-130446D01*
G01D02*
X5328Y-130246D01*
G01D02*
X5198Y-130066D01*
G01D02*
X5038Y-129907D01*
G01D02*
X4858Y-129776D01*
G01X4848Y-132746D02*
X5038Y-132616D01*
G01D02*
X5198Y-132457D01*
G01D02*
X5328Y-132266D01*
G01D02*
X5418Y-132057D01*
G01D02*
X5478Y-131846D01*
G01X4858Y-129776D02*
X4658Y-129686D01*
G01D02*
X4438Y-129626D01*
G01D02*
X4218Y-129607D01*
G01X4198Y-132916D02*
X4428Y-132896D01*
G01D02*
X4638Y-132836D01*
G01D02*
X4848Y-132746D01*
G01X4218Y-129607D02*
X3478D01*
G01D02*
X3258Y-129626D01*
G01D02*
X3038Y-129686D01*
G01X3108Y-132857D02*
X3308Y-132896D01*
G01D02*
X3508Y-132916D01*
G01D02*
X4198D01*
G01X3038Y-129686D02*
X2838Y-129776D01*
G01D02*
X2648Y-129907D01*
G01D02*
X2488Y-130066D01*
G01X2448Y-132376D02*
X2578Y-132536D01*
G01D02*
X2738Y-132666D01*
G01D02*
X2918Y-132776D01*
G01D02*
X3108Y-132857D01*
G01X10698Y-115157D02*
X10648Y-114607D01*
G01X10698Y-125116D02*
Y-115157D01*
G01X10638Y-130096D02*
X10678Y-130246D01*
G01D02*
X10698Y-130407D01*
G01D02*
X10678Y-130576D01*
G01D02*
X10628Y-130737D01*
G54D13*
X5000Y223090D03*
X213090Y-5000D03*
X250590Y220590D03*
G54D23*
G01X119100Y98000D02*
X111400D01*
G01X129510Y114000D02*
X130840Y112660D01*
Y108660D01*
G01X122500Y104000D02*
X123170Y104660D01*
Y108660D01*
X123160D01*
G01X125720D02*
Y98820D01*
X124900Y98000D01*
G01X130500Y104000D02*
X130000D01*
X128280Y105720D01*
Y108660D01*
G01X130840Y124340D02*
Y120330D01*
X129510Y119000D01*
G54D14*
X111400Y98000D03*
X105600D03*
G54D24*
G01X-100332Y-156016D02*
Y-81016D01*
X444668D01*
Y-156016D01*
X-100332D01*
G01X-48482Y-118511D02*
G03I-355J0D01*
G01Y-119931D02*
G03I-355J0D01*
G01Y-119111D02*
G03I-355J0D01*
G01Y-119811D02*
G03I-355J0D01*
G01X-47992Y-120501D02*
G03I-355J0D01*
G01X-49422Y-111901D02*
G03I-354J0D01*
G01X-49832Y-113311D02*
G03I-355J0D01*
G01X-50032Y-113341D02*
G03I-355J0D01*
G01X-50212Y-113421D02*
G03I-355J0D01*
G01X-50382Y-113541D02*
G03I-355J0D01*
G01X-50502Y-113701D02*
G03I-355J0D01*
G01X-50392Y-113561D02*
G03I-355J0D01*
G01X-50582Y-113891D02*
G03I-355J0D01*
G01X-50602Y-114091D02*
G03I-355J0D01*
G01Y-114951D02*
G03I-355J0D01*
G01Y-114251D02*
G03I-355J0D01*
G01Y-115641D02*
G03I-355J0D01*
G01Y-116341D02*
G03I-355J0D01*
G01Y-117031D02*
G03I-355J0D01*
G01Y-117721D02*
G03I-355J0D01*
G01Y-119111D02*
G03I-355J0D01*
G01Y-118421D02*
G03I-355J0D01*
G01Y-119811D02*
G03I-355J0D01*
G01Y-120501D02*
G03I-355J0D01*
G01Y-121191D02*
G03I-355J0D01*
G01Y-122581D02*
G03I-355J0D01*
G01Y-121891D02*
G03I-355J0D01*
G01Y-123281D02*
G03I-355J0D01*
G01Y-123971D02*
G03I-355J0D01*
G01Y-124671D02*
G03I-355J0D01*
G01X-51672Y-112041D02*
G03I-354J0D01*
G01X-52572Y-112171D02*
G03I-354J0D01*
G01X-53912Y-112371D02*
G03I-355J0D01*
G01D02*
G03I-355J0D01*
G01Y-112871D02*
G03I-355J0D01*
G01Y-113561D02*
G03I-355J0D01*
G01Y-114251D02*
G03I-355J0D01*
G01Y-115641D02*
G03I-355J0D01*
G01Y-114951D02*
G03I-355J0D01*
G01Y-116341D02*
G03I-355J0D01*
G01Y-117031D02*
G03I-355J0D01*
G01Y-117721D02*
G03I-355J0D01*
G01Y-118421D02*
G03I-355J0D01*
G01Y-119811D02*
G03I-355J0D01*
G01Y-119111D02*
G03I-355J0D01*
G01Y-120501D02*
G03I-355J0D01*
G01Y-121191D02*
G03I-355J0D01*
G01Y-121891D02*
G03I-355J0D01*
G01Y-123281D02*
G03I-355J0D01*
G01Y-122581D02*
G03I-355J0D01*
G01Y-123971D02*
G03I-355J0D01*
G01Y-124671D02*
G03I-355J0D01*
G01X-26482Y-112991D02*
G03I-355J0D01*
G01X-26462Y-124071D02*
G03I-355J0D01*
G01X-26362Y-123971D02*
G03I-355J0D01*
G01X-27062Y-112641D02*
G03I-355J0D01*
G01X-26692Y-112871D02*
G03I-355J0D01*
G01X-26992Y-124421D02*
G03I-355J0D01*
G01X-28262Y-112171D02*
G03I-355J0D01*
G01X-27692Y-112371D02*
G03I-355J0D01*
G01X-28342Y-114691D02*
G03I-355J0D01*
G01X-28202Y-115111D02*
G03I-355J0D01*
G01X-28162Y-115561D02*
G03I-355J0D01*
G01Y-115641D02*
G03I-355J0D01*
G01X-28252Y-114951D02*
G03I-355J0D01*
G01X-28162Y-116341D02*
G03I-355J0D01*
G01Y-117031D02*
G03I-355J0D01*
G01Y-117721D02*
G03I-355J0D01*
G01Y-118421D02*
G03I-355J0D01*
G01Y-119811D02*
G03I-355J0D01*
G01Y-119111D02*
G03I-355J0D01*
G01Y-120501D02*
G03I-355J0D01*
G01Y-121231D02*
G03I-355J0D01*
G01Y-121191D02*
G03I-355J0D01*
G01X-28222Y-121811D02*
G03I-354J0D01*
G01X-28252Y-121891D02*
G03I-355J0D01*
G01X-27572Y-124691D02*
G03I-354J0D01*
G01X-27522Y-124671D02*
G03I-354J0D01*
G01X-28502Y-112091D02*
G03I-355J0D01*
G01X-28912Y-114021D02*
G03I-355J0D01*
G01X-28582Y-114321D02*
G03I-355J0D01*
G01X-28662Y-114251D02*
G03I-355J0D01*
G01X-28412Y-122371D02*
G03I-355J0D01*
G01X-28712Y-122881D02*
G03I-355J0D01*
G01X-29182Y-123251D02*
G03I-355J0D01*
G01X-28542Y-122581D02*
G03I-355J0D01*
G01X-29352Y-111931D02*
G03I-355J0D01*
G01X-29822Y-113471D02*
G03I-354J0D01*
G01X-29342Y-113701D02*
G03I-355J0D01*
G01X-29632Y-113561D02*
G03I-355J0D01*
G01X-29242Y-123281D02*
G03I-355J0D01*
G01X-29712Y-123511D02*
G03I-355J0D01*
G01X-30212Y-111901D02*
G03I-355J0D01*
G01X-30882Y-113311D02*
G03I-355J0D01*
G01X-30342Y-113341D02*
G03I-355J0D01*
G01X-30282Y-123671D02*
G03I-355J0D01*
G01X-30882Y-123711D02*
G03I-355J0D01*
G01X-32332Y-113311D02*
G03I-355J0D01*
G01X-32492Y-123711D02*
G03I-355J0D01*
G01X-33322Y-111901D02*
G03I-354J0D01*
G01X-33452Y-113501D02*
G03I-355J0D01*
G01X-32902Y-113351D02*
G03I-355J0D01*
G01X-32972Y-123661D02*
G03I-354J0D01*
G01X-33442Y-123511D02*
G03I-355J0D01*
G01X-34122Y-111931D02*
G03I-355J0D01*
G01X-33952Y-113771D02*
G03I-355J0D01*
G01X-33552Y-113561D02*
G03I-355J0D01*
G01X-33862Y-123281D02*
G03I-355J0D01*
G01X-34222Y-122961D02*
G03I-354J0D01*
G01X-33852Y-123281D02*
G03I-355J0D01*
G01X-34922Y-112071D02*
G03I-354J0D01*
G01X-34382Y-114141D02*
G03I-355J0D01*
G01D02*
G03I-355J0D01*
G01X-34482Y-114251D02*
G03I-355J0D01*
G01X-34852Y-114801D02*
G03I-355J0D01*
G01X-34652Y-114451D02*
G03I-355J0D01*
G01X-35012Y-115601D02*
G03I-355J0D01*
G01X-34972Y-115191D02*
G03I-354J0D01*
G01X-34902Y-114951D02*
G03I-355J0D01*
G01X-35012Y-115641D02*
G03I-355J0D01*
G01Y-116341D02*
G03I-355J0D01*
G01Y-117031D02*
G03I-355J0D01*
G01Y-118041D02*
G03I-355J0D01*
G01D02*
G03I-355J0D01*
G01D02*
G03I-355J0D01*
G01Y-117721D02*
G03I-355J0D01*
G01Y-118421D02*
G03I-355J0D01*
G01Y-119111D02*
G03I-355J0D01*
G01Y-119811D02*
G03I-355J0D01*
G01Y-120501D02*
G03I-355J0D01*
G01Y-121231D02*
G03I-355J0D01*
G01Y-121191D02*
G03I-355J0D01*
G01X-34832Y-122191D02*
G03I-355J0D01*
G01X-34982Y-121721D02*
G03I-355J0D01*
G01X-34922Y-121891D02*
G03I-354J0D01*
G01X-34572Y-122611D02*
G03I-354J0D01*
G01X-34592Y-122581D02*
G03I-355J0D01*
G01X-35212Y-112171D02*
G03I-355J0D01*
G01X-35682Y-112331D02*
G03I-355J0D01*
G01X-35732Y-124691D02*
G03I-355J0D01*
G01X-35792Y-124671D02*
G03I-355J0D01*
G01X-36392Y-112721D02*
G03I-355J0D01*
G01X-36572Y-112871D02*
G03I-354J0D01*
G01X-36382Y-124401D02*
G03I-355J0D01*
G01X-37022Y-113231D02*
G03I-354J0D01*
G01X-37392Y-113541D02*
G03I-355J0D01*
G01X-37682Y-113921D02*
G03I-355J0D01*
G01X-37402Y-113561D02*
G03I-355J0D01*
G01X-37682Y-123361D02*
G03I-355J0D01*
G01X-37732Y-123281D02*
G03I-355J0D01*
G01X-37372Y-123731D02*
G03I-355J0D01*
G01X-36982Y-124021D02*
G03I-355J0D01*
G01X-37052Y-123971D02*
G03I-355J0D01*
G01X-37912Y-114341D02*
G03I-355J0D01*
G01X-38042Y-114801D02*
G03I-355J0D01*
G01X-37912Y-114341D02*
G03I-355J0D01*
G01X-37862Y-114251D02*
G03I-355J0D01*
G01X-38082Y-115281D02*
G03I-355J0D01*
G01X-38052Y-114951D02*
G03I-355J0D01*
G01X-38082Y-115641D02*
G03I-355J0D01*
G01Y-116341D02*
G03I-355J0D01*
G01Y-117031D02*
G03I-355J0D01*
G01Y-118041D02*
G03I-355J0D01*
G01D02*
G03I-355J0D01*
G01D02*
G03I-355J0D01*
G01Y-117721D02*
G03I-355J0D01*
G01Y-118421D02*
G03I-355J0D01*
G01Y-119111D02*
G03I-355J0D01*
G01Y-119811D02*
G03I-355J0D01*
G01Y-120501D02*
G03I-355J0D01*
G01Y-121191D02*
G03I-355J0D01*
G01Y-121971D02*
G03I-355J0D01*
G01X-38052Y-122461D02*
G03I-355J0D01*
G01X-38082Y-121891D02*
G03I-355J0D01*
G01X-37912Y-122931D02*
G03I-355J0D01*
G01X-38012Y-122581D02*
G03I-355J0D01*
G01X-40782Y-124671D02*
G03I-355J0D01*
G01X-41632Y-113551D02*
G03I-355J0D01*
G01X-41412Y-113861D02*
G03I-355J0D01*
G01X-41622Y-113561D02*
G03I-355J0D01*
G01X-41262Y-114211D02*
G03I-355J0D01*
G01X-41172Y-114591D02*
G03I-354J0D01*
G01X-41152Y-114971D02*
G03I-355J0D01*
G01X-41252Y-114251D02*
G03I-355J0D01*
G01X-41152Y-114951D02*
G03I-355J0D01*
G01Y-115641D02*
G03I-355J0D01*
G01Y-116341D02*
G03I-355J0D01*
G01Y-116971D02*
G03I-355J0D01*
G01X-41192Y-117451D02*
G03I-355J0D01*
G01X-41162Y-117031D02*
G03I-355J0D01*
G01X-41312Y-117911D02*
G03I-355J0D01*
G01X-41262Y-117721D02*
G03I-355J0D01*
G01X-41532Y-118331D02*
G03I-355J0D01*
G01X-41822Y-118711D02*
G03I-354J0D01*
G01X-41592Y-118421D02*
G03I-355J0D01*
G01X-41422Y-123971D02*
G03I-354J0D01*
G01X-42532Y-112671D02*
G03I-355J0D01*
G01X-42042Y-113071D02*
G03I-355J0D01*
G01X-42292Y-112871D02*
G03I-355J0D01*
G01X-42182Y-119021D02*
G03I-355J0D01*
G01X-42782Y-119361D02*
G03I-355J0D01*
G01X-42342Y-119111D02*
G03I-355J0D01*
G01X-42682Y-122581D02*
G03I-355J0D01*
G01X-42052Y-123281D02*
G03I-355J0D01*
G01X-43082Y-112371D02*
G03I-355J0D01*
G01X-43442Y-119601D02*
G03I-355J0D01*
G01X-43312Y-121891D02*
G03I-355J0D01*
G01X-44002Y-112171D02*
G03I-355J0D01*
G01X-44432Y-114471D02*
G03I-355J0D01*
G01X-44222Y-115321D02*
G03I-354J0D01*
G01X-44282Y-114881D02*
G03I-355J0D01*
G01X-44272Y-114951D02*
G03I-354J0D01*
G01X-44222Y-115641D02*
G03I-354J0D01*
G01Y-116421D02*
G03I-354J0D01*
G01Y-116341D02*
G03I-354J0D01*
G01X-44392Y-117281D02*
G03I-355J0D01*
G01X-44272Y-116861D02*
G03I-354J0D01*
G01X-44322Y-117031D02*
G03I-354J0D01*
G01X-44122Y-119721D02*
G03I-355J0D01*
G01X-43952Y-121191D02*
G03I-355J0D01*
G01X-44422Y-124671D02*
G03I-354J0D01*
G01X-44722Y-112021D02*
G03I-354J0D01*
G01X-44972Y-113791D02*
G03I-354J0D01*
G01X-44562Y-114251D02*
G03I-355J0D01*
G01X-44662Y-114101D02*
G03I-355J0D01*
G01X-45042Y-118051D02*
G03I-355J0D01*
G01X-44582Y-117681D02*
G03I-355J0D01*
G01X-44632Y-117721D02*
G03I-355J0D01*
G01X-44822Y-119731D02*
G03I-354J0D01*
G01Y-119811D02*
G03I-354J0D01*
G01Y-120241D02*
G03I-354J0D01*
G01X-44582Y-120501D02*
G03I-355J0D01*
G01X-45012Y-123971D02*
G03I-355J0D01*
G01X-45612Y-113501D02*
G03I-355J0D01*
G01X-45482Y-113561D02*
G03I-355J0D01*
G01X-46122Y-118471D02*
G03I-355J0D01*
G01X-45562Y-118321D02*
G03I-355J0D01*
G01X-45932Y-118421D02*
G03I-355J0D01*
G01X-46202Y-122581D02*
G03I-355J0D01*
G01X-45612Y-123281D02*
G03I-355J0D01*
G01X-46392Y-111901D02*
G03I-355J0D01*
G01X-46292Y-113341D02*
G03I-355J0D01*
G01X-46982Y-113311D02*
G03I-355J0D01*
G01X-46702Y-118511D02*
G03I-355J0D01*
G01X-46802Y-121891D02*
G03I-355J0D01*
G01X-47392Y-121191D02*
G03I-355J0D01*
G01X-47842Y-129691D02*
G03I-355J0D01*
G01X-47942Y-132781D02*
G03I-355J0D01*
G01X-48022Y-129781D02*
G03I-354J0D01*
G01X-48172Y-129911D02*
G03I-354J0D01*
G01X-48302Y-130061D02*
G03I-355J0D01*
G01X-48392Y-130241D02*
G03I-355J0D01*
G01X-48452Y-130431D02*
G03I-355J0D01*
G01X-48472Y-130631D02*
G03I-354J0D01*
G01X-48482D02*
G03I-355J0D01*
G01X-48472Y-131861D02*
G03I-354J0D01*
G01X-48482D02*
G03I-355J0D01*
G01Y-131271D02*
G03I-355J0D01*
G01D02*
G03I-355J0D01*
G01X-48092Y-132671D02*
G03I-355J0D01*
G01X-48222Y-132541D02*
G03I-354J0D01*
G01X-48332Y-132391D02*
G03I-355J0D01*
G01X-48412Y-132221D02*
G03I-355J0D01*
G01X-48452Y-132041D02*
G03I-355J0D01*
G01X-50602Y-125121D02*
G03I-355J0D01*
G01Y-129611D02*
G03I-355J0D01*
G01X-51242Y-131281D02*
G03I-355J0D01*
G01X-51092Y-131321D02*
G03I-355J0D01*
G01X-50962Y-131391D02*
G03I-355J0D01*
G01X-50832Y-131491D02*
G03I-355J0D01*
G01X-50732Y-131621D02*
G03I-355J0D01*
G01X-50662Y-131751D02*
G03I-355J0D01*
G01X-50622Y-131901D02*
G03I-355J0D01*
G01X-50602Y-132061D02*
G03I-355J0D01*
G01X-50622Y-132231D02*
G03I-355J0D01*
G01X-50672Y-132391D02*
G03I-354J0D01*
G01X-50742Y-132541D02*
G03I-355J0D01*
G01X-50852Y-132671D02*
G03I-355J0D01*
G01X-50982Y-132781D02*
G03I-355J0D01*
G01X-51132Y-132851D02*
G03I-355J0D01*
G01X-51292Y-132901D02*
G03I-355J0D01*
G01X-51402Y-131271D02*
G03I-355J0D01*
G01Y-131261D02*
G03I-355J0D01*
G01X-51462Y-132921D02*
G03I-355J0D01*
G01X-53022Y-131261D02*
G03I-355J0D01*
G01Y-131271D02*
G03I-355J0D01*
G01X-53912Y-125121D02*
G03I-355J0D01*
G01X-53152Y-129611D02*
G03I-355J0D01*
G01X-53322Y-129631D02*
G03I-355J0D01*
G01X-53482Y-129691D02*
G03I-355J0D01*
G01X-53622Y-129781D02*
G03I-355J0D01*
G01X-53742Y-129901D02*
G03I-355J0D01*
G01X-53832Y-130041D02*
G03I-355J0D01*
G01X-53892Y-130201D02*
G03I-355J0D01*
G01X-53912Y-130371D02*
G03I-355J0D01*
G01X-53892Y-130541D02*
G03I-355J0D01*
G01X-53842Y-130711D02*
G03I-355J0D01*
G01X-53762Y-130861D02*
G03I-355J0D01*
G01X-53652Y-131001D02*
G03I-355J0D01*
G01X-53512Y-131111D02*
G03I-355J0D01*
G01X-53362Y-131191D02*
G03I-355J0D01*
G01X-53192Y-131241D02*
G03I-355J0D01*
G01X-53912Y-132921D02*
G03I-355J0D01*
G01X-26262Y-129911D02*
G03I-355J0D01*
G01X-26452Y-129781D02*
G03I-355J0D01*
G01X-26522Y-132781D02*
G03I-354J0D01*
G01X-26342Y-132671D02*
G03I-355J0D01*
G01X-26192Y-132531D02*
G03I-355J0D01*
G01X-26662Y-129691D02*
G03I-355J0D01*
G01X-26872Y-129631D02*
G03I-354J0D01*
G01X-27102Y-129611D02*
G03I-355J0D01*
G01X-27122Y-132921D02*
G03I-354J0D01*
G01X-26912Y-132901D02*
G03I-355J0D01*
G01X-26712Y-132861D02*
G03I-355J0D01*
G01X-27842Y-129611D02*
G03I-355J0D01*
G01X-28062Y-129631D02*
G03I-355J0D01*
G01X-28272Y-129691D02*
G03I-354J0D01*
G01X-28262Y-132841D02*
G03I-355J0D01*
G01X-28042Y-132901D02*
G03I-355J0D01*
G01X-27822Y-132921D02*
G03I-354J0D01*
G01X-28442Y-124951D02*
G03I-355J0D01*
G01X-28472Y-129781D02*
G03I-354J0D01*
G01X-28662Y-129911D02*
G03I-355J0D01*
G01X-28812Y-130061D02*
G03I-355J0D01*
G01X-28942Y-130241D02*
G03I-355J0D01*
G01X-29032Y-130451D02*
G03I-355J0D01*
G01X-29092Y-130661D02*
G03I-355J0D01*
G01X-29112Y-130881D02*
G03I-355J0D01*
G01Y-131631D02*
G03I-355J0D01*
G01X-29092Y-131851D02*
G03I-355J0D01*
G01X-29032Y-132071D02*
G03I-355J0D01*
G01X-28942Y-132271D02*
G03I-355J0D01*
G01X-28812Y-132461D02*
G03I-355J0D01*
G01X-28652Y-132621D02*
G03I-355J0D01*
G01X-28472Y-132751D02*
G03I-354J0D01*
G01X-29342Y-125091D02*
G03I-355J0D01*
G01X-30252Y-125121D02*
G03I-355J0D01*
G01X-31232Y-129611D02*
G03I-355J0D01*
G01Y-132921D02*
G03I-355J0D01*
G01X-33002Y-125121D02*
G03I-355J0D01*
G01X-33402Y-129691D02*
G03I-355J0D01*
G01X-33192Y-129631D02*
G03I-355J0D01*
G01X-32982Y-129611D02*
G03I-355J0D01*
G01Y-132921D02*
G03I-355J0D01*
G01X-33172Y-132901D02*
G03I-354J0D01*
G01X-33352Y-132851D02*
G03I-355J0D01*
G01X-34032Y-125061D02*
G03I-355J0D01*
G01X-33892Y-130091D02*
G03I-355J0D01*
G01X-33752Y-129931D02*
G03I-355J0D01*
G01X-33592Y-129791D02*
G03I-355J0D01*
G01X-34072Y-130701D02*
G03I-354J0D01*
G01X-34052Y-130491D02*
G03I-355J0D01*
G01X-33992Y-130281D02*
G03I-355J0D01*
G01X-34072Y-131831D02*
G03I-354J0D01*
G01X-33532Y-132771D02*
G03I-355J0D01*
G01X-33682Y-132661D02*
G03I-355J0D01*
G01X-33812Y-132531D02*
G03I-355J0D01*
G01X-33922Y-132371D02*
G03I-354J0D01*
G01X-34002Y-132201D02*
G03I-355J0D01*
G01X-34052Y-132021D02*
G03I-355J0D01*
G01X-35052Y-124891D02*
G03I-355J0D01*
G01X-36672Y-129611D02*
G03I-354J0D01*
G01Y-132921D02*
G03I-354J0D01*
G01X-39262Y-129611D02*
G03I-355J0D01*
G01Y-132921D02*
G03I-355J0D01*
G01X-39782Y-129611D02*
G03I-355J0D01*
G01X-40372Y-125121D02*
G03I-355J0D01*
G01X-41192Y-132921D02*
G03I-355J0D01*
G01X-42732Y-129611D02*
G03I-355J0D01*
G01X-43282D02*
G03I-355J0D01*
G01Y-132921D02*
G03I-355J0D01*
G01X-44032Y-125121D02*
G03I-355J0D01*
G01X-45642Y-129611D02*
G03I-355J0D01*
G01Y-131271D02*
G03I-355J0D01*
G01Y-132921D02*
G03I-355J0D01*
G01X-47452Y-129611D02*
G03I-355J0D01*
G01X-47652Y-129631D02*
G03I-355J0D01*
G01X-47412Y-132921D02*
G03I-355J0D01*
G01X-47592Y-132901D02*
G03I-355J0D01*
G01X-47772Y-132861D02*
G03I-354J0D01*
G01X-25582Y-113881D02*
G03I-355J0D01*
G01X-25302Y-114401D02*
G03I-355J0D01*
G01X-25382Y-114251D02*
G03I-355J0D01*
G01X-25092Y-115561D02*
G03I-355J0D01*
G01X-25142Y-114971D02*
G03I-355J0D01*
G01X-25092Y-115641D02*
G03I-355J0D01*
G01X-25142Y-114951D02*
G03I-355J0D01*
G01X-25092Y-116341D02*
G03I-355J0D01*
G01Y-117031D02*
G03I-355J0D01*
G01Y-117721D02*
G03I-355J0D01*
G01Y-119111D02*
G03I-355J0D01*
G01Y-118421D02*
G03I-355J0D01*
G01Y-119811D02*
G03I-355J0D01*
G01Y-120501D02*
G03I-355J0D01*
G01Y-121701D02*
G03I-355J0D01*
G01Y-121191D02*
G03I-355J0D01*
G01X-25142Y-122251D02*
G03I-355J0D01*
G01X-25112Y-121891D02*
G03I-355J0D01*
G01X-25612Y-123241D02*
G03I-355J0D01*
G01X-25322Y-122771D02*
G03I-354J0D01*
G01X-25652Y-123281D02*
G03I-355J0D01*
G01X-25262Y-122581D02*
G03I-355J0D01*
G01X-25962Y-113431D02*
G03I-355J0D01*
G01X-25852Y-113561D02*
G03I-355J0D01*
G01X-26002Y-123631D02*
G03I-355J0D01*
G01X1578Y-114141D02*
G03I-354J0D01*
G01X1598Y-114351D02*
G03I-355J0D01*
G01X1588Y-114251D02*
G03I-355J0D01*
G01X1598Y-114951D02*
G03I-355J0D01*
G01Y-115641D02*
G03I-355J0D01*
G01Y-116341D02*
G03I-355J0D01*
G01Y-117031D02*
G03I-355J0D01*
G01Y-117721D02*
G03I-355J0D01*
G01Y-118421D02*
G03I-355J0D01*
G01Y-119111D02*
G03I-355J0D01*
G01Y-119811D02*
G03I-355J0D01*
G01Y-120501D02*
G03I-355J0D01*
G01Y-121191D02*
G03I-355J0D01*
G01Y-121891D02*
G03I-355J0D01*
G01Y-122581D02*
G03I-355J0D01*
G01Y-123281D02*
G03I-355J0D01*
G01Y-123971D02*
G03I-355J0D01*
G01Y-124671D02*
G03I-355J0D01*
G01X1368Y-111901D02*
G03I-355J0D01*
G01X798Y-113551D02*
G03I-355J0D01*
G01X1008Y-113581D02*
G03I-355J0D01*
G01X1198Y-113661D02*
G03I-355J0D01*
G01X1368Y-113781D02*
G03I-355J0D01*
G01X1488Y-113951D02*
G03I-355J0D01*
G01X878Y-113561D02*
G03I-354J0D01*
G01X-862Y-113581D02*
G03I-355J0D01*
G01X-642Y-113551D02*
G03I-355J0D01*
G01X-722Y-113561D02*
G03I-354J0D01*
G01X-1602Y-111991D02*
G03I-355J0D01*
G01X-1362Y-113961D02*
G03I-355J0D01*
G01X-1232Y-113791D02*
G03I-355J0D01*
G01X-1052Y-113661D02*
G03I-355J0D01*
G01X-1472Y-114381D02*
G03I-354J0D01*
G01X-1442Y-114161D02*
G03I-355J0D01*
G01X-1452Y-114251D02*
G03I-355J0D01*
G01X-1472Y-115641D02*
G03I-354J0D01*
G01Y-114951D02*
G03I-354J0D01*
G01Y-116341D02*
G03I-354J0D01*
G01Y-117031D02*
G03I-354J0D01*
G01Y-117721D02*
G03I-354J0D01*
G01Y-118421D02*
G03I-354J0D01*
G01Y-119811D02*
G03I-354J0D01*
G01Y-119111D02*
G03I-354J0D01*
G01Y-120501D02*
G03I-354J0D01*
G01Y-121191D02*
G03I-354J0D01*
G01Y-121891D02*
G03I-354J0D01*
G01Y-123281D02*
G03I-354J0D01*
G01Y-122581D02*
G03I-354J0D01*
G01Y-123971D02*
G03I-354J0D01*
G01Y-124671D02*
G03I-354J0D01*
G01X-2992Y-112171D02*
G03I-355J0D01*
G01X-4542Y-112371D02*
G03I-355J0D01*
G01Y-112871D02*
G03I-355J0D01*
G01Y-113561D02*
G03I-355J0D01*
G01Y-114951D02*
G03I-355J0D01*
G01Y-114251D02*
G03I-355J0D01*
G01Y-115641D02*
G03I-355J0D01*
G01Y-116341D02*
G03I-355J0D01*
G01Y-117031D02*
G03I-355J0D01*
G01Y-117721D02*
G03I-355J0D01*
G01Y-119111D02*
G03I-355J0D01*
G01Y-118421D02*
G03I-355J0D01*
G01Y-119811D02*
G03I-355J0D01*
G01Y-120501D02*
G03I-355J0D01*
G01Y-121191D02*
G03I-355J0D01*
G01Y-122581D02*
G03I-355J0D01*
G01Y-121891D02*
G03I-355J0D01*
G01Y-123281D02*
G03I-355J0D01*
G01Y-123971D02*
G03I-355J0D01*
G01Y-124671D02*
G03I-355J0D01*
G01X-8082Y-112371D02*
G03I-355J0D01*
G01Y-112871D02*
G03I-355J0D01*
G01Y-113561D02*
G03I-355J0D01*
G01Y-114251D02*
G03I-355J0D01*
G01Y-115641D02*
G03I-355J0D01*
G01Y-114951D02*
G03I-355J0D01*
G01Y-116341D02*
G03I-355J0D01*
G01Y-117031D02*
G03I-355J0D01*
G01Y-117721D02*
G03I-355J0D01*
G01Y-119111D02*
G03I-355J0D01*
G01Y-118421D02*
G03I-355J0D01*
G01Y-119811D02*
G03I-355J0D01*
G01Y-120501D02*
G03I-355J0D01*
G01Y-121191D02*
G03I-355J0D01*
G01Y-121891D02*
G03I-355J0D01*
G01Y-123281D02*
G03I-355J0D01*
G01Y-122581D02*
G03I-355J0D01*
G01Y-123971D02*
G03I-355J0D01*
G01Y-124671D02*
G03I-355J0D01*
G01X-11392Y-112371D02*
G03I-355J0D01*
G01Y-112871D02*
G03I-355J0D01*
G01Y-113561D02*
G03I-355J0D01*
G01Y-114251D02*
G03I-355J0D01*
G01Y-115641D02*
G03I-355J0D01*
G01Y-114951D02*
G03I-355J0D01*
G01Y-116341D02*
G03I-355J0D01*
G01Y-116781D02*
G03I-355J0D01*
G01X-11422Y-116981D02*
G03I-355J0D01*
G01X-11502Y-117171D02*
G03I-355J0D01*
G01X-11622Y-117341D02*
G03I-354J0D01*
G01X-11442Y-117031D02*
G03I-355J0D01*
G01X-11782Y-117461D02*
G03I-355J0D01*
G01X-11972Y-117541D02*
G03I-354J0D01*
G01X-12012Y-119251D02*
G03I-355J0D01*
G01X-11802Y-119331D02*
G03I-355J0D01*
G01X-11632Y-119461D02*
G03I-355J0D01*
G01X-11502Y-119631D02*
G03I-355J0D01*
G01X-11422Y-119831D02*
G03I-355J0D01*
G01X-11392Y-120051D02*
G03I-355J0D01*
G01X-11432Y-119811D02*
G03I-355J0D01*
G01X-11392Y-120501D02*
G03I-355J0D01*
G01Y-121191D02*
G03I-355J0D01*
G01Y-122581D02*
G03I-355J0D01*
G01Y-121891D02*
G03I-355J0D01*
G01Y-123281D02*
G03I-355J0D01*
G01Y-123971D02*
G03I-355J0D01*
G01Y-124671D02*
G03I-355J0D01*
G01X-12172Y-117561D02*
G03I-355J0D01*
G01X-12222Y-119221D02*
G03I-355J0D01*
G01X-17672Y-117561D02*
G03I-354J0D01*
G01X-17882Y-117541D02*
G03I-355J0D01*
G01X-18072Y-117461D02*
G03I-354J0D01*
G01X-18092Y-119321D02*
G03I-355J0D01*
G01X-17902Y-119241D02*
G03I-355J0D01*
G01X-17702Y-119221D02*
G03I-355J0D01*
G01X-18482Y-112871D02*
G03I-355J0D01*
G01Y-112371D02*
G03I-355J0D01*
G01D02*
G03I-355J0D01*
G01Y-113561D02*
G03I-355J0D01*
G01Y-114251D02*
G03I-355J0D01*
G01Y-114951D02*
G03I-355J0D01*
G01Y-115641D02*
G03I-355J0D01*
G01Y-116341D02*
G03I-355J0D01*
G01X-18242Y-117331D02*
G03I-355J0D01*
G01X-18372Y-117161D02*
G03I-354J0D01*
G01X-18452Y-116971D02*
G03I-355J0D01*
G01X-18482Y-116761D02*
G03I-355J0D01*
G01X-18422Y-117031D02*
G03I-354J0D01*
G01X-18452Y-119801D02*
G03I-355J0D01*
G01X-18372Y-119611D02*
G03I-354J0D01*
G01X-18252Y-119451D02*
G03I-355J0D01*
G01X-18452Y-119811D02*
G03I-355J0D01*
G01X-18482Y-120001D02*
G03I-355J0D01*
G01Y-120501D02*
G03I-355J0D01*
G01Y-121191D02*
G03I-355J0D01*
G01Y-121891D02*
G03I-355J0D01*
G01Y-122581D02*
G03I-355J0D01*
G01Y-123281D02*
G03I-355J0D01*
G01Y-123971D02*
G03I-355J0D01*
G01Y-124671D02*
G03I-355J0D01*
G01X-21782Y-112871D02*
G03I-355J0D01*
G01Y-112371D02*
G03I-355J0D01*
G01Y-113561D02*
G03I-355J0D01*
G01Y-114251D02*
G03I-355J0D01*
G01Y-114951D02*
G03I-355J0D01*
G01Y-115641D02*
G03I-355J0D01*
G01Y-116341D02*
G03I-355J0D01*
G01Y-117031D02*
G03I-355J0D01*
G01Y-117721D02*
G03I-355J0D01*
G01Y-119111D02*
G03I-355J0D01*
G01Y-118421D02*
G03I-355J0D01*
G01Y-119811D02*
G03I-355J0D01*
G01Y-120501D02*
G03I-355J0D01*
G01Y-121191D02*
G03I-355J0D01*
G01Y-121891D02*
G03I-355J0D01*
G01Y-122581D02*
G03I-355J0D01*
G01Y-123281D02*
G03I-355J0D01*
G01Y-123971D02*
G03I-355J0D01*
G01Y-124671D02*
G03I-355J0D01*
G01X10558Y-113601D02*
G03I-355J0D01*
G01X10178Y-113191D02*
G03I-355J0D01*
G01X10518Y-113561D02*
G03I-355J0D01*
G01X9738Y-112871D02*
G03I-355J0D01*
G01X9528Y-112711D02*
G03I-354J0D01*
G01D02*
G03I-354J0D01*
G01X8798Y-112351D02*
G03I-355J0D01*
G01X8018Y-112131D02*
G03I-355J0D01*
G01X8158Y-112171D02*
G03I-355J0D01*
G01X7688Y-113991D02*
G03I-355J0D01*
G01X7848Y-114231D02*
G03I-355J0D01*
G01X7948Y-114511D02*
G03I-355J0D01*
G01X7978Y-114811D02*
G03I-354J0D01*
G01X7858Y-114251D02*
G03I-355J0D01*
G01X7978Y-114951D02*
G03I-354J0D01*
G01Y-115641D02*
G03I-354J0D01*
G01Y-116341D02*
G03I-354J0D01*
G01Y-117031D02*
G03I-354J0D01*
G01Y-117721D02*
G03I-354J0D01*
G01Y-118421D02*
G03I-354J0D01*
G01Y-119111D02*
G03I-354J0D01*
G01Y-119811D02*
G03I-354J0D01*
G01Y-120501D02*
G03I-354J0D01*
G01Y-121191D02*
G03I-354J0D01*
G01Y-121891D02*
G03I-354J0D01*
G01Y-122581D02*
G03I-354J0D01*
G01Y-123281D02*
G03I-354J0D01*
G01Y-123971D02*
G03I-354J0D01*
G01Y-124671D02*
G03I-354J0D01*
G01X6858Y-111961D02*
G03I-355J0D01*
G01X6988Y-113621D02*
G03I-355J0D01*
G01X7468Y-113791D02*
G03I-355J0D01*
G01X6478Y-113551D02*
G03I-354J0D01*
G01X6558Y-113561D02*
G03I-355J0D01*
G01X5698Y-111901D02*
G03I-355J0D01*
G01X5018Y-113951D02*
G03I-355J0D01*
G01X5148Y-113791D02*
G03I-355J0D01*
G01X5318Y-113661D02*
G03I-355J0D01*
G01X5508Y-113581D02*
G03I-355J0D01*
G01X5718Y-113551D02*
G03I-355J0D01*
G01X5638Y-113561D02*
G03I-355J0D01*
G01X4938Y-114151D02*
G03I-355J0D01*
G01X4918Y-114251D02*
G03I-355J0D01*
G01X4908Y-114361D02*
G03I-355J0D01*
G01Y-114951D02*
G03I-355J0D01*
G01Y-115641D02*
G03I-355J0D01*
G01Y-116341D02*
G03I-355J0D01*
G01Y-117031D02*
G03I-355J0D01*
G01Y-117721D02*
G03I-355J0D01*
G01Y-118421D02*
G03I-355J0D01*
G01Y-119111D02*
G03I-355J0D01*
G01Y-119811D02*
G03I-355J0D01*
G01Y-120501D02*
G03I-355J0D01*
G01Y-121191D02*
G03I-355J0D01*
G01Y-121891D02*
G03I-355J0D01*
G01Y-122581D02*
G03I-355J0D01*
G01Y-123281D02*
G03I-355J0D01*
G01Y-123971D02*
G03I-355J0D01*
G01Y-124671D02*
G03I-355J0D01*
G01X-22962Y-129611D02*
G03I-355J0D01*
G01X-23442D02*
G03I-355J0D01*
G01Y-132921D02*
G03I-355J0D01*
G01X-26102Y-130071D02*
G03I-355J0D01*
G01X-25802Y-130911D02*
G03I-355J0D01*
G01X-25822Y-130681D02*
G03I-354J0D01*
G01X-25882Y-130471D02*
G03I-355J0D01*
G01X-25972Y-130261D02*
G03I-354J0D01*
G01X-25802Y-131601D02*
G03I-355J0D01*
G01X-25862Y-132011D02*
G03I-355J0D01*
G01X-25822Y-131811D02*
G03I-354J0D01*
G01X-25802Y-131601D02*
G03I-355J0D01*
G01X-26052Y-132381D02*
G03I-355J0D01*
G01X-25942Y-132201D02*
G03I-355J0D01*
G01X2618Y-130461D02*
G03I-355J0D01*
G01X2558Y-130681D02*
G03I-355J0D01*
G01X2538Y-130901D02*
G03I-355J0D01*
G01X2548D02*
G03I-355J0D01*
G01Y-131611D02*
G03I-355J0D01*
G01X2568Y-131811D02*
G03I-355J0D01*
G01X2608Y-132011D02*
G03I-355J0D01*
G01X1598Y-125121D02*
G03I-355J0D01*
G01X418Y-129611D02*
G03I-355J0D01*
G01X-1002D02*
G03I-355J0D01*
G01D02*
G03I-355J0D01*
G01Y-132921D02*
G03I-355J0D01*
G01X-1472Y-125121D02*
G03I-354J0D01*
G01X-2412Y-129611D02*
G03I-355J0D01*
G01X-4302D02*
G03I-355J0D01*
G01Y-132921D02*
G03I-355J0D01*
G01X-4542Y-125121D02*
G03I-355J0D01*
G01X-6102Y-129611D02*
G03I-355J0D01*
G01X-6072Y-132921D02*
G03I-354J0D01*
G01X-7002Y-130131D02*
G03I-355J0D01*
G01X-6902Y-129981D02*
G03I-355J0D01*
G01X-6772Y-129851D02*
G03I-354J0D01*
G01X-6622Y-129751D02*
G03I-354J0D01*
G01X-6462Y-129671D02*
G03I-355J0D01*
G01X-6282Y-129631D02*
G03I-355J0D01*
G01X-6262Y-132901D02*
G03I-355J0D01*
G01X-6442Y-132861D02*
G03I-355J0D01*
G01X-6612Y-132781D02*
G03I-355J0D01*
G01X-6762Y-132671D02*
G03I-355J0D01*
G01X-6892Y-132541D02*
G03I-355J0D01*
G01X-7002Y-132381D02*
G03I-355J0D01*
G01X-7082Y-130291D02*
G03I-355J0D01*
G01X-7142Y-130651D02*
G03I-355J0D01*
G01X-7122Y-130471D02*
G03I-354J0D01*
G01X-7142Y-131851D02*
G03I-355J0D01*
G01X-7082Y-132221D02*
G03I-355J0D01*
G01X-7122Y-132041D02*
G03I-354J0D01*
G01X-8082Y-125121D02*
G03I-355J0D01*
G01X-9262Y-129611D02*
G03I-355J0D01*
G01Y-131611D02*
G03I-355J0D01*
G01X-9272D02*
G03I-355J0D01*
G01X-9292Y-131841D02*
G03I-355J0D01*
G01X-9352Y-132061D02*
G03I-355J0D01*
G01X-9452Y-132261D02*
G03I-355J0D01*
G01X-9582Y-132451D02*
G03I-355J0D01*
G01X-9742Y-132611D02*
G03I-355J0D01*
G01X-9922Y-132741D02*
G03I-355J0D01*
G01X-10132Y-132841D02*
G03I-355J0D01*
G01X-10352Y-132901D02*
G03I-355J0D01*
G01X-10582Y-132921D02*
G03I-355J0D01*
G01X-11102D02*
G03I-355J0D01*
G01X-11392Y-125121D02*
G03I-355J0D01*
G01X-11322Y-132901D02*
G03I-355J0D01*
G01X-11522Y-132851D02*
G03I-355J0D01*
G01X-11722Y-132751D02*
G03I-354J0D01*
G01X-11902Y-132631D02*
G03I-355J0D01*
G01X-12052Y-132481D02*
G03I-355J0D01*
G01X-12332Y-129611D02*
G03I-355J0D01*
G01X-12322Y-131901D02*
G03I-355J0D01*
G01X-12342Y-131681D02*
G03I-355J0D01*
G01X-12332D02*
G03I-355J0D01*
G01X-12172Y-132301D02*
G03I-355J0D01*
G01X-12272Y-132101D02*
G03I-355J0D01*
G01X-15342Y-129781D02*
G03I-355J0D01*
G01X-15162Y-129911D02*
G03I-355J0D01*
G01X-15002Y-130071D02*
G03I-355J0D01*
G01X-14702Y-130901D02*
G03I-355J0D01*
G01X-14872Y-130251D02*
G03I-354J0D01*
G01X-14782Y-130461D02*
G03I-355J0D01*
G01X-14722Y-130681D02*
G03I-354J0D01*
G01X-14702Y-130901D02*
G03I-355J0D01*
G01Y-131611D02*
G03I-355J0D01*
G01X-14722Y-131811D02*
G03I-354J0D01*
G01X-14762Y-132011D02*
G03I-355J0D01*
G01X-14842Y-132201D02*
G03I-355J0D01*
G01X-14952Y-132381D02*
G03I-355J0D01*
G01X-15082Y-132541D02*
G03I-355J0D01*
G01X-15242Y-132671D02*
G03I-355J0D01*
G01X-15422Y-132781D02*
G03I-354J0D01*
G01X-15992Y-129611D02*
G03I-355J0D01*
G01X-15772Y-129631D02*
G03I-354J0D01*
G01X-15552Y-129691D02*
G03I-355J0D01*
G01X-15612Y-132861D02*
G03I-355J0D01*
G01X-15812Y-132901D02*
G03I-355J0D01*
G01X-16012Y-132921D02*
G03I-355J0D01*
G01X-17772Y-129611D02*
G03I-354J0D01*
G01Y-132921D02*
G03I-354J0D01*
G01X-18482Y-125121D02*
G03I-355J0D01*
G01X-20132Y-129611D02*
G03I-355J0D01*
G01Y-132921D02*
G03I-355J0D01*
G01X-20682D02*
G03I-355J0D01*
G01X-21782Y-125121D02*
G03I-355J0D01*
G01X10248Y-129611D02*
G03I-355J0D01*
G01X10408Y-129631D02*
G03I-355J0D01*
G01X10558Y-129671D02*
G03I-355J0D01*
G01X10688Y-129741D02*
G03I-355J0D01*
G01X10818Y-129841D02*
G03I-355J0D01*
G01X10798Y-131021D02*
G03I-355J0D01*
G01X10668Y-131131D02*
G03I-355J0D01*
G01X10518Y-131201D02*
G03I-355J0D01*
G01X10358Y-131251D02*
G03I-355J0D01*
G01X10188Y-131271D02*
G03I-355J0D01*
G01X10808Y-132921D02*
G03I-355J0D01*
G01X9908Y-131271D02*
G03I-355J0D01*
G01D02*
G03I-355J0D01*
G01X7978Y-125121D02*
G03I-354J0D01*
G01Y-129611D02*
G03I-354J0D01*
G01D02*
G03I-354J0D01*
G01Y-131271D02*
G03I-354J0D01*
G01D02*
G03I-354J0D01*
G01Y-132921D02*
G03I-354J0D01*
G01X5848Y-130891D02*
G03I-355J0D01*
G01X5828Y-130671D02*
G03I-354J0D01*
G01X5848Y-131621D02*
G03I-355J0D01*
G01X5828Y-131851D02*
G03I-354J0D01*
G01X5848Y-131621D02*
G03I-355J0D01*
G01X5768Y-130451D02*
G03I-355J0D01*
G01X5678Y-130251D02*
G03I-354J0D01*
G01X5548Y-130071D02*
G03I-355J0D01*
G01X5388Y-129911D02*
G03I-355J0D01*
G01X5208Y-129781D02*
G03I-355J0D01*
G01X5008Y-129691D02*
G03I-355J0D01*
G01X5768Y-132061D02*
G03I-355J0D01*
G01X4988Y-132841D02*
G03I-355J0D01*
G01X5198Y-132751D02*
G03I-355J0D01*
G01X5388Y-132621D02*
G03I-355J0D01*
G01X5548Y-132461D02*
G03I-355J0D01*
G01X5678Y-132271D02*
G03I-354J0D01*
G01X4908Y-125121D02*
G03I-355J0D01*
G01X4788Y-129631D02*
G03I-355J0D01*
G01X4568Y-129611D02*
G03I-355J0D01*
G01X4548Y-132921D02*
G03I-355J0D01*
G01X4778Y-132901D02*
G03I-354J0D01*
G01X3828Y-129611D02*
G03I-354J0D01*
G01X3608Y-129631D02*
G03I-355J0D01*
G01X3388Y-129691D02*
G03I-355J0D01*
G01X3268Y-132781D02*
G03I-355J0D01*
G01X3458Y-132861D02*
G03I-355J0D01*
G01X3658Y-132901D02*
G03I-355J0D01*
G01X3858Y-132921D02*
G03I-355J0D01*
G01X3188Y-129781D02*
G03I-355J0D01*
G01X2998Y-129911D02*
G03I-355J0D01*
G01X2838Y-130071D02*
G03I-355J0D01*
G01X2708Y-130251D02*
G03I-355J0D01*
G01X2688Y-132201D02*
G03I-355J0D01*
G01X2798Y-132381D02*
G03I-355J0D01*
G01X2928Y-132541D02*
G03I-354J0D01*
G01X3088Y-132671D02*
G03I-355J0D01*
G01X-17500Y-17500D02*
X258090D01*
Y258090D01*
X-17500D01*
Y-17500D01*
G01X10998Y-114611D02*
G03I-355J0D01*
G01X11048Y-115161D02*
G03I-355J0D01*
G01X11028Y-114951D02*
G03I-354J0D01*
G01X11048Y-115641D02*
G03I-355J0D01*
G01Y-116341D02*
G03I-355J0D01*
G01Y-117031D02*
G03I-355J0D01*
G01Y-117721D02*
G03I-355J0D01*
G01Y-118421D02*
G03I-355J0D01*
G01Y-119111D02*
G03I-355J0D01*
G01Y-119811D02*
G03I-355J0D01*
G01Y-120501D02*
G03I-355J0D01*
G01Y-121191D02*
G03I-355J0D01*
G01Y-121891D02*
G03I-355J0D01*
G01Y-122581D02*
G03I-355J0D01*
G01Y-123281D02*
G03I-355J0D01*
G01Y-123971D02*
G03I-355J0D01*
G01Y-124671D02*
G03I-355J0D01*
G01X10838Y-114081D02*
G03I-355J0D01*
G01X10888Y-114251D02*
G03I-355J0D01*
G01X11048Y-125121D02*
G03I-355J0D01*
G01X10918Y-129971D02*
G03I-355J0D01*
G01X10988Y-130101D02*
G03I-355J0D01*
G01X11028Y-130251D02*
G03I-354J0D01*
G01X11048Y-130411D02*
G03I-355J0D01*
G01X11028Y-130581D02*
G03I-354J0D01*
G01X10978Y-130741D02*
G03I-354J0D01*
G01X10908Y-130891D02*
G03I-355J0D01*
G01X55202Y-152016D02*
X55468Y-152516D01*
X55788Y-152850D01*
X56162Y-153016D01*
X56588Y-152850D01*
X56908Y-152516D01*
X57228Y-152016D01*
X57335Y-151350D01*
Y-148016D01*
G01X60468Y-153016D02*
X60041Y-152933D01*
X59668Y-152600D01*
X59348Y-152100D01*
X59135Y-151516D01*
X59028Y-150850D01*
Y-150183D01*
X59135Y-149516D01*
X59348Y-148933D01*
X59668Y-148433D01*
X60041Y-148100D01*
X60468Y-148016D01*
X60895Y-148100D01*
X61268Y-148433D01*
X61588Y-148933D01*
X61802Y-149516D01*
X61908Y-150183D01*
Y-150850D01*
X61802Y-151516D01*
X61588Y-152100D01*
X61268Y-152600D01*
X60895Y-152933D01*
X60468Y-153016D01*
G01X65095Y-150350D02*
X65308Y-150100D01*
X65468Y-149683D01*
X65575Y-149100D01*
X65468Y-148600D01*
X65255Y-148266D01*
X64882Y-148016D01*
X63442D01*
Y-153016D01*
X65202D01*
X65575Y-152683D01*
X65788Y-152183D01*
X65895Y-151600D01*
X65788Y-151016D01*
X65468Y-150516D01*
X65095Y-150350D01*
X63442D01*
G01X67802Y-154683D02*
X68868Y-148016D01*
G01X69935D02*
X68868Y-154683D01*
G01X67268Y-152183D02*
X70468D01*
G01Y-150516D02*
X67268D01*
G01X73068Y-153183D02*
X72962Y-153100D01*
Y-152933D01*
X73068Y-152850D01*
X73175Y-152933D01*
Y-153100D01*
X73068Y-153183D01*
G01Y-150933D02*
X72962Y-150850D01*
Y-150683D01*
X73068Y-150600D01*
X73175Y-150683D01*
Y-150850D01*
X73068Y-150933D01*
G01X80255D02*
X80628Y-150350D01*
X80948Y-150016D01*
X81375Y-149850D01*
X81748Y-150016D01*
X82015Y-150350D01*
X82228Y-150850D01*
X82282Y-151433D01*
X82228Y-151933D01*
X82015Y-152433D01*
X81695Y-152850D01*
X81322Y-153016D01*
X80895Y-152850D01*
X80522Y-152350D01*
X80308Y-151600D01*
X80255Y-150766D01*
X80362Y-149683D01*
X80522Y-149100D01*
X80788Y-148516D01*
X81162Y-148100D01*
X81535Y-148016D01*
X81908Y-148183D01*
X82175Y-148600D01*
G01X85468Y-153016D02*
X85842Y-152933D01*
X86268Y-152683D01*
X86535Y-152267D01*
X86642Y-151683D01*
X86535Y-151100D01*
X86215Y-150600D01*
X85735Y-150350D01*
X85202D01*
X84882Y-150183D01*
X84615Y-149766D01*
X84508Y-149183D01*
X84668Y-148600D01*
X85042Y-148183D01*
X85468Y-148016D01*
X85895Y-148183D01*
X86268Y-148600D01*
X86428Y-149183D01*
X86322Y-149766D01*
X86055Y-150183D01*
X85735Y-150350D01*
X85202D01*
X84722Y-150600D01*
X84402Y-151100D01*
X84295Y-151683D01*
X84402Y-152267D01*
X84668Y-152683D01*
X85095Y-152933D01*
X85468Y-153016D01*
G01X88495Y-152016D02*
X88815Y-152600D01*
X89242Y-152933D01*
X89722Y-153016D01*
X90148Y-152933D01*
X90575Y-152516D01*
X90842Y-152016D01*
X90895Y-151516D01*
X90788Y-150933D01*
X90415Y-150516D01*
X90042Y-150350D01*
X89562D01*
G01X90042D02*
X90362Y-150100D01*
X90628Y-149683D01*
X90735Y-149183D01*
X90628Y-148683D01*
X90362Y-148266D01*
X89882Y-148016D01*
X89402Y-148100D01*
X88922Y-148433D01*
G01X93175Y-151350D02*
X94562D01*
G01X98068Y-148016D02*
X97642Y-148183D01*
X97322Y-148600D01*
X97108Y-149100D01*
X96948Y-149766D01*
X96895Y-150516D01*
X96948Y-151266D01*
X97108Y-151933D01*
X97322Y-152433D01*
X97642Y-152850D01*
X98068Y-153016D01*
X98495Y-152850D01*
X98815Y-152433D01*
X99028Y-151933D01*
X99188Y-151266D01*
X99242Y-150516D01*
X99188Y-149766D01*
X99028Y-149100D01*
X98815Y-148600D01*
X98495Y-148183D01*
X98068Y-148016D01*
G01X101095Y-152016D02*
X101415Y-152600D01*
X101842Y-152933D01*
X102322Y-153016D01*
X102748Y-152933D01*
X103175Y-152516D01*
X103442Y-152016D01*
X103495Y-151516D01*
X103388Y-150933D01*
X103015Y-150516D01*
X102642Y-150350D01*
X102162D01*
G01X102642D02*
X102962Y-150100D01*
X103228Y-149683D01*
X103335Y-149183D01*
X103228Y-148683D01*
X102962Y-148266D01*
X102482Y-148016D01*
X102002Y-148100D01*
X101522Y-148433D01*
G01X106468Y-148016D02*
X106041Y-148183D01*
X105722Y-148600D01*
X105508Y-149100D01*
X105348Y-149766D01*
X105295Y-150516D01*
X105348Y-151266D01*
X105508Y-151933D01*
X105722Y-152433D01*
X106041Y-152850D01*
X106468Y-153016D01*
X106895Y-152850D01*
X107215Y-152433D01*
X107428Y-151933D01*
X107588Y-151266D01*
X107641Y-150516D01*
X107588Y-149766D01*
X107428Y-149100D01*
X107215Y-148600D01*
X106895Y-148183D01*
X106468Y-148016D01*
G01X110668Y-153016D02*
Y-148016D01*
X110028Y-149016D01*
G01Y-153016D02*
X111308D01*
G01X113855Y-148850D02*
X114175Y-148350D01*
X114548Y-148100D01*
X114975Y-148016D01*
X115508Y-148183D01*
X115882Y-148600D01*
X115988Y-149100D01*
X115935Y-149600D01*
X115721Y-150016D01*
X114655Y-150850D01*
X114175Y-151433D01*
X113855Y-152267D01*
X113748Y-153016D01*
X115988D01*
G01X119068Y-148016D02*
X118642Y-148183D01*
X118321Y-148600D01*
X118108Y-149100D01*
X117948Y-149766D01*
X117895Y-150516D01*
X117948Y-151266D01*
X118108Y-151933D01*
X118321Y-152433D01*
X118642Y-152850D01*
X119068Y-153016D01*
X119495Y-152850D01*
X119815Y-152433D01*
X120028Y-151933D01*
X120188Y-151266D01*
X120242Y-150516D01*
X120188Y-149766D01*
X120028Y-149100D01*
X119815Y-148600D01*
X119495Y-148183D01*
X119068Y-148016D01*
G01X123268Y-153016D02*
Y-148016D01*
X122628Y-149016D01*
G01Y-153016D02*
X123908D01*
G01X126455Y-148850D02*
X126775Y-148350D01*
X127148Y-148100D01*
X127575Y-148016D01*
X128108Y-148183D01*
X128482Y-148600D01*
X128588Y-149100D01*
X128535Y-149600D01*
X128322Y-150016D01*
X127255Y-150850D01*
X126775Y-151433D01*
X126455Y-152267D01*
X126348Y-153016D01*
X128588D01*
G01X130975Y-151350D02*
X132362D01*
G01X135868Y-148016D02*
X135442Y-148183D01*
X135122Y-148600D01*
X134908Y-149100D01*
X134748Y-149766D01*
X134695Y-150516D01*
X134748Y-151266D01*
X134908Y-151933D01*
X135122Y-152433D01*
X135442Y-152850D01*
X135868Y-153016D01*
X136295Y-152850D01*
X136615Y-152433D01*
X136828Y-151933D01*
X136988Y-151266D01*
X137042Y-150516D01*
X136988Y-149766D01*
X136828Y-149100D01*
X136615Y-148600D01*
X136295Y-148183D01*
X135868Y-148016D01*
G01X140068Y-153016D02*
Y-148016D01*
X139428Y-149016D01*
G01Y-153016D02*
X140708D01*
G01X49668Y-81016D02*
Y-156016D01*
G01X57442Y-126433D02*
X57122Y-126183D01*
X56748Y-126016D01*
X56322D01*
X55842Y-126266D01*
X55468Y-126683D01*
X55202Y-127183D01*
X54988Y-128016D01*
X54935Y-128766D01*
X55042Y-129516D01*
X55202Y-130016D01*
X55522Y-130516D01*
X55895Y-130850D01*
X56268Y-131016D01*
X56642D01*
X57015Y-130850D01*
X57335Y-130600D01*
X57602Y-130267D01*
G01X59348Y-131016D02*
Y-126016D01*
G01X61588D02*
Y-131016D01*
G01Y-128516D02*
X59348D01*
G01X65735Y-131016D02*
X63602D01*
Y-126016D01*
X65735D01*
G01X64882Y-128433D02*
X63602D01*
G01X70042Y-126433D02*
X69722Y-126183D01*
X69348Y-126016D01*
X68922D01*
X68442Y-126266D01*
X68068Y-126683D01*
X67802Y-127183D01*
X67588Y-128016D01*
X67535Y-128766D01*
X67642Y-129516D01*
X67802Y-130016D01*
X68122Y-130516D01*
X68495Y-130850D01*
X68868Y-131016D01*
X69242D01*
X69615Y-130850D01*
X69935Y-130600D01*
X70202Y-130267D01*
G01X71895Y-131016D02*
Y-126016D01*
G01X73922D02*
X71895Y-129100D01*
G01X74242Y-131016D02*
X72802Y-127683D01*
G01X78335Y-131016D02*
X76202D01*
Y-126016D01*
X78335D01*
G01X77482Y-128433D02*
X76202D01*
G01X80402Y-131016D02*
Y-126016D01*
X81735D01*
X82162Y-126266D01*
X82428Y-126600D01*
X82535Y-127266D01*
X82428Y-127933D01*
X82108Y-128350D01*
X81735Y-128600D01*
X80402D01*
G01X81735D02*
X82535Y-131016D01*
G01X85668Y-131183D02*
X85562Y-131100D01*
Y-130933D01*
X85668Y-130850D01*
X85775Y-130933D01*
Y-131100D01*
X85668Y-131183D01*
G01Y-128933D02*
X85562Y-128850D01*
Y-128683D01*
X85668Y-128600D01*
X85775Y-128683D01*
Y-128850D01*
X85668Y-128933D01*
G01X82255Y-137850D02*
X82575Y-137350D01*
X82948Y-137100D01*
X83375Y-137016D01*
X83908Y-137183D01*
X84282Y-137600D01*
X84388Y-138100D01*
X84335Y-138600D01*
X84122Y-139016D01*
X83055Y-139850D01*
X82575Y-140433D01*
X82255Y-141267D01*
X82148Y-142016D01*
X84388D01*
G01X86455Y-137850D02*
X86775Y-137350D01*
X87148Y-137100D01*
X87575Y-137016D01*
X88108Y-137183D01*
X88482Y-137600D01*
X88588Y-138100D01*
X88535Y-138600D01*
X88322Y-139016D01*
X87255Y-139850D01*
X86775Y-140433D01*
X86455Y-141267D01*
X86348Y-142016D01*
X88588D01*
G01X90442D02*
Y-137016D01*
X92895Y-142016D01*
Y-137016D01*
G01X95868Y-142016D02*
X95442Y-141933D01*
X95068Y-141600D01*
X94748Y-141100D01*
X94535Y-140516D01*
X94428Y-139850D01*
Y-139183D01*
X94535Y-138516D01*
X94748Y-137933D01*
X95068Y-137433D01*
X95442Y-137100D01*
X95868Y-137016D01*
X96295Y-137100D01*
X96668Y-137433D01*
X96988Y-137933D01*
X97202Y-138516D01*
X97308Y-139183D01*
Y-139850D01*
X97202Y-140516D01*
X96988Y-141100D01*
X96668Y-141600D01*
X96295Y-141933D01*
X95868Y-142016D01*
G01X98735Y-137016D02*
X100068Y-142016D01*
X101402Y-137016D01*
G01X104268Y-142016D02*
Y-137016D01*
X103628Y-138016D01*
G01Y-142016D02*
X104908D01*
G01X107295Y-141016D02*
X107615Y-141600D01*
X108041Y-141933D01*
X108522Y-142016D01*
X108948Y-141933D01*
X109375Y-141516D01*
X109641Y-141016D01*
X109695Y-140516D01*
X109588Y-139933D01*
X109215Y-139516D01*
X108841Y-139350D01*
X108362D01*
G01X108841D02*
X109162Y-139100D01*
X109428Y-138683D01*
X109535Y-138183D01*
X109428Y-137683D01*
X109162Y-137266D01*
X108682Y-137016D01*
X108202Y-137100D01*
X107722Y-137433D01*
G01X56095Y-142016D02*
Y-137016D01*
X57162D01*
X57588Y-137266D01*
X57908Y-137600D01*
X58175Y-138100D01*
X58388Y-138683D01*
X58442Y-139516D01*
X58388Y-140350D01*
X58175Y-140933D01*
X57908Y-141433D01*
X57588Y-141766D01*
X57162Y-142016D01*
X56095D01*
G01X60135D02*
X61468Y-137016D01*
X62802Y-142016D01*
G01X62322Y-140266D02*
X60615D01*
G01X65668Y-137016D02*
Y-142016D01*
G01X64442Y-137016D02*
X66895D01*
G01X70935Y-142016D02*
X68802D01*
Y-137016D01*
X70935D01*
G01X70082Y-139433D02*
X68802D01*
G01X74068Y-142183D02*
X73962Y-142100D01*
Y-141933D01*
X74068Y-141850D01*
X74175Y-141933D01*
Y-142100D01*
X74068Y-142183D01*
G01Y-139933D02*
X73962Y-139850D01*
Y-139683D01*
X74068Y-139600D01*
X74175Y-139683D01*
Y-139850D01*
X74068Y-139933D01*
G01X55095Y-120016D02*
Y-115016D01*
X56162D01*
X56588Y-115266D01*
X56908Y-115600D01*
X57175Y-116100D01*
X57388Y-116683D01*
X57442Y-117516D01*
X57388Y-118350D01*
X57175Y-118933D01*
X56908Y-119433D01*
X56588Y-119766D01*
X56162Y-120016D01*
X55095D01*
G01X61535D02*
X59401D01*
Y-115016D01*
X61535D01*
G01X60682Y-117433D02*
X59401D01*
G01X63548Y-119350D02*
X63975Y-119766D01*
X64455Y-120016D01*
X64882D01*
X65308Y-119766D01*
X65628Y-119350D01*
X65788Y-118766D01*
X65682Y-118183D01*
X65415Y-117683D01*
X64935Y-117350D01*
X64295Y-117183D01*
X63922Y-116850D01*
X63762Y-116266D01*
X63868Y-115683D01*
X64135Y-115266D01*
X64508Y-115016D01*
X64882D01*
X65255Y-115183D01*
X65575Y-115600D01*
G01X68228Y-115016D02*
X69508D01*
G01X68868D02*
Y-120016D01*
G01X68228D02*
X69508D01*
G01X73388Y-117516D02*
X74455D01*
Y-119016D01*
X74135Y-119516D01*
X73762Y-119850D01*
X73228Y-120016D01*
X72695Y-119850D01*
X72322Y-119516D01*
X72002Y-119016D01*
X71788Y-118433D01*
X71682Y-117766D01*
Y-117183D01*
X71788Y-116683D01*
X72002Y-116100D01*
X72322Y-115600D01*
X72642Y-115266D01*
X73068Y-115016D01*
X73442D01*
X73868Y-115183D01*
X74188Y-115516D01*
G01X76042Y-120016D02*
Y-115016D01*
X78495Y-120016D01*
Y-115016D01*
G01X82535Y-120016D02*
X80402D01*
Y-115016D01*
X82535D01*
G01X81682Y-117433D02*
X80402D01*
G01X84602Y-120016D02*
Y-115016D01*
X85935D01*
X86362Y-115266D01*
X86628Y-115600D01*
X86735Y-116266D01*
X86628Y-116933D01*
X86308Y-117350D01*
X85935Y-117600D01*
X84602D01*
G01X85935D02*
X86735Y-120016D01*
G01X89868Y-120183D02*
X89762Y-120100D01*
Y-119933D01*
X89868Y-119850D01*
X89975Y-119933D01*
Y-120100D01*
X89868Y-120183D01*
G01Y-117933D02*
X89762Y-117850D01*
Y-117683D01*
X89868Y-117600D01*
X89975Y-117683D01*
Y-117850D01*
X89868Y-117933D01*
G01X167168Y-111016D02*
X49668D01*
G01X167168Y-133016D02*
X49668D01*
G01X167168Y-122016D02*
X49668D01*
G01X167168Y-144016D02*
X49668D01*
G01X55502Y-106016D02*
Y-98516D01*
X57502D01*
X58168Y-98892D01*
X58668Y-99766D01*
X58835Y-100766D01*
X58668Y-101766D01*
X58252Y-102516D01*
X57502Y-102892D01*
X55502D01*
G01X62002Y-106016D02*
Y-98516D01*
X64085D01*
X64751Y-98892D01*
X65168Y-99391D01*
X65335Y-100391D01*
X65168Y-101391D01*
X64668Y-102016D01*
X64085Y-102391D01*
X62002D01*
G01X64085D02*
X65335Y-106016D01*
G01X69168Y-98516D02*
X71168D01*
G01X70168D02*
Y-106016D01*
G01X69168D02*
X71168D01*
G01X74502D02*
Y-98516D01*
X76668Y-104766D01*
X78835Y-98516D01*
Y-106016D01*
G01X81085D02*
X83168Y-98516D01*
X85252Y-106016D01*
G01X84502Y-103391D02*
X81835D01*
G01X88002Y-106016D02*
Y-98516D01*
X90085D01*
X90752Y-98892D01*
X91168Y-99391D01*
X91335Y-100391D01*
X91168Y-101391D01*
X90668Y-102016D01*
X90085Y-102391D01*
X88002D01*
G01X90085D02*
X91335Y-106016D01*
G01X96168D02*
Y-102641D01*
X94502Y-98516D01*
G01X97835D02*
X96168Y-102641D01*
G01X101585Y-103516D02*
X103752D01*
G01X107418Y-105017D02*
X108085Y-105641D01*
X108835Y-106016D01*
X109502D01*
X110168Y-105641D01*
X110668Y-105017D01*
X110918Y-104141D01*
X110752Y-103266D01*
X110335Y-102516D01*
X109585Y-102016D01*
X108585Y-101766D01*
X108002Y-101266D01*
X107752Y-100391D01*
X107918Y-99516D01*
X108335Y-98892D01*
X108918Y-98516D01*
X109502D01*
X110085Y-98766D01*
X110585Y-99391D01*
G01X114668Y-98516D02*
X116668D01*
G01X115668D02*
Y-106016D01*
G01X114668D02*
X116668D01*
G01X120335D02*
Y-98516D01*
X122002D01*
X122668Y-98892D01*
X123168Y-99391D01*
X123585Y-100141D01*
X123918Y-101017D01*
X124002Y-102266D01*
X123918Y-103516D01*
X123585Y-104391D01*
X123168Y-105142D01*
X122668Y-105641D01*
X122002Y-106016D01*
X120335D01*
G01X130335D02*
X127002D01*
Y-98516D01*
X130335D01*
G01X129002Y-102141D02*
X127002D01*
G01X55502Y-86016D02*
Y-93516D01*
X58835D01*
G01X61585D02*
X63668Y-86016D01*
X65752Y-93516D01*
G01X65002Y-90892D02*
X62335D01*
G01X70168Y-93516D02*
Y-90141D01*
X68502Y-86016D01*
G01X71835D02*
X70168Y-90141D01*
G01X78335Y-93516D02*
X75002D01*
Y-86016D01*
X78335D01*
G01X77002Y-89641D02*
X75002D01*
G01X81502Y-93516D02*
Y-86016D01*
X83585D01*
X84252Y-86392D01*
X84668Y-86891D01*
X84835Y-87892D01*
X84668Y-88892D01*
X84168Y-89516D01*
X83585Y-89892D01*
X81502D01*
G01X83585D02*
X84835Y-93516D01*
G01X89668Y-93766D02*
X89502Y-93641D01*
Y-93391D01*
X89668Y-93266D01*
X89835Y-93391D01*
Y-93641D01*
X89668Y-93766D01*
G01Y-90392D02*
X89502Y-90266D01*
Y-90016D01*
X89668Y-89892D01*
X89835Y-90016D01*
Y-90266D01*
X89668Y-90392D01*
G01X90702Y-131016D02*
Y-126016D01*
X92035D01*
X92462Y-126266D01*
X92728Y-126600D01*
X92835Y-127266D01*
X92728Y-127933D01*
X92408Y-128350D01*
X92035Y-128600D01*
X90702D01*
G01X92035D02*
X92835Y-131016D01*
G01X95968D02*
X95542Y-130933D01*
X95168Y-130600D01*
X94848Y-130100D01*
X94635Y-129516D01*
X94528Y-128850D01*
Y-128183D01*
X94635Y-127516D01*
X94848Y-126933D01*
X95168Y-126433D01*
X95542Y-126100D01*
X95968Y-126016D01*
X96395Y-126100D01*
X96768Y-126433D01*
X97088Y-126933D01*
X97302Y-127516D01*
X97408Y-128183D01*
Y-128850D01*
X97302Y-129516D01*
X97088Y-130100D01*
X96768Y-130600D01*
X96395Y-130933D01*
X95968Y-131016D01*
G01X99048D02*
Y-126016D01*
G01X101288D02*
Y-131016D01*
G01Y-128516D02*
X99048D01*
G01X102982Y-131016D02*
Y-126016D01*
X104368Y-130183D01*
X105755Y-126016D01*
Y-131016D01*
G01X111648Y-130350D02*
X112075Y-130767D01*
X112555Y-131016D01*
X112982D01*
X113408Y-130767D01*
X113728Y-130350D01*
X113888Y-129766D01*
X113782Y-129183D01*
X113515Y-128683D01*
X113035Y-128350D01*
X112395Y-128183D01*
X112022Y-127850D01*
X111862Y-127266D01*
X111968Y-126683D01*
X112235Y-126266D01*
X112608Y-126016D01*
X112982D01*
X113355Y-126183D01*
X113675Y-126600D01*
G01X118035Y-131016D02*
X115902D01*
Y-126016D01*
X118035D01*
G01X117182Y-128433D02*
X115902D01*
G01X119782Y-131016D02*
Y-126016D01*
X121168Y-130183D01*
X122555Y-126016D01*
Y-131016D01*
G01X124728Y-126016D02*
X126008D01*
G01X125368D02*
Y-131016D01*
G01X124728D02*
X126008D01*
G01X130742Y-126433D02*
X130421Y-126183D01*
X130048Y-126016D01*
X129622D01*
X129142Y-126266D01*
X128768Y-126683D01*
X128502Y-127183D01*
X128288Y-128016D01*
X128235Y-128766D01*
X128342Y-129516D01*
X128502Y-130016D01*
X128821Y-130516D01*
X129195Y-130850D01*
X129568Y-131016D01*
X129942D01*
X130315Y-130850D01*
X130635Y-130600D01*
X130902Y-130267D01*
G01X133768Y-131016D02*
X133342Y-130933D01*
X132968Y-130600D01*
X132648Y-130100D01*
X132435Y-129516D01*
X132328Y-128850D01*
Y-128183D01*
X132435Y-127516D01*
X132648Y-126933D01*
X132968Y-126433D01*
X133342Y-126100D01*
X133768Y-126016D01*
X134195Y-126100D01*
X134568Y-126433D01*
X134888Y-126933D01*
X135102Y-127516D01*
X135208Y-128183D01*
Y-128850D01*
X135102Y-129516D01*
X134888Y-130100D01*
X134568Y-130600D01*
X134195Y-130933D01*
X133768Y-131016D01*
G01X136742D02*
Y-126016D01*
X139195Y-131016D01*
Y-126016D01*
G01X140995Y-131016D02*
Y-126016D01*
X142062D01*
X142488Y-126266D01*
X142808Y-126600D01*
X143075Y-127100D01*
X143288Y-127683D01*
X143342Y-128516D01*
X143288Y-129350D01*
X143075Y-129933D01*
X142808Y-130433D01*
X142488Y-130767D01*
X142062Y-131016D01*
X140995D01*
G01X145195Y-126016D02*
Y-129600D01*
X145408Y-130350D01*
X145835Y-130850D01*
X146368Y-131016D01*
X146902Y-130850D01*
X147328Y-130350D01*
X147542Y-129600D01*
Y-126016D01*
G01X151742Y-126433D02*
X151422Y-126183D01*
X151048Y-126016D01*
X150622D01*
X150142Y-126266D01*
X149768Y-126683D01*
X149502Y-127183D01*
X149288Y-128016D01*
X149235Y-128766D01*
X149342Y-129516D01*
X149502Y-130016D01*
X149821Y-130516D01*
X150195Y-130850D01*
X150568Y-131016D01*
X150942D01*
X151315Y-130850D01*
X151635Y-130600D01*
X151902Y-130267D01*
G01X154768Y-126016D02*
Y-131016D01*
G01X153542Y-126016D02*
X155995D01*
G01X158968Y-131016D02*
X158542Y-130933D01*
X158168Y-130600D01*
X157848Y-130100D01*
X157635Y-129516D01*
X157528Y-128850D01*
Y-128183D01*
X157635Y-127516D01*
X157848Y-126933D01*
X158168Y-126433D01*
X158542Y-126100D01*
X158968Y-126016D01*
X159395Y-126100D01*
X159768Y-126433D01*
X160088Y-126933D01*
X160302Y-127516D01*
X160408Y-128183D01*
Y-128850D01*
X160302Y-129516D01*
X160088Y-130100D01*
X159768Y-130600D01*
X159395Y-130933D01*
X158968Y-131016D01*
G01X162102D02*
Y-126016D01*
X163435D01*
X163862Y-126266D01*
X164128Y-126600D01*
X164235Y-127266D01*
X164128Y-127933D01*
X163808Y-128350D01*
X163435Y-128600D01*
X162102D01*
G01X163435D02*
X164235Y-131016D01*
G01X95202Y-120016D02*
Y-115016D01*
X96482D01*
X96908Y-115266D01*
X97228Y-115850D01*
X97335Y-116516D01*
X97228Y-117183D01*
X96962Y-117683D01*
X96482Y-117933D01*
X95202D01*
G01X100468Y-115016D02*
Y-120016D01*
G01X99242Y-115016D02*
X101695D01*
G01X103548Y-120016D02*
Y-115016D01*
G01X105788D02*
Y-120016D01*
G01Y-117516D02*
X103548D01*
G01X107535Y-115016D02*
X108868Y-120016D01*
X110202Y-115016D01*
G01X111895Y-120016D02*
Y-115016D01*
X112962D01*
X113388Y-115266D01*
X113708Y-115600D01*
X113975Y-116100D01*
X114188Y-116683D01*
X114242Y-117516D01*
X114188Y-118350D01*
X113975Y-118933D01*
X113708Y-119433D01*
X113388Y-119766D01*
X112962Y-120016D01*
X111895D01*
G01X118442Y-115433D02*
X118121Y-115183D01*
X117748Y-115016D01*
X117322D01*
X116842Y-115266D01*
X116468Y-115683D01*
X116202Y-116183D01*
X115988Y-117016D01*
X115935Y-117766D01*
X116042Y-118516D01*
X116202Y-119016D01*
X116521Y-119516D01*
X116895Y-119850D01*
X117268Y-120016D01*
X117642D01*
X118015Y-119850D01*
X118335Y-119600D01*
X118602Y-119267D01*
G01X97168Y-86016D02*
X96501Y-86266D01*
X96002Y-86891D01*
X95668Y-87641D01*
X95418Y-88642D01*
X95335Y-89766D01*
X95418Y-90892D01*
X95668Y-91892D01*
X96002Y-92642D01*
X96501Y-93266D01*
X97168Y-93516D01*
X97835Y-93266D01*
X98335Y-92642D01*
X98668Y-91892D01*
X98918Y-90892D01*
X99002Y-89766D01*
X98918Y-88642D01*
X98668Y-87641D01*
X98335Y-86891D01*
X97835Y-86266D01*
X97168Y-86016D01*
G01X103668Y-93516D02*
Y-86016D01*
X102668Y-87516D01*
G01Y-93516D02*
X104668D01*
G01X167168Y-81016D02*
Y-156016D01*
G01X170335Y-141016D02*
Y-135016D01*
X171935D01*
X172468Y-135316D01*
X172868Y-136016D01*
X173002Y-136816D01*
X172868Y-137616D01*
X172535Y-138216D01*
X171935Y-138517D01*
X170335D01*
G01X175535Y-141016D02*
Y-135016D01*
X177202D01*
X177735Y-135316D01*
X178068Y-135716D01*
X178202Y-136516D01*
X178068Y-137316D01*
X177668Y-137816D01*
X177202Y-138116D01*
X175535D01*
G01X177202D02*
X178202Y-141016D01*
G01X182068D02*
X181535Y-140916D01*
X181068Y-140516D01*
X180668Y-139916D01*
X180402Y-139216D01*
X180268Y-138416D01*
Y-137616D01*
X180402Y-136816D01*
X180668Y-136116D01*
X181068Y-135516D01*
X181535Y-135116D01*
X182068Y-135016D01*
X182602Y-135116D01*
X183068Y-135516D01*
X183468Y-136116D01*
X183735Y-136816D01*
X183868Y-137616D01*
Y-138416D01*
X183735Y-139216D01*
X183468Y-139916D01*
X183068Y-140516D01*
X182602Y-140916D01*
X182068Y-141016D01*
G01X185935Y-139816D02*
X186268Y-140416D01*
X186668Y-140816D01*
X187135Y-141016D01*
X187668Y-140816D01*
X188068Y-140416D01*
X188468Y-139816D01*
X188602Y-139016D01*
Y-135016D01*
G01X193802Y-141016D02*
X191135D01*
Y-135016D01*
X193802D01*
G01X192735Y-137916D02*
X191135D01*
G01X199135Y-135516D02*
X198735Y-135216D01*
X198268Y-135016D01*
X197735D01*
X197135Y-135316D01*
X196668Y-135816D01*
X196335Y-136416D01*
X196068Y-137416D01*
X196002Y-138316D01*
X196135Y-139216D01*
X196335Y-139816D01*
X196735Y-140416D01*
X197202Y-140816D01*
X197668Y-141016D01*
X198135D01*
X198602Y-140816D01*
X199002Y-140516D01*
X199335Y-140117D01*
G01X202868Y-135016D02*
Y-141016D01*
G01X201335Y-135016D02*
X204402D01*
G01X211735Y-141016D02*
Y-135016D01*
X214802Y-141016D01*
Y-135016D01*
G01X217001D02*
Y-139316D01*
X217268Y-140217D01*
X217801Y-140816D01*
X218468Y-141016D01*
X219135Y-140816D01*
X219668Y-140217D01*
X219935Y-139316D01*
Y-135016D01*
G01X221935Y-141016D02*
Y-135016D01*
X223668Y-140016D01*
X225402Y-135016D01*
Y-141016D01*
G01X229402Y-137816D02*
X229668Y-137516D01*
X229868Y-137016D01*
X230002Y-136316D01*
X229868Y-135716D01*
X229602Y-135316D01*
X229135Y-135016D01*
X227335D01*
Y-141016D01*
X229535D01*
X230002Y-140616D01*
X230268Y-140016D01*
X230401Y-139316D01*
X230268Y-138616D01*
X229868Y-138016D01*
X229402Y-137816D01*
X227335D01*
G01X235402Y-141016D02*
X232735D01*
Y-135016D01*
X235402D01*
G01X234335Y-137916D02*
X232735D01*
G01X237935Y-141016D02*
Y-135016D01*
X239601D01*
X240135Y-135316D01*
X240468Y-135716D01*
X240602Y-136516D01*
X240468Y-137316D01*
X240068Y-137816D01*
X239601Y-138116D01*
X237935D01*
G01X239601D02*
X240602Y-141016D01*
G01X244468Y-141216D02*
X244335Y-141116D01*
Y-140916D01*
X244468Y-140816D01*
X244602Y-140916D01*
Y-141116D01*
X244468Y-141216D01*
G01Y-138517D02*
X244335Y-138416D01*
Y-138216D01*
X244468Y-138116D01*
X244602Y-138216D01*
Y-138416D01*
X244468Y-138517D01*
G01X170335Y-118516D02*
Y-112516D01*
X171935D01*
X172468Y-112817D01*
X172868Y-113516D01*
X173002Y-114316D01*
X172868Y-115116D01*
X172535Y-115716D01*
X171935Y-116017D01*
X170335D01*
G01X175535Y-118516D02*
Y-112516D01*
X177202D01*
X177735Y-112817D01*
X178068Y-113216D01*
X178202Y-114016D01*
X178068Y-114816D01*
X177668Y-115316D01*
X177202Y-115616D01*
X175535D01*
G01X177202D02*
X178202Y-118516D01*
G01X182068D02*
X181535Y-118416D01*
X181068Y-118016D01*
X180668Y-117416D01*
X180402Y-116716D01*
X180268Y-115916D01*
Y-115116D01*
X180402Y-114316D01*
X180668Y-113616D01*
X181068Y-113017D01*
X181535Y-112616D01*
X182068Y-112516D01*
X182602Y-112616D01*
X183068Y-113017D01*
X183468Y-113616D01*
X183735Y-114316D01*
X183868Y-115116D01*
Y-115916D01*
X183735Y-116716D01*
X183468Y-117416D01*
X183068Y-118016D01*
X182602Y-118416D01*
X182068Y-118516D01*
G01X185935Y-117316D02*
X186268Y-117916D01*
X186668Y-118316D01*
X187135Y-118516D01*
X187668Y-118316D01*
X188068Y-117916D01*
X188468Y-117316D01*
X188602Y-116516D01*
Y-112516D01*
G01X193802Y-118516D02*
X191135D01*
Y-112516D01*
X193802D01*
G01X192735Y-115416D02*
X191135D01*
G01X199135Y-113017D02*
X198735Y-112716D01*
X198268Y-112516D01*
X197735D01*
X197135Y-112817D01*
X196668Y-113316D01*
X196335Y-113916D01*
X196068Y-114916D01*
X196002Y-115816D01*
X196135Y-116716D01*
X196335Y-117316D01*
X196735Y-117916D01*
X197202Y-118316D01*
X197668Y-118516D01*
X198135D01*
X198602Y-118316D01*
X199002Y-118016D01*
X199335Y-117617D01*
G01X202868Y-112516D02*
Y-118516D01*
G01X201335Y-112516D02*
X204402D01*
G01X211735Y-118516D02*
Y-112516D01*
X214802Y-118516D01*
Y-112516D01*
G01X216802Y-118516D02*
X218468Y-112516D01*
X220135Y-118516D01*
G01X219535Y-116416D02*
X217401D01*
G01X221935Y-118516D02*
Y-112516D01*
X223668Y-117516D01*
X225402Y-112516D01*
Y-118516D01*
G01X230202D02*
X227535D01*
Y-112516D01*
X230202D01*
G01X229135Y-115416D02*
X227535D01*
G01X234068Y-118716D02*
X233935Y-118616D01*
Y-118416D01*
X234068Y-118316D01*
X234202Y-118416D01*
Y-118616D01*
X234068Y-118716D01*
G01Y-116017D02*
X233935Y-115916D01*
Y-115716D01*
X234068Y-115616D01*
X234202Y-115716D01*
Y-115916D01*
X234068Y-116017D01*
G01X364668Y-133516D02*
X167168D01*
G01X364668Y-111016D02*
X167168D01*
G01X173135Y-83016D02*
X172735Y-82716D01*
X172268Y-82516D01*
X171735D01*
X171135Y-82816D01*
X170668Y-83316D01*
X170335Y-83916D01*
X170068Y-84916D01*
X170002Y-85816D01*
X170135Y-86716D01*
X170335Y-87316D01*
X170735Y-87916D01*
X171202Y-88316D01*
X171668Y-88516D01*
X172135D01*
X172602Y-88316D01*
X173002Y-88016D01*
X173335Y-87617D01*
G01X176868Y-88516D02*
X176335Y-88416D01*
X175868Y-88016D01*
X175468Y-87416D01*
X175202Y-86716D01*
X175068Y-85916D01*
Y-85116D01*
X175202Y-84316D01*
X175468Y-83616D01*
X175868Y-83016D01*
X176335Y-82616D01*
X176868Y-82516D01*
X177402Y-82616D01*
X177868Y-83016D01*
X178268Y-83616D01*
X178535Y-84316D01*
X178668Y-85116D01*
Y-85916D01*
X178535Y-86716D01*
X178268Y-87416D01*
X177868Y-88016D01*
X177402Y-88416D01*
X176868Y-88516D01*
G01X180335D02*
Y-82516D01*
X182068Y-87516D01*
X183802Y-82516D01*
Y-88516D01*
G01X185935D02*
Y-82516D01*
X187535D01*
X188068Y-82816D01*
X188468Y-83516D01*
X188602Y-84316D01*
X188468Y-85116D01*
X188135Y-85716D01*
X187535Y-86017D01*
X185935D01*
G01X190802Y-88516D02*
X192468Y-82516D01*
X194135Y-88516D01*
G01X193535Y-86416D02*
X191402D01*
G01X196135Y-88516D02*
Y-82516D01*
X199202Y-88516D01*
Y-82516D01*
G01X202868Y-88516D02*
Y-85816D01*
X201535Y-82516D01*
G01X204202D02*
X202868Y-85816D01*
G01X211735Y-88516D02*
Y-82516D01*
X214802Y-88516D01*
Y-82516D01*
G01X216802Y-88516D02*
X218468Y-82516D01*
X220135Y-88516D01*
G01X219535Y-86416D02*
X217401D01*
G01X221935Y-88516D02*
Y-82516D01*
X223668Y-87516D01*
X225402Y-82516D01*
Y-88516D01*
G01X230202D02*
X227535D01*
Y-82516D01*
X230202D01*
G01X229135Y-85416D02*
X227535D01*
G01X234068Y-88716D02*
X233935Y-88616D01*
Y-88416D01*
X234068Y-88316D01*
X234202Y-88416D01*
Y-88616D01*
X234068Y-88716D01*
G01Y-86017D02*
X233935Y-85916D01*
Y-85716D01*
X234068Y-85616D01*
X234202Y-85716D01*
Y-85916D01*
X234068Y-86017D01*
G01X194035Y-106016D02*
Y-98016D01*
X196202D01*
X196895Y-98417D01*
X197328Y-98950D01*
X197502Y-100016D01*
X197328Y-101083D01*
X196808Y-101750D01*
X196202Y-102150D01*
X194035D01*
G01X196202D02*
X197502Y-106016D01*
G01X202568D02*
X201875Y-105883D01*
X201268Y-105350D01*
X200748Y-104550D01*
X200401Y-103616D01*
X200228Y-102550D01*
Y-101483D01*
X200401Y-100416D01*
X200748Y-99483D01*
X201268Y-98683D01*
X201875Y-98150D01*
X202568Y-98016D01*
X203261Y-98150D01*
X203868Y-98683D01*
X204388Y-99483D01*
X204735Y-100416D01*
X204908Y-101483D01*
Y-102550D01*
X204735Y-103616D01*
X204388Y-104550D01*
X203868Y-105350D01*
X203261Y-105883D01*
X202568Y-106016D01*
G01X207548D02*
Y-98016D01*
G01X211188D02*
Y-106016D01*
G01Y-102016D02*
X207548D01*
G01X213915Y-106016D02*
Y-98016D01*
X216168Y-104683D01*
X218422Y-98016D01*
Y-106016D01*
G01X227948Y-104950D02*
X228642Y-105616D01*
X229422Y-106016D01*
X230115D01*
X230808Y-105616D01*
X231328Y-104950D01*
X231588Y-104016D01*
X231415Y-103083D01*
X230982Y-102283D01*
X230202Y-101750D01*
X229162Y-101483D01*
X228555Y-100950D01*
X228295Y-100016D01*
X228468Y-99083D01*
X228902Y-98417D01*
X229508Y-98016D01*
X230115D01*
X230722Y-98283D01*
X231242Y-98950D01*
G01X238302Y-106016D02*
X234835D01*
Y-98016D01*
X238302D01*
G01X236915Y-101883D02*
X234835D01*
G01X241115Y-106016D02*
Y-98016D01*
X243368Y-104683D01*
X245622Y-98016D01*
Y-106016D01*
G01X249128Y-98016D02*
X251208D01*
G01X250168D02*
Y-106016D01*
G01X249128D02*
X251208D01*
G01X258875Y-98683D02*
X258355Y-98283D01*
X257748Y-98016D01*
X257055D01*
X256275Y-98417D01*
X255668Y-99083D01*
X255235Y-99883D01*
X254888Y-101216D01*
X254801Y-102416D01*
X254975Y-103616D01*
X255235Y-104416D01*
X255755Y-105217D01*
X256362Y-105750D01*
X256968Y-106016D01*
X257575D01*
X258182Y-105750D01*
X258702Y-105350D01*
X259135Y-104817D01*
G01X263768Y-106016D02*
X263075Y-105883D01*
X262468Y-105350D01*
X261948Y-104550D01*
X261601Y-103616D01*
X261428Y-102550D01*
Y-101483D01*
X261601Y-100416D01*
X261948Y-99483D01*
X262468Y-98683D01*
X263075Y-98150D01*
X263768Y-98016D01*
X264462Y-98150D01*
X265068Y-98683D01*
X265588Y-99483D01*
X265935Y-100416D01*
X266108Y-101483D01*
Y-102550D01*
X265935Y-103616D01*
X265588Y-104550D01*
X265068Y-105350D01*
X264462Y-105883D01*
X263768Y-106016D01*
G01X268575D02*
Y-98016D01*
X272562Y-106016D01*
Y-98016D01*
G01X275462Y-106016D02*
Y-98016D01*
X277195D01*
X277888Y-98417D01*
X278408Y-98950D01*
X278842Y-99750D01*
X279188Y-100683D01*
X279275Y-102016D01*
X279188Y-103350D01*
X278842Y-104283D01*
X278408Y-105083D01*
X277888Y-105616D01*
X277195Y-106016D01*
X275462D01*
G01X282262Y-98016D02*
Y-103750D01*
X282608Y-104950D01*
X283302Y-105750D01*
X284168Y-106016D01*
X285035Y-105750D01*
X285728Y-104950D01*
X286075Y-103750D01*
Y-98016D01*
G01X292875Y-98683D02*
X292355Y-98283D01*
X291748Y-98016D01*
X291055D01*
X290275Y-98417D01*
X289668Y-99083D01*
X289235Y-99883D01*
X288888Y-101216D01*
X288801Y-102416D01*
X288975Y-103616D01*
X289235Y-104416D01*
X289755Y-105217D01*
X290362Y-105750D01*
X290968Y-106016D01*
X291575D01*
X292182Y-105750D01*
X292702Y-105350D01*
X293135Y-104817D01*
G01X297768Y-98016D02*
Y-106016D01*
G01X295775Y-98016D02*
X299761D01*
G01X304568Y-106016D02*
X303875Y-105883D01*
X303268Y-105350D01*
X302748Y-104550D01*
X302401Y-103616D01*
X302228Y-102550D01*
Y-101483D01*
X302401Y-100416D01*
X302748Y-99483D01*
X303268Y-98683D01*
X303875Y-98150D01*
X304568Y-98016D01*
X305262Y-98150D01*
X305868Y-98683D01*
X306388Y-99483D01*
X306735Y-100416D01*
X306908Y-101483D01*
Y-102550D01*
X306735Y-103616D01*
X306388Y-104550D01*
X305868Y-105350D01*
X305262Y-105883D01*
X304568Y-106016D01*
G01X309635D02*
Y-98016D01*
X311802D01*
X312495Y-98417D01*
X312928Y-98950D01*
X313102Y-100016D01*
X312928Y-101083D01*
X312408Y-101750D01*
X311802Y-102150D01*
X309635D01*
G01X311802D02*
X313102Y-106016D01*
G01X323062Y-98016D02*
Y-103750D01*
X323408Y-104950D01*
X324102Y-105750D01*
X324968Y-106016D01*
X325835Y-105750D01*
X326528Y-104950D01*
X326875Y-103750D01*
Y-98016D01*
G01X329948Y-104950D02*
X330642Y-105616D01*
X331422Y-106016D01*
X332115D01*
X332808Y-105616D01*
X333328Y-104950D01*
X333588Y-104016D01*
X333415Y-103083D01*
X332982Y-102283D01*
X332202Y-101750D01*
X331162Y-101483D01*
X330555Y-100950D01*
X330295Y-100016D01*
X330468Y-99083D01*
X330902Y-98417D01*
X331508Y-98016D01*
X332115D01*
X332722Y-98283D01*
X333242Y-98950D01*
G01X336401Y-106016D02*
X338568Y-98016D01*
X340735Y-106016D01*
G01X339955Y-103216D02*
X337181D01*
G01X230675Y-153516D02*
Y-145516D01*
X234662Y-153516D01*
Y-145516D01*
G01X237561D02*
Y-151250D01*
X237908Y-152450D01*
X238602Y-153250D01*
X239468Y-153516D01*
X240335Y-153250D01*
X241028Y-152450D01*
X241375Y-151250D01*
Y-145516D01*
G01X244015Y-153516D02*
Y-145516D01*
X246268Y-152183D01*
X248522Y-145516D01*
Y-153516D01*
G01X253761Y-149250D02*
X254108Y-148850D01*
X254368Y-148183D01*
X254542Y-147250D01*
X254368Y-146450D01*
X254022Y-145917D01*
X253415Y-145516D01*
X251075D01*
Y-153516D01*
X253935D01*
X254542Y-152983D01*
X254888Y-152183D01*
X255061Y-151250D01*
X254888Y-150317D01*
X254368Y-149516D01*
X253761Y-149250D01*
X251075D01*
G01X261602Y-153516D02*
X258135D01*
Y-145516D01*
X261602D01*
G01X260215Y-149383D02*
X258135D01*
G01X264935Y-153516D02*
Y-145516D01*
X267102D01*
X267795Y-145917D01*
X268228Y-146450D01*
X268402Y-147516D01*
X268228Y-148583D01*
X267708Y-149250D01*
X267102Y-149650D01*
X264935D01*
G01X267102D02*
X268402Y-153516D01*
G01X216862Y-126750D02*
X217208Y-126350D01*
X217468Y-125683D01*
X217642Y-124750D01*
X217468Y-123950D01*
X217122Y-123417D01*
X216515Y-123016D01*
X214175D01*
Y-131016D01*
X217035D01*
X217642Y-130483D01*
X217988Y-129683D01*
X218162Y-128750D01*
X217988Y-127817D01*
X217468Y-127016D01*
X216862Y-126750D01*
X214175D01*
G01X221061Y-131016D02*
Y-123016D01*
X222795D01*
X223488Y-123417D01*
X224008Y-123950D01*
X224442Y-124750D01*
X224788Y-125683D01*
X224875Y-127016D01*
X224788Y-128350D01*
X224442Y-129283D01*
X224008Y-130083D01*
X223488Y-130616D01*
X222795Y-131016D01*
X221061D01*
G01X228295Y-130083D02*
X228902Y-130750D01*
X229595Y-131016D01*
X230288Y-130750D01*
X230895Y-129950D01*
X231328Y-128750D01*
X231502Y-127550D01*
Y-126083D01*
X231328Y-124883D01*
X230895Y-123816D01*
X230375Y-123283D01*
X229768Y-123016D01*
X229075Y-123283D01*
X228555Y-123816D01*
X228208Y-124616D01*
X228035Y-125683D01*
X228208Y-126616D01*
X228642Y-127550D01*
X229162Y-128083D01*
X229768Y-128216D01*
X230461Y-127950D01*
X230982Y-127283D01*
X231502Y-126083D01*
G01X236568Y-131016D02*
Y-123016D01*
X235528Y-124616D01*
G01Y-131016D02*
X237608D01*
G01X243368Y-123016D02*
X242675Y-123283D01*
X242155Y-123950D01*
X241808Y-124750D01*
X241548Y-125816D01*
X241462Y-127016D01*
X241548Y-128216D01*
X241808Y-129283D01*
X242155Y-130083D01*
X242675Y-130750D01*
X243368Y-131016D01*
X244061Y-130750D01*
X244582Y-130083D01*
X244928Y-129283D01*
X245188Y-128216D01*
X245275Y-127016D01*
X245188Y-125816D01*
X244928Y-124750D01*
X244582Y-123950D01*
X244061Y-123283D01*
X243368Y-123016D01*
G01X248695Y-130083D02*
X249301Y-130750D01*
X249995Y-131016D01*
X250688Y-130750D01*
X251295Y-129950D01*
X251728Y-128750D01*
X251902Y-127550D01*
Y-126083D01*
X251728Y-124883D01*
X251295Y-123816D01*
X250775Y-123283D01*
X250168Y-123016D01*
X249475Y-123283D01*
X248955Y-123816D01*
X248608Y-124616D01*
X248435Y-125683D01*
X248608Y-126616D01*
X249042Y-127550D01*
X249562Y-128083D01*
X250168Y-128216D01*
X250861Y-127950D01*
X251382Y-127283D01*
X251902Y-126083D01*
G01X255322Y-131016D02*
Y-123016D01*
X258615D01*
G01X257401Y-126883D02*
X255322D01*
G01X261601Y-123016D02*
X263768Y-131016D01*
X265935Y-123016D01*
G01X268315Y-131016D02*
Y-123016D01*
X270568Y-129683D01*
X272822Y-123016D01*
Y-131016D01*
G01X279102D02*
X275635D01*
Y-123016D01*
X279102D01*
G01X277715Y-126883D02*
X275635D01*
G01X282001Y-123016D02*
X284168Y-131016D01*
X286335Y-123016D01*
G01X289062Y-131016D02*
Y-123016D01*
G01X292355D02*
X289062Y-127950D01*
G01X292875Y-131016D02*
X290535Y-125683D01*
G01X296642Y-128350D02*
X298895D01*
G01X304568Y-131016D02*
Y-123016D01*
X303528Y-124616D01*
G01Y-131016D02*
X305608D01*
G01X311368Y-123016D02*
X310675Y-123283D01*
X310155Y-123950D01*
X309808Y-124750D01*
X309548Y-125816D01*
X309461Y-127016D01*
X309548Y-128216D01*
X309808Y-129283D01*
X310155Y-130083D01*
X310675Y-130750D01*
X311368Y-131016D01*
X312062Y-130750D01*
X312582Y-130083D01*
X312928Y-129283D01*
X313188Y-128216D01*
X313275Y-127016D01*
X313188Y-125816D01*
X312928Y-124750D01*
X312582Y-123950D01*
X312062Y-123283D01*
X311368Y-123016D01*
G01X318168Y-131016D02*
Y-123016D01*
X317128Y-124616D01*
G01Y-131016D02*
X319208D01*
G01X334668Y-133516D02*
Y-156016D01*
G01X340535Y-141016D02*
Y-135016D01*
X342202D01*
X342735Y-135316D01*
X343068Y-135716D01*
X343202Y-136516D01*
X343068Y-137316D01*
X342668Y-137816D01*
X342202Y-138116D01*
X340535D01*
G01X342202D02*
X343202Y-141016D01*
G01X348402D02*
X345735D01*
Y-135016D01*
X348402D01*
G01X347335Y-137916D02*
X345735D01*
G01X350602Y-135016D02*
X352268Y-141016D01*
X353935Y-135016D01*
G01X357468Y-141216D02*
X357335Y-141116D01*
Y-140916D01*
X357468Y-140816D01*
X357602Y-140916D01*
Y-141116D01*
X357468Y-141216D01*
G01X346268Y-145516D02*
X345575Y-145783D01*
X345055Y-146450D01*
X344708Y-147250D01*
X344448Y-148316D01*
X344362Y-149516D01*
X344448Y-150716D01*
X344708Y-151783D01*
X345055Y-152583D01*
X345575Y-153250D01*
X346268Y-153516D01*
X346961Y-153250D01*
X347482Y-152583D01*
X347828Y-151783D01*
X348088Y-150716D01*
X348175Y-149516D01*
X348088Y-148316D01*
X347828Y-147250D01*
X347482Y-146450D01*
X346961Y-145783D01*
X346268Y-145516D01*
G01X353068Y-153516D02*
Y-145516D01*
X352028Y-147116D01*
G01Y-153516D02*
X354108D01*
G01X370658Y-149516D02*
X372478Y-145516D01*
G01X370658D02*
X372478Y-149516D01*
G01X374058D02*
X375878Y-145516D01*
G01X374058D02*
X375878Y-149516D01*
G01X377458D02*
X379278Y-145516D01*
G01X377458D02*
X379278Y-149516D01*
G01X364668Y-81016D02*
Y-156016D01*
G01X372015Y-132016D02*
Y-128016D01*
X372882D01*
X373228Y-128216D01*
X373488Y-128483D01*
X373705Y-128883D01*
X373878Y-129350D01*
X373922Y-130016D01*
X373878Y-130683D01*
X373705Y-131150D01*
X373488Y-131550D01*
X373228Y-131816D01*
X372882Y-132016D01*
X372015D01*
G01X377235D02*
X375502D01*
Y-128016D01*
X377235D01*
G01X376542Y-129950D02*
X375502D01*
G01X380722Y-128350D02*
X380462Y-128150D01*
X380158Y-128016D01*
X379812D01*
X379422Y-128216D01*
X379118Y-128550D01*
X378902Y-128950D01*
X378728Y-129616D01*
X378685Y-130216D01*
X378772Y-130816D01*
X378902Y-131216D01*
X379162Y-131616D01*
X379465Y-131883D01*
X379768Y-132016D01*
X380072D01*
X380375Y-131883D01*
X380635Y-131683D01*
X380852Y-131416D01*
G01X382648Y-128016D02*
X383688D01*
G01X383168D02*
Y-132016D01*
G01X382648D02*
X383688D01*
G01X385442D02*
Y-128016D01*
X386568Y-131350D01*
X387695Y-128016D01*
Y-132016D01*
G01X388885D02*
X389968Y-128016D01*
X391052Y-132016D01*
G01X390662Y-130616D02*
X389275D01*
G01X392502Y-128016D02*
Y-132016D01*
X394235D01*
G01X377458Y-137516D02*
X379278Y-133516D01*
G01X377458D02*
X379278Y-137516D01*
G01X374058Y-143516D02*
X375878Y-139516D01*
G01X374058D02*
X375878Y-143516D01*
G01X377458D02*
X379278Y-139516D01*
G01X377458D02*
X379278Y-143516D01*
G01X375715Y-89516D02*
Y-92383D01*
X375888Y-92983D01*
X376235Y-93383D01*
X376668Y-93516D01*
X377102Y-93383D01*
X377448Y-92983D01*
X377622Y-92383D01*
Y-89516D01*
G01X379072Y-93516D02*
Y-89516D01*
X381065Y-93516D01*
Y-89516D01*
G01X382602D02*
Y-93516D01*
X384335D01*
G01X387735D02*
X386002D01*
Y-89516D01*
X387735D01*
G01X387042Y-91450D02*
X386002D01*
G01X389358Y-92983D02*
X389705Y-93316D01*
X390095Y-93516D01*
X390442D01*
X390788Y-93316D01*
X391048Y-92983D01*
X391178Y-92516D01*
X391092Y-92050D01*
X390875Y-91650D01*
X390485Y-91383D01*
X389965Y-91250D01*
X389662Y-90983D01*
X389532Y-90516D01*
X389618Y-90050D01*
X389835Y-89716D01*
X390138Y-89516D01*
X390442D01*
X390745Y-89650D01*
X391005Y-89983D01*
G01X392758Y-92983D02*
X393105Y-93316D01*
X393495Y-93516D01*
X393842D01*
X394188Y-93316D01*
X394448Y-92983D01*
X394578Y-92516D01*
X394492Y-92050D01*
X394275Y-91650D01*
X393885Y-91383D01*
X393365Y-91250D01*
X393062Y-90983D01*
X392932Y-90516D01*
X393018Y-90050D01*
X393235Y-89716D01*
X393538Y-89516D01*
X393842D01*
X394145Y-89650D01*
X394405Y-89983D01*
G01X400468Y-93516D02*
X400122Y-93450D01*
X399818Y-93183D01*
X399558Y-92783D01*
X399385Y-92316D01*
X399298Y-91783D01*
Y-91250D01*
X399385Y-90716D01*
X399558Y-90250D01*
X399818Y-89850D01*
X400122Y-89583D01*
X400468Y-89516D01*
X400815Y-89583D01*
X401118Y-89850D01*
X401378Y-90250D01*
X401552Y-90716D01*
X401638Y-91250D01*
Y-91783D01*
X401552Y-92316D01*
X401378Y-92783D01*
X401118Y-93183D01*
X400815Y-93450D01*
X400468Y-93516D01*
G01X403868Y-89516D02*
Y-93516D01*
G01X402872Y-89516D02*
X404865D01*
G01X406358Y-93516D02*
Y-89516D01*
G01X408178D02*
Y-93516D01*
G01Y-91516D02*
X406358D01*
G01X411535Y-93516D02*
X409802D01*
Y-89516D01*
X411535D01*
G01X410842Y-91450D02*
X409802D01*
G01X413202Y-93516D02*
Y-89516D01*
X414285D01*
X414631Y-89716D01*
X414848Y-89983D01*
X414935Y-90516D01*
X414848Y-91050D01*
X414588Y-91383D01*
X414285Y-91583D01*
X413202D01*
G01X414285D02*
X414935Y-93516D01*
G01X416168Y-89516D02*
X416775Y-93516D01*
X417468Y-89516D01*
X418162Y-93516D01*
X418768Y-89516D01*
G01X420348D02*
X421388D01*
G01X420868D02*
Y-93516D01*
G01X420348D02*
X421388D01*
G01X423358Y-92983D02*
X423705Y-93316D01*
X424095Y-93516D01*
X424442D01*
X424788Y-93316D01*
X425048Y-92983D01*
X425178Y-92516D01*
X425092Y-92050D01*
X424875Y-91650D01*
X424485Y-91383D01*
X423965Y-91250D01*
X423661Y-90983D01*
X423532Y-90516D01*
X423618Y-90050D01*
X423835Y-89716D01*
X424138Y-89516D01*
X424442D01*
X424745Y-89650D01*
X425005Y-89983D01*
G01X428535Y-93516D02*
X426802D01*
Y-89516D01*
X428535D01*
G01X427842Y-91450D02*
X426802D01*
G01X368958Y-100483D02*
X369305Y-100816D01*
X369695Y-101016D01*
X370042D01*
X370388Y-100816D01*
X370648Y-100483D01*
X370778Y-100016D01*
X370692Y-99550D01*
X370475Y-99150D01*
X370085Y-98883D01*
X369565Y-98750D01*
X369262Y-98483D01*
X369132Y-98016D01*
X369218Y-97550D01*
X369435Y-97216D01*
X369738Y-97016D01*
X370042D01*
X370345Y-97150D01*
X370605Y-97483D01*
G01X372402Y-101016D02*
Y-97016D01*
X373442D01*
X373788Y-97216D01*
X374048Y-97683D01*
X374135Y-98216D01*
X374048Y-98750D01*
X373832Y-99150D01*
X373442Y-99350D01*
X372402D01*
G01X377535Y-101016D02*
X375802D01*
Y-97016D01*
X377535D01*
G01X376842Y-98950D02*
X375802D01*
G01X381022Y-97350D02*
X380762Y-97150D01*
X380458Y-97016D01*
X380112D01*
X379722Y-97216D01*
X379418Y-97550D01*
X379202Y-97950D01*
X379028Y-98616D01*
X378985Y-99216D01*
X379072Y-99816D01*
X379202Y-100216D01*
X379462Y-100616D01*
X379765Y-100883D01*
X380068Y-101016D01*
X380372D01*
X380675Y-100883D01*
X380935Y-100683D01*
X381152Y-100416D01*
G01X382948Y-97016D02*
X383988D01*
G01X383468D02*
Y-101016D01*
G01X382948D02*
X383988D01*
G01X386045D02*
Y-97016D01*
X387692D01*
G01X387085Y-98950D02*
X386045D01*
G01X389748Y-97016D02*
X390788D01*
G01X390268D02*
Y-101016D01*
G01X389748D02*
X390788D01*
G01X394535D02*
X392802D01*
Y-97016D01*
X394535D01*
G01X393842Y-98950D02*
X392802D01*
G01X396115Y-101016D02*
Y-97016D01*
X396982D01*
X397328Y-97216D01*
X397588Y-97483D01*
X397805Y-97883D01*
X397978Y-98350D01*
X398022Y-99016D01*
X397978Y-99683D01*
X397805Y-100150D01*
X397588Y-100550D01*
X397328Y-100816D01*
X396982Y-101016D01*
X396115D01*
G01X402915D02*
Y-97016D01*
X403782D01*
X404128Y-97216D01*
X404388Y-97483D01*
X404605Y-97883D01*
X404778Y-98350D01*
X404822Y-99016D01*
X404778Y-99683D01*
X404605Y-100150D01*
X404388Y-100550D01*
X404128Y-100816D01*
X403782Y-101016D01*
X402915D01*
G01X406748Y-97016D02*
X407788D01*
G01X407268D02*
Y-101016D01*
G01X406748D02*
X407788D01*
G01X409542D02*
Y-97016D01*
X410668Y-100350D01*
X411795Y-97016D01*
Y-101016D01*
G01X414935D02*
X413202D01*
Y-97016D01*
X414935D01*
G01X414242Y-98950D02*
X413202D01*
G01X416472Y-101016D02*
Y-97016D01*
X418465Y-101016D01*
Y-97016D01*
G01X419958Y-100483D02*
X420305Y-100816D01*
X420695Y-101016D01*
X421042D01*
X421388Y-100816D01*
X421648Y-100483D01*
X421778Y-100016D01*
X421692Y-99550D01*
X421475Y-99150D01*
X421085Y-98883D01*
X420565Y-98750D01*
X420262Y-98483D01*
X420131Y-98016D01*
X420218Y-97550D01*
X420435Y-97216D01*
X420738Y-97016D01*
X421042D01*
X421345Y-97150D01*
X421605Y-97483D01*
G01X423748Y-97016D02*
X424788D01*
G01X424268D02*
Y-101016D01*
G01X423748D02*
X424788D01*
G01X427668D02*
X427322Y-100950D01*
X427018Y-100683D01*
X426758Y-100283D01*
X426585Y-99816D01*
X426498Y-99283D01*
Y-98750D01*
X426585Y-98216D01*
X426758Y-97750D01*
X427018Y-97350D01*
X427322Y-97083D01*
X427668Y-97016D01*
X428015Y-97083D01*
X428318Y-97350D01*
X428578Y-97750D01*
X428752Y-98216D01*
X428838Y-98750D01*
Y-99283D01*
X428752Y-99816D01*
X428578Y-100283D01*
X428318Y-100683D01*
X428015Y-100950D01*
X427668Y-101016D01*
G01X430072D02*
Y-97016D01*
X432065Y-101016D01*
Y-97016D01*
G01X433558Y-100483D02*
X433905Y-100816D01*
X434295Y-101016D01*
X434642D01*
X434988Y-100816D01*
X435248Y-100483D01*
X435378Y-100016D01*
X435292Y-99550D01*
X435075Y-99150D01*
X434685Y-98883D01*
X434165Y-98750D01*
X433862Y-98483D01*
X433731Y-98016D01*
X433818Y-97550D01*
X434035Y-97216D01*
X434338Y-97016D01*
X434642D01*
X434945Y-97150D01*
X435205Y-97483D01*
G01X386968Y-149650D02*
X386882Y-149583D01*
Y-149450D01*
X386968Y-149383D01*
X387055Y-149450D01*
Y-149583D01*
X386968Y-149650D01*
G01X390368Y-145516D02*
X390022Y-145650D01*
X389762Y-145983D01*
X389588Y-146383D01*
X389458Y-146916D01*
X389415Y-147516D01*
X389458Y-148116D01*
X389588Y-148650D01*
X389762Y-149050D01*
X390022Y-149383D01*
X390368Y-149516D01*
X390715Y-149383D01*
X390975Y-149050D01*
X391148Y-148650D01*
X391278Y-148116D01*
X391322Y-147516D01*
X391278Y-146916D01*
X391148Y-146383D01*
X390975Y-145983D01*
X390715Y-145650D01*
X390368Y-145516D01*
G01X393768Y-149516D02*
Y-145516D01*
X393248Y-146316D01*
G01Y-149516D02*
X394288D01*
G01X397168Y-145516D02*
X396822Y-145650D01*
X396561Y-145983D01*
X396388Y-146383D01*
X396258Y-146916D01*
X396215Y-147516D01*
X396258Y-148116D01*
X396388Y-148650D01*
X396561Y-149050D01*
X396822Y-149383D01*
X397168Y-149516D01*
X397515Y-149383D01*
X397775Y-149050D01*
X397948Y-148650D01*
X398078Y-148116D01*
X398122Y-147516D01*
X398078Y-146916D01*
X397948Y-146383D01*
X397775Y-145983D01*
X397515Y-145650D01*
X397168Y-145516D01*
G01X381668Y-149516D02*
X384668D01*
G01X383168Y-145816D02*
Y-148816D01*
G01X381668Y-147316D02*
X384668D01*
G01X380685Y-108516D02*
X381768Y-104516D01*
X382852Y-108516D01*
G01X382461Y-107116D02*
X381075D01*
G01X384302Y-108516D02*
Y-104516D01*
X385385D01*
X385732Y-104716D01*
X385948Y-104983D01*
X386035Y-105516D01*
X385948Y-106050D01*
X385688Y-106383D01*
X385385Y-106583D01*
X384302D01*
G01X385385D02*
X386035Y-108516D01*
G01X389435D02*
X387702D01*
Y-104516D01*
X389435D01*
G01X388742Y-106450D02*
X387702D01*
G01X394848Y-104516D02*
X395888D01*
G01X395368D02*
Y-108516D01*
G01X394848D02*
X395888D01*
G01X397772D02*
Y-104516D01*
X399765Y-108516D01*
Y-104516D01*
G01X405048D02*
X406088D01*
G01X405568D02*
Y-108516D01*
G01X405048D02*
X406088D01*
G01X407972D02*
Y-104516D01*
X409965Y-108516D01*
Y-104516D01*
G01X413322Y-104850D02*
X413061Y-104650D01*
X412758Y-104516D01*
X412412D01*
X412022Y-104716D01*
X411718Y-105050D01*
X411502Y-105450D01*
X411328Y-106116D01*
X411285Y-106716D01*
X411372Y-107316D01*
X411502Y-107716D01*
X411762Y-108116D01*
X412065Y-108383D01*
X412368Y-108516D01*
X412672D01*
X412975Y-108383D01*
X413235Y-108183D01*
X413452Y-107916D01*
G01X414858Y-108516D02*
Y-104516D01*
G01X416678D02*
Y-108516D01*
G01Y-106516D02*
X414858D01*
G01X420035Y-108516D02*
X418302D01*
Y-104516D01*
X420035D01*
G01X419342Y-106450D02*
X418302D01*
G01X421658Y-107983D02*
X422005Y-108316D01*
X422395Y-108516D01*
X422741D01*
X423088Y-108316D01*
X423348Y-107983D01*
X423478Y-107516D01*
X423392Y-107050D01*
X423175Y-106650D01*
X422785Y-106383D01*
X422265Y-106250D01*
X421962Y-105983D01*
X421831Y-105516D01*
X421918Y-105050D01*
X422135Y-104716D01*
X422438Y-104516D01*
X422741D01*
X423045Y-104650D01*
X423305Y-104983D01*
G01X386868Y-119516D02*
Y-123516D01*
G01X385872Y-119516D02*
X387865D01*
G01X390268Y-123516D02*
X389922Y-123450D01*
X389618Y-123183D01*
X389358Y-122783D01*
X389185Y-122316D01*
X389098Y-121783D01*
Y-121250D01*
X389185Y-120716D01*
X389358Y-120250D01*
X389618Y-119850D01*
X389922Y-119583D01*
X390268Y-119516D01*
X390615Y-119583D01*
X390918Y-119850D01*
X391178Y-120250D01*
X391352Y-120716D01*
X391438Y-121250D01*
Y-121783D01*
X391352Y-122316D01*
X391178Y-122783D01*
X390918Y-123183D01*
X390615Y-123450D01*
X390268Y-123516D01*
G01X392802Y-119516D02*
Y-123516D01*
X394535D01*
G01X397935D02*
X396202D01*
Y-119516D01*
X397935D01*
G01X397242Y-121450D02*
X396202D01*
G01X399602Y-123516D02*
Y-119516D01*
X400685D01*
X401032Y-119716D01*
X401248Y-119983D01*
X401335Y-120516D01*
X401248Y-121050D01*
X400988Y-121383D01*
X400685Y-121583D01*
X399602D01*
G01X400685D02*
X401335Y-123516D01*
G01X402785D02*
X403868Y-119516D01*
X404952Y-123516D01*
G01X404562Y-122116D02*
X403175D01*
G01X406272Y-123516D02*
Y-119516D01*
X408265Y-123516D01*
Y-119516D01*
G01X411622Y-119850D02*
X411362Y-119650D01*
X411058Y-119516D01*
X410712D01*
X410322Y-119716D01*
X410018Y-120050D01*
X409802Y-120450D01*
X409628Y-121116D01*
X409585Y-121716D01*
X409672Y-122316D01*
X409802Y-122716D01*
X410061Y-123116D01*
X410365Y-123383D01*
X410668Y-123516D01*
X410972D01*
X411275Y-123383D01*
X411535Y-123183D01*
X411752Y-122916D01*
G01X414935Y-123516D02*
X413202D01*
Y-119516D01*
X414935D01*
G01X414242Y-121450D02*
X413202D01*
G01X416558Y-122983D02*
X416905Y-123316D01*
X417295Y-123516D01*
X417642D01*
X417988Y-123316D01*
X418248Y-122983D01*
X418378Y-122516D01*
X418292Y-122050D01*
X418075Y-121650D01*
X417685Y-121383D01*
X417165Y-121250D01*
X416862Y-120983D01*
X416731Y-120516D01*
X416818Y-120050D01*
X417035Y-119716D01*
X417338Y-119516D01*
X417642D01*
X417945Y-119650D01*
X418205Y-119983D01*
G01X386968Y-137650D02*
X386882Y-137583D01*
Y-137450D01*
X386968Y-137383D01*
X387055Y-137450D01*
Y-137583D01*
X386968Y-137650D01*
G01X390368Y-137516D02*
Y-133516D01*
X389848Y-134316D01*
G01Y-137516D02*
X390888D01*
G01X386968Y-143650D02*
X386882Y-143583D01*
Y-143450D01*
X386968Y-143383D01*
X387055Y-143450D01*
Y-143583D01*
X386968Y-143650D01*
G01X390368Y-139516D02*
X390022Y-139650D01*
X389762Y-139983D01*
X389588Y-140383D01*
X389458Y-140916D01*
X389415Y-141516D01*
X389458Y-142116D01*
X389588Y-142650D01*
X389762Y-143050D01*
X390022Y-143383D01*
X390368Y-143516D01*
X390715Y-143383D01*
X390975Y-143050D01*
X391148Y-142650D01*
X391278Y-142116D01*
X391322Y-141516D01*
X391278Y-140916D01*
X391148Y-140383D01*
X390975Y-139983D01*
X390715Y-139650D01*
X390368Y-139516D01*
G01X392815Y-142716D02*
X393075Y-143183D01*
X393422Y-143450D01*
X393812Y-143516D01*
X394158Y-143450D01*
X394505Y-143116D01*
X394722Y-142716D01*
X394765Y-142316D01*
X394678Y-141850D01*
X394375Y-141516D01*
X394072Y-141383D01*
X393682D01*
G01X394072D02*
X394332Y-141183D01*
X394548Y-140850D01*
X394635Y-140450D01*
X394548Y-140050D01*
X394332Y-139716D01*
X393942Y-139516D01*
X393552Y-139583D01*
X393162Y-139850D01*
G01X411785Y-132016D02*
X412868Y-128016D01*
X413952Y-132016D01*
G01X413561Y-130616D02*
X412175D01*
G01X415272Y-132016D02*
Y-128016D01*
X417265Y-132016D01*
Y-128016D01*
G01X419928Y-130016D02*
X420795D01*
Y-131216D01*
X420535Y-131616D01*
X420231Y-131883D01*
X419798Y-132016D01*
X419365Y-131883D01*
X419062Y-131616D01*
X418802Y-131216D01*
X418628Y-130750D01*
X418542Y-130216D01*
Y-129750D01*
X418628Y-129350D01*
X418802Y-128883D01*
X419062Y-128483D01*
X419322Y-128216D01*
X419668Y-128016D01*
X419972D01*
X420318Y-128150D01*
X420578Y-128416D01*
G01X422202Y-128016D02*
Y-132016D01*
X423935D01*
G01X427335D02*
X425602D01*
Y-128016D01*
X427335D01*
G01X426642Y-129950D02*
X425602D01*
G01X404542Y-144016D02*
Y-140016D01*
X405668Y-143350D01*
X406795Y-140016D01*
Y-144016D01*
G01X407985D02*
X409068Y-140016D01*
X410152Y-144016D01*
G01X409762Y-142616D02*
X408375D01*
G01X413422Y-140350D02*
X413162Y-140150D01*
X412858Y-140016D01*
X412512D01*
X412122Y-140216D01*
X411818Y-140550D01*
X411602Y-140950D01*
X411428Y-141616D01*
X411385Y-142216D01*
X411472Y-142816D01*
X411602Y-143216D01*
X411862Y-143616D01*
X412165Y-143883D01*
X412468Y-144016D01*
X412772D01*
X413075Y-143883D01*
X413335Y-143683D01*
X413552Y-143416D01*
G01X414958Y-144016D02*
Y-140016D01*
G01X416778D02*
Y-144016D01*
G01Y-142016D02*
X414958D01*
G01X421845Y-144016D02*
Y-140016D01*
X423492D01*
G01X422885Y-141950D02*
X421845D01*
G01X425548Y-140016D02*
X426588D01*
G01X426068D02*
Y-144016D01*
G01X425548D02*
X426588D01*
G01X428472D02*
Y-140016D01*
X430465Y-144016D01*
Y-140016D01*
G01X432348D02*
X433388D01*
G01X432868D02*
Y-144016D01*
G01X432348D02*
X433388D01*
G01X435358Y-143483D02*
X435705Y-143816D01*
X436095Y-144016D01*
X436442D01*
X436788Y-143816D01*
X437048Y-143483D01*
X437178Y-143016D01*
X437092Y-142550D01*
X436875Y-142150D01*
X436485Y-141883D01*
X435965Y-141750D01*
X435661Y-141483D01*
X435532Y-141016D01*
X435618Y-140550D01*
X435835Y-140216D01*
X436138Y-140016D01*
X436442D01*
X436745Y-140150D01*
X437005Y-140483D01*
G01X438758Y-144016D02*
Y-140016D01*
G01X440578D02*
Y-144016D01*
G01Y-142016D02*
X438758D01*
G01X381668Y-135316D02*
X384668D01*
G01X381668Y-137516D02*
X384668D01*
G01X383168Y-133816D02*
Y-136816D01*
G01X381668Y-143516D02*
X384668D01*
G01X383168Y-139816D02*
Y-142816D01*
G01X381668Y-141316D02*
X384668D01*
G01X425168Y-145016D02*
X422868Y-149516D01*
X421368Y-147316D01*
G01X423515Y-137216D02*
X423775Y-137683D01*
X424122Y-137950D01*
X424512Y-138016D01*
X424858Y-137950D01*
X425205Y-137616D01*
X425422Y-137216D01*
X425465Y-136816D01*
X425378Y-136350D01*
X425075Y-136016D01*
X424772Y-135883D01*
X424381D01*
G01X424772D02*
X425031Y-135683D01*
X425248Y-135350D01*
X425335Y-134950D01*
X425248Y-134550D01*
X425031Y-134216D01*
X424642Y-134016D01*
X424252Y-134083D01*
X423862Y-134350D01*
G01X427868Y-134016D02*
X427522Y-134150D01*
X427262Y-134483D01*
X427088Y-134883D01*
X426958Y-135416D01*
X426915Y-136016D01*
X426958Y-136616D01*
X427088Y-137150D01*
X427262Y-137550D01*
X427522Y-137883D01*
X427868Y-138016D01*
X428215Y-137883D01*
X428475Y-137550D01*
X428648Y-137150D01*
X428778Y-136616D01*
X428822Y-136016D01*
X428778Y-135416D01*
X428648Y-134883D01*
X428475Y-134483D01*
X428215Y-134150D01*
X427868Y-134016D01*
G01X418368Y-135316D02*
X421368D01*
G01X418368Y-137516D02*
X421368D01*
G01X419868Y-133816D02*
Y-136816D01*
G01X423668Y-145016D02*
X426668D01*
G54D15*
X94500Y109340D03*
Y126660D03*
G54D16*
X112000Y113000D03*
Y125000D03*
X147500Y112000D03*
Y124000D03*
G54D17*
X119100Y98000D03*
X124900D03*
G54D18*
X114500Y150500D03*
G54D19*
X104500D03*
X94500D03*
M02*
